<?xml version="1.0" standalone="no"?>
<!DOCTYPE svg PUBLIC "-//W3C//DTD SVG 20010904//EN"
 "http://www.w3.org/TR/2001/REC-SVG-20010904/DTD/svg10.dtd">
<svg version="1.0" xmlns="http://www.w3.org/2000/svg"
 width="3333.000000pt" height="1047.000000pt" viewBox="0 0 3333.000000 1047.000000"
 preserveAspectRatio="xMidYMid meet">

<g transform="translate(0.000000,1047.000000) scale(0.100000,-0.100000)"
fill="#000000" stroke="none">
<path d="M0 5775 l0 -4695 16665 0 16665 0 0 4695 0 4695 -16665 0 -16665 0 0
-4695z m29083 4076 c14 -6 28 -19 32 -30 8 -25 49 -38 148 -45 92 -7 117 -18
117 -51 0 -18 -9 -27 -44 -40 -25 -10 -47 -24 -51 -32 -6 -18 11 -43 31 -43 7
0 25 -11 40 -23 34 -29 28 -47 -25 -84 -79 -56 -75 -108 8 -101 38 3 49 0 66
-21 27 -31 56 -22 78 24 18 39 46 45 106 24 l31 -11 0 -78 c0 -100 8 -108 89
-92 93 19 140 16 183 -14 43 -30 48 -54 16 -77 l-23 -16 43 -36 c48 -42 53
-67 17 -91 -36 -24 -123 -14 -212 24 -39 17 -74 28 -76 25 -3 -2 1 -20 9 -38
19 -46 18 -61 -6 -85 -15 -15 -33 -20 -70 -20 -41 0 -56 -5 -75 -24 -15 -15
-22 -31 -19 -41 9 -23 58 -45 114 -52 71 -8 97 1 119 46 11 21 27 41 36 45 30
11 79 6 115 -12 31 -15 35 -21 35 -57 l0 -40 54 -7 c113 -17 147 -74 66 -112
-38 -17 -55 -32 -55 -48 0 -5 32 -8 72 -8 116 0 198 -52 198 -126 l0 -34 500
0 500 0 0 -691 0 -690 45 -45 c47 -46 69 -52 123 -33 27 9 39 7 75 -10 24 -12
60 -21 81 -21 20 0 46 -5 57 -10 23 -13 25 -52 4 -70 -21 -17 -19 -36 7 -71
29 -38 17 -60 -40 -74 -102 -25 -54 -55 90 -55 101 0 109 -6 91 -73 -15 -53
-9 -65 38 -77 27 -7 44 -19 51 -36 10 -22 8 -28 -20 -57 -18 -18 -32 -40 -32
-48 0 -8 16 -31 35 -49 30 -29 35 -41 33 -70 l-3 -35 -67 -3 c-81 -4 -103 12
-113 82 l-7 46 -50 0 c-39 0 -54 -5 -73 -24 -22 -22 -23 -29 -14 -53 17 -44
39 -62 97 -79 63 -19 102 -52 102 -87 0 -18 -9 -28 -40 -42 -38 -17 -58 -45
-45 -65 8 -14 74 -30 122 -30 62 0 93 -31 101 -100 6 -50 10 -55 37 -63 83
-25 99 -43 110 -118 l7 -47 -69 -23 c-85 -29 -167 -30 -214 -3 -48 28 -50 60
-6 79 96 40 24 98 -122 99 -32 1 -56 -4 -58 -11 -2 -6 16 -34 41 -62 50 -56
56 -79 27 -105 -30 -27 -68 -11 -108 46 -42 57 -76 63 -81 14 -8 -63 36 -116
96 -116 65 0 91 -33 56 -71 -17 -19 -12 -39 10 -39 7 0 39 20 70 45 32 25 65
45 73 45 7 0 23 -10 33 -22 71 -81 70 -80 103 -74 94 18 113 18 127 1 12 -15
12 -21 -1 -43 -16 -29 -43 -45 -105 -61 -46 -12 -55 -27 -74 -121 -20 -99 -61
-127 -110 -75 -13 14 -29 25 -36 25 -27 0 -54 35 -56 75 -2 42 -14 68 -29 59
-5 -3 -9 -13 -9 -23 0 -12 -19 -26 -60 -44 -81 -35 -81 -55 0 -98 66 -35 115
-88 136 -147 26 -74 16 -94 -60 -122 -36 -13 -45 -23 -72 -79 -17 -35 -38 -68
-48 -73 -10 -6 -38 -7 -63 -3 -29 4 -70 0 -119 -11 l-74 -18 0 -1073 0 -1073
-2950 0 -2950 0 0 1058 0 1058 -42 32 c-56 43 -76 41 -125 -13 -51 -56 -89
-61 -135 -15 -26 27 -29 35 -23 69 5 31 1 49 -20 89 -24 45 -25 54 -15 92 14
53 5 96 -26 116 -22 15 -26 15 -50 -1 -39 -25 -66 -13 -99 47 -21 35 -44 60
-75 78 -36 21 -46 32 -48 58 -3 29 0 33 38 48 65 26 67 43 10 101 -74 75 -79
122 -15 148 77 33 118 15 178 -75 48 -74 69 -83 121 -51 18 12 43 21 54 21 50
0 54 -96 8 -151 -31 -36 -29 -53 5 -57 13 -2 36 -15 52 -28 16 -13 33 -24 38
-24 24 0 50 23 64 55 9 23 21 35 33 35 10 0 27 9 37 20 25 28 6 47 -56 55 -58
8 -74 28 -64 85 8 50 25 72 66 85 23 8 34 18 34 31 0 15 -12 22 -54 32 -79 19
-116 10 -146 -38 -37 -59 -68 -55 -132 14 -32 34 -62 56 -82 61 -40 8 -47 22
-26 45 9 10 20 35 25 55 7 30 5 40 -10 55 -17 17 -31 21 -112 35 -38 6 -40 10
-53 73 -5 22 -22 45 -56 74 -40 33 -49 47 -49 73 0 34 37 77 78 90 18 5 22 14
22 45 0 77 77 99 86 24 1 -16 12 -36 24 -44 68 -49 66 -45 51 -85 -15 -41 -10
-49 38 -61 29 -8 41 8 41 60 0 43 22 76 51 76 10 0 41 -20 69 -45 33 -29 60
-45 78 -45 15 -1 52 -9 82 -20 104 -37 130 -27 130 46 0 47 -3 54 -20 54 -10
0 -35 -14 -54 -31 -52 -45 -84 -38 -114 23 -25 54 -51 74 -125 98 l-52 17 0
44 c0 58 -26 65 -56 15 -28 -48 -54 -55 -87 -23 -42 40 -77 49 -139 37 -29 -6
-67 -9 -83 -5 -25 5 -30 12 -30 35 0 22 14 41 61 84 34 31 70 69 80 84 9 16
29 32 43 36 32 8 34 33 6 69 -11 14 -20 32 -20 40 0 32 97 33 148 1 16 -10 22
-24 22 -48 0 -26 8 -41 31 -60 17 -14 40 -26 52 -26 40 0 50 -14 42 -57 -8
-48 -1 -55 76 -77 70 -20 112 -56 104 -89 -4 -15 -1 -28 9 -36 9 -8 16 -20 16
-27 0 -24 30 -15 61 18 24 27 29 41 29 85 0 49 -2 53 -27 59 -16 4 -33 11 -40
16 -7 6 -19 5 -31 -3 -16 -10 -26 -9 -57 7 -54 27 -67 51 -37 71 32 22 27 33
-13 33 -43 0 -53 19 -36 67 16 43 4 59 -52 70 -36 8 -42 12 -48 42 -4 21 -19
44 -38 58 -36 28 -40 60 -14 104 15 24 15 34 5 61 -17 47 -3 58 78 58 87 0 97
4 121 52 20 38 22 40 57 34 79 -14 85 -13 109 23 l23 34 0 683 0 684 494 0
493 0 7 38 c7 48 47 87 111 108 91 31 97 49 25 81 -34 15 -53 30 -60 49 -13
34 -3 88 21 110 18 16 22 16 84 -5 36 -12 69 -19 75 -16 5 3 14 25 20 48 19
72 30 86 86 104 51 16 53 15 88 -6 19 -12 40 -20 45 -17 5 3 12 23 16 43 8 47
40 121 62 145 21 24 53 23 101 -2 31 -16 45 -18 66 -11 14 6 26 15 26 20 0 20
53 71 73 71 12 0 42 -14 67 -30 51 -34 72 -37 90 -15 21 26 -9 74 -95 151 -82
74 -101 104 -85 134 13 25 92 50 157 50 49 0 55 -3 71 -30 18 -32 69 -59 117
-62 47 -3 55 7 55 70 0 107 48 133 100 56 34 -49 51 -52 63 -11 4 15 10 39 15
55 10 38 88 77 126 63 46 -18 52 -49 21 -126 -33 -81 -28 -90 60 -106 67 -12
100 -36 109 -80 7 -37 34 -49 52 -24 7 10 31 26 54 36 57 26 51 45 -22 68 -20
7 -40 20 -43 30 -4 12 -19 20 -46 24 -75 10 -100 57 -54 100 18 16 28 39 34
77 5 30 15 58 22 63 151 89 170 98 189 92 27 -9 50 -55 50 -104 0 -22 4 -43
10 -46 10 -6 85 29 95 45 11 18 61 11 82 -12 12 -13 26 -42 32 -65 13 -48 51
-83 90 -83 49 0 71 -25 71 -80 0 -66 27 -86 117 -84 l64 2 45 -57 c55 -67 66
-73 169 -100 54 -14 85 -27 96 -42 14 -19 23 -21 62 -16 54 8 114 35 122 55
12 32 -15 42 -109 42 -111 0 -170 18 -216 65 -31 32 -34 39 -37 117 -5 92 -18
139 -37 132 -7 -3 -34 -33 -59 -68 -52 -71 -89 -93 -130 -77 -33 13 -34 35
-10 127 9 35 14 66 11 69 -3 4 -24 -3 -47 -14 -73 -38 -121 -19 -121 48 0 24
-10 49 -30 75 -68 89 -15 123 112 71 89 -36 159 -34 224 6 84 54 138 68 187
50z m-24538 -1410 c483 -73 815 -218 1056 -460 191 -191 292 -392 347 -686 25
-136 24 -553 -2 -690 -77 -412 -291 -685 -619 -790 l-69 -22 84 -26 c506 -158
814 -612 879 -1297 31 -326 -30 -700 -154 -947 -241 -478 -724 -779 -1437
-895 -133 -22 -151 -22 -1442 -25 l-1308 -4 0 420 0 420 213 3 212 3 55 31
c67 38 114 97 137 172 17 54 18 171 18 1937 l0 1880 -24 59 c-28 69 -79 129
-135 159 -36 20 -61 23 -216 27 l-175 5 -3 360 c-1 198 0 366 3 373 7 18 2459
12 2580 -7z m7225 -2561 l5 -2395 26 -55 c36 -77 71 -115 135 -146 50 -25 65
-27 165 -26 l109 2 0 -355 0 -355 -865 0 -865 0 2 353 3 352 106 1 c91 1 115
5 160 26 95 44 149 121 169 239 14 88 14 3690 0 3778 -18 108 -72 190 -155
234 -32 17 -65 22 -160 26 l-120 6 -3 345 c-1 190 0 351 3 358 3 10 136 12
642 10 l638 -3 5 -2395z m1860 33 c0 -2556 -2 -2431 53 -2525 55 -94 132 -129
287 -131 l105 -2 3 -352 2 -353 -870 0 -870 0 2 353 3 352 100 1 c181 2 266
53 322 194 17 43 18 143 18 1955 0 2151 7 1965 -77 2060 -64 73 -103 88 -243
94 l-120 6 -3 345 c-1 190 0 351 3 357 3 10 140 13 645 13 l640 0 0 -2367z
m-6070 -635 c0 -1460 -1 -1437 62 -1605 19 -49 50 -114 71 -145 83 -124 224
-224 372 -264 33 -8 112 -18 175 -21 97 -5 129 -2 200 16 330 82 534 327 579
696 16 135 15 1610 -2 1691 -25 118 -95 198 -200 229 -31 9 -92 15 -159 15
l-108 0 0 355 0 355 675 0 675 0 0 -1538 c0 -1375 2 -1544 16 -1592 29 -98 82
-159 168 -195 28 -12 69 -16 147 -16 l109 1 0 -355 0 -355 -600 0 -600 0 0
140 c0 77 -2 140 -3 140 -2 0 -24 -19 -48 -41 -118 -111 -262 -194 -432 -248
-175 -56 -255 -66 -522 -66 -208 1 -253 4 -338 23 -537 119 -881 442 -1031
969 -14 48 -36 142 -48 208 -21 117 -22 145 -28 1055 l-5 935 -26 55 c-31 67
-79 117 -139 144 -36 16 -72 21 -177 24 l-133 4 0 347 c0 191 3 351 7 354 3 4
307 7 675 7 l668 0 0 -1322z"/>
<path d="M28277 9403 c-15 -14 -5 -39 29 -74 23 -24 34 -43 31 -53 -4 -9 -31
-27 -62 -40 -30 -14 -55 -30 -55 -35 0 -6 9 -20 20 -31 11 -11 20 -31 20 -45
0 -19 8 -28 35 -39 26 -11 40 -26 55 -60 21 -50 43 -66 90 -66 44 0 64 13 96
65 27 41 32 45 69 45 23 0 53 9 70 20 36 24 92 26 123 4 19 -13 21 -22 16 -49
-5 -31 -4 -35 21 -41 33 -8 89 16 105 46 9 17 5 24 -35 52 -35 25 -45 38 -45
60 0 36 -53 73 -82 57 -10 -5 -18 -16 -18 -23 0 -7 -9 -21 -20 -31 -18 -17
-26 -17 -69 -6 -60 15 -84 5 -129 -54 -75 -98 -175 -77 -175 37 0 33 6 47 27
65 15 13 33 23 40 23 19 0 39 55 32 85 -5 18 -19 31 -44 42 -20 8 -47 24 -61
34 -23 19 -71 26 -84 12z"/>
<path d="M27714 9344 c-29 -31 -36 -34 -89 -34 -55 0 -57 -1 -50 -22 15 -50
11 -62 -32 -86 -48 -26 -55 -50 -23 -82 14 -14 33 -20 63 -20 53 0 75 21 84
76 6 40 25 69 56 85 13 8 31 2 73 -22 47 -27 59 -30 80 -20 33 15 48 57 33 93
-9 23 -18 28 -44 28 -18 0 -44 9 -58 20 -35 28 -57 24 -93 -16z"/>
<path d="M27668 9036 c-7 -8 -21 -23 -30 -35 -13 -15 -29 -21 -57 -21 -22 0
-46 -3 -55 -6 -24 -9 -19 -40 9 -58 34 -22 22 -43 -34 -60 -25 -7 -46 -19 -46
-26 0 -28 54 -54 119 -58 56 -4 67 -1 86 18 15 15 20 29 16 43 -21 74 -21 75
23 88 36 11 50 10 97 -5 32 -10 60 -26 69 -40 20 -30 84 -59 121 -54 23 2 30
8 32 31 4 30 44 57 85 57 14 0 30 7 37 15 10 12 6 23 -24 60 -21 25 -44 45
-52 45 -8 0 -30 -16 -50 -35 -40 -40 -52 -42 -96 -15 -22 13 -51 20 -84 20
-38 0 -58 6 -84 25 -38 28 -62 31 -82 11z"/>
<path d="M27189 9014 c-29 -22 -41 -25 -82 -20 -53 6 -77 0 -77 -19 0 -7 -20
-25 -45 -39 -60 -35 -59 -52 3 -95 25 -18 32 -29 32 -56 0 -30 5 -37 40 -55
21 -11 55 -20 75 -20 60 0 76 -14 69 -60 -9 -52 14 -87 61 -96 52 -9 85 15 85
64 0 45 -6 55 -47 76 -40 20 -56 49 -48 84 9 44 -15 67 -72 68 -54 1 -93 11
-93 24 0 16 20 22 82 26 90 5 100 10 93 44 -3 16 -2 31 4 35 17 10 13 52 -5
59 -27 10 -39 7 -75 -20z"/>
<path d="M29025 8987 c-7 -18 -25 -38 -39 -45 -28 -13 -41 -49 -32 -86 9 -38
41 -42 86 -12 53 35 109 35 146 1 15 -14 29 -25 31 -25 17 0 42 24 53 50 18
43 1 57 -79 71 -52 10 -66 17 -89 45 -34 43 -59 44 -77 1z"/>
<path d="M28670 8893 c-24 -9 -61 -46 -71 -71 -22 -57 33 -77 136 -50 l46 12
58 -60 c59 -62 147 -114 194 -114 14 0 37 6 52 14 19 10 35 12 54 5 14 -5 46
-8 70 -6 48 2 53 -3 82 -81 24 -67 88 -79 108 -20 16 46 14 130 -5 156 -14 20
-24 22 -98 22 -78 0 -84 1 -111 30 -37 39 -71 39 -121 -1 -29 -23 -44 -29 -64
-24 -43 11 -60 34 -60 81 0 53 -19 74 -70 74 -21 0 -57 9 -81 20 -43 19 -88
24 -119 13z"/>
<path d="M27950 8720 c-26 -26 -25 -45 7 -107 33 -62 51 -72 141 -74 93 -2
109 4 123 51 17 58 4 69 -74 63 l-62 -5 -32 46 c-37 52 -69 60 -103 26z"/>
<path d="M29611 8676 c-9 -10 -4 -22 20 -52 17 -21 38 -42 47 -46 51 -20 194
7 207 39 10 27 -21 43 -74 36 -33 -3 -61 1 -99 16 -61 24 -85 26 -101 7z"/>
<path d="M28706 8634 c-9 -8 -16 -26 -16 -38 0 -13 -8 -30 -17 -38 -27 -24
-90 -40 -123 -33 -31 7 -84 59 -95 95 -11 34 -56 23 -79 -21 -27 -49 -16 -79
45 -128 51 -41 109 -55 124 -31 10 16 71 11 125 -10 69 -27 133 -31 138 -7 2
11 -7 23 -27 35 -47 26 -42 56 13 81 73 32 72 80 -3 101 -50 14 -67 13 -85 -6z"/>
<path d="M26737 8622 c-26 -28 -21 -69 11 -100 15 -15 33 -39 40 -54 28 -66
106 -74 143 -15 45 75 45 151 -1 127 -31 -17 -51 -11 -91 25 -43 39 -77 44
-102 17z"/>
<path d="M27564 8602 c-18 -12 -24 -41 -13 -66 19 -40 142 -126 182 -126 25 0
57 36 57 65 0 15 9 31 25 41 31 21 32 49 1 69 -19 13 -28 13 -50 4 -14 -7 -28
-21 -32 -32 -8 -26 -50 -17 -105 23 -45 32 -48 33 -65 22z"/>
<path d="M25820 7855 l0 -126 148 3 147 3 3 123 3 122 -151 0 -150 0 0 -125z"/>
<path d="M26170 7855 l0 -125 73 0 c65 0 76 3 97 25 16 17 34 25 57 25 l33 0
0 100 0 100 -130 0 -130 0 0 -125z"/>
<path d="M26572 7883 l3 -98 105 0 105 0 3 98 3 97 -111 0 -111 0 3 -97z"/>
<path d="M26932 7883 l3 -98 105 0 105 0 3 98 3 97 -111 0 -111 0 3 -97z"/>
<path d="M27290 7880 l0 -100 105 0 105 0 0 100 0 100 -105 0 -105 0 0 -100z"/>
<path d="M27642 7883 l3 -98 108 -3 107 -3 0 101 0 100 -110 0 -111 0 3 -97z"/>
<path d="M28002 7883 l3 -98 115 0 115 0 3 98 3 97 -121 0 -121 0 3 -97z"/>
<path d="M28380 7880 l0 -100 125 0 125 0 0 100 0 100 -125 0 -125 0 0 -100z"/>
<path d="M28772 7883 l3 -98 105 0 105 0 3 98 3 97 -111 0 -111 0 3 -97z"/>
<path d="M29130 7880 l0 -100 105 0 105 0 0 100 0 100 -105 0 -105 0 0 -100z"/>
<path d="M29482 7883 l3 -98 108 -3 107 -3 0 101 0 100 -110 0 -111 0 3 -97z"/>
<path d="M29842 7883 l3 -98 105 0 105 0 3 98 3 97 -111 0 -111 0 3 -97z"/>
<path d="M30200 7880 l0 -100 29 0 c20 0 36 -9 49 -25 18 -23 26 -25 101 -25
l81 0 0 125 0 125 -130 0 -130 0 0 -100z"/>
<path d="M30510 7855 l0 -126 143 3 142 3 3 123 3 122 -146 0 -145 0 0 -125z"/>
<path d="M25820 7510 l0 -170 66 0 c58 0 70 3 90 25 16 18 34 25 59 25 28 0
37 5 44 23 5 13 16 29 25 36 13 11 16 35 16 122 l0 109 -150 0 -150 0 0 -170z"/>
<path d="M26170 7571 c0 -87 3 -111 16 -122 9 -7 20 -23 25 -36 8 -22 13 -23
114 -23 l105 0 0 124 0 123 -39 7 c-21 3 -44 13 -51 21 -9 11 -33 15 -91 15
l-79 0 0 -109z"/>
<path d="M30261 7660 c-13 -11 -32 -20 -42 -20 -18 0 -19 -9 -19 -125 l0 -125
105 0 c101 0 106 1 114 23 5 13 16 29 25 36 13 11 16 35 16 122 l0 109 -87 0
c-73 -1 -92 -4 -112 -20z"/>
<path d="M30510 7571 c0 -87 3 -111 16 -122 9 -7 20 -23 25 -36 8 -20 15 -23
68 -23 52 0 62 -3 80 -26 16 -21 27 -25 58 -22 l38 3 3 168 2 167 -145 0 -145
0 0 -109z"/>
<path d="M26572 7518 l3 -123 108 -3 107 -3 0 126 0 125 -110 0 -111 0 3 -122z"/>
<path d="M26930 7515 l0 -126 108 3 107 3 3 123 3 122 -111 0 -110 0 0 -125z"/>
<path d="M27290 7515 l0 -125 105 0 105 0 0 125 0 125 -105 0 -105 0 0 -125z"/>
<path d="M27642 7518 l3 -123 108 -3 107 -3 0 126 0 125 -110 0 -111 0 3 -122z"/>
<path d="M28000 7515 l0 -125 120 0 120 0 0 125 0 125 -120 0 -120 0 0 -125z"/>
<path d="M28380 7515 l0 -125 125 0 125 0 0 125 0 125 -125 0 -125 0 0 -125z"/>
<path d="M28770 7515 l0 -126 108 3 107 3 3 123 3 122 -111 0 -110 0 0 -125z"/>
<path d="M29130 7515 l0 -125 105 0 105 0 0 125 0 125 -105 0 -105 0 0 -125z"/>
<path d="M29482 7518 l3 -123 108 -3 107 -3 0 126 0 125 -110 0 -111 0 3 -122z"/>
<path d="M29840 7515 l0 -125 110 0 110 0 0 125 0 125 -110 0 -110 0 0 -125z"/>
<path d="M25820 7180 l0 -120 130 0 130 0 0 95 0 95 -34 0 c-22 0 -45 9 -64
25 -25 21 -40 25 -96 25 l-66 0 0 -120z"/>
<path d="M30693 7274 c-18 -20 -32 -24 -78 -24 l-55 0 0 -95 0 -95 120 0 121
0 -3 118 -3 117 -40 2 c-31 1 -45 -4 -62 -23z"/>
<path d="M26220 7155 l0 -95 105 0 105 0 0 95 0 95 -105 0 -105 0 0 -95z"/>
<path d="M26570 7155 l0 -95 110 0 110 0 0 95 0 95 -110 0 -110 0 0 -95z"/>
<path d="M26930 7155 l0 -95 110 0 110 0 0 95 0 95 -110 0 -110 0 0 -95z"/>
<path d="M27290 7155 l0 -95 105 0 105 0 0 95 0 95 -105 0 -105 0 0 -95z"/>
<path d="M27640 7155 l0 -95 110 0 110 0 0 95 0 95 -110 0 -110 0 0 -95z"/>
<path d="M28000 7155 l0 -95 120 0 120 0 0 95 0 95 -120 0 -120 0 0 -95z"/>
<path d="M28380 7155 l0 -95 125 0 125 0 0 95 0 95 -125 0 -125 0 0 -95z"/>
<path d="M28770 7155 l0 -95 110 0 110 0 0 95 0 95 -110 0 -110 0 0 -95z"/>
<path d="M29130 7155 l0 -95 105 0 105 0 0 95 0 95 -105 0 -105 0 0 -95z"/>
<path d="M29480 7155 l0 -95 110 0 110 0 0 95 0 95 -110 0 -110 0 0 -95z"/>
<path d="M29840 7155 l0 -95 110 0 110 0 0 95 0 95 -110 0 -110 0 0 -95z"/>
<path d="M30200 7155 l0 -95 110 0 110 0 0 95 0 95 -110 0 -110 0 0 -95z"/>
<path d="M25820 6810 l0 -110 130 0 131 0 -3 108 -3 107 -127 3 -128 3 0 -111z"/>
<path d="M26220 6810 l0 -110 105 0 105 0 0 110 0 110 -105 0 -105 0 0 -110z"/>
<path d="M26577 6914 c-4 -4 -7 -54 -7 -111 l0 -103 110 0 111 0 -3 108 -3
107 -101 3 c-55 1 -103 0 -107 -4z"/>
<path d="M26937 6914 c-4 -4 -7 -54 -7 -111 l0 -103 110 0 111 0 -3 108 -3
107 -101 3 c-55 1 -103 0 -107 -4z"/>
<path d="M27290 6810 l0 -110 105 0 105 0 0 110 0 110 -105 0 -105 0 0 -110z"/>
<path d="M27647 6913 c-4 -3 -7 -53 -7 -110 l0 -103 110 0 110 0 0 110 0 110
-103 0 c-57 0 -107 -3 -110 -7z"/>
<path d="M28007 6914 c-4 -4 -7 -54 -7 -111 l0 -103 120 0 121 0 -3 108 -3
107 -111 3 c-60 1 -113 -1 -117 -4z"/>
<path d="M28380 6810 l0 -110 125 0 125 0 0 110 0 110 -125 0 -125 0 0 -110z"/>
<path d="M28777 6914 c-4 -4 -7 -54 -7 -111 l0 -103 110 0 111 0 -3 108 -3
107 -101 3 c-55 1 -103 0 -107 -4z"/>
<path d="M29130 6810 l0 -110 105 0 105 0 0 110 0 110 -105 0 -105 0 0 -110z"/>
<path d="M29487 6913 c-4 -3 -7 -53 -7 -110 l0 -103 110 0 110 0 0 110 0 110
-103 0 c-57 0 -107 -3 -110 -7z"/>
<path d="M29847 6914 c-4 -4 -7 -54 -7 -111 l0 -103 110 0 111 0 -3 108 -3
107 -101 3 c-55 1 -103 0 -107 -4z"/>
<path d="M30200 6810 l0 -110 110 0 111 0 -3 108 -3 107 -107 3 -108 3 0 -111z"/>
<path d="M30560 6810 l0 -110 120 0 121 0 -3 108 -3 107 -117 3 -118 3 0 -111z"/>
<path d="M25300 6900 c-11 -7 -14 -25 -12 -74 2 -57 0 -66 -18 -76 -11 -6 -36
-8 -55 -4 -75 14 -118 -28 -57 -55 94 -44 204 -54 243 -22 23 18 23 19 6 72
-9 30 -22 73 -27 96 -6 23 -20 49 -33 58 -25 18 -27 18 -47 5z"/>
<path d="M31234 6626 c-54 -24 -55 -49 -3 -78 29 -17 30 -20 27 -78 -3 -73 9
-91 48 -65 26 17 28 16 65 -5 24 -13 52 -20 71 -18 29 3 33 7 35 33 1 17 5 51
9 77 8 61 -5 67 -81 39 -73 -28 -95 -18 -95 42 0 42 -13 67 -34 67 -6 -1 -25
-7 -42 -14z"/>
<path d="M25820 6440 l0 -111 128 3 127 3 3 108 3 107 -131 0 -130 0 0 -110z"/>
<path d="M26220 6440 l0 -110 105 0 105 0 0 110 0 110 -105 0 -105 0 0 -110z"/>
<path d="M26572 6443 l3 -108 108 -3 107 -3 0 111 0 110 -110 0 -111 0 3 -107z"/>
<path d="M26930 6440 l0 -111 108 3 107 3 3 108 3 107 -111 0 -110 0 0 -110z"/>
<path d="M27290 6440 l0 -110 105 0 105 0 0 110 0 110 -105 0 -105 0 0 -110z"/>
<path d="M27642 6443 l3 -108 108 -3 107 -3 0 111 0 110 -110 0 -111 0 3 -107z"/>
<path d="M28000 6440 l0 -110 120 0 120 0 0 110 0 110 -120 0 -120 0 0 -110z"/>
<path d="M28380 6440 l0 -110 125 0 125 0 0 110 0 110 -125 0 -125 0 0 -110z"/>
<path d="M28770 6440 l0 -111 108 3 107 3 3 108 3 107 -111 0 -110 0 0 -110z"/>
<path d="M29130 6440 l0 -110 105 0 105 0 0 110 0 110 -105 0 -105 0 0 -110z"/>
<path d="M29482 6443 l3 -108 108 -3 107 -3 0 111 0 110 -110 0 -111 0 3 -107z"/>
<path d="M29840 6440 l0 -110 110 0 110 0 0 110 0 110 -110 0 -110 0 0 -110z"/>
<path d="M30200 6440 l0 -111 108 3 107 3 3 108 3 107 -111 0 -110 0 0 -110z"/>
<path d="M30560 6440 l0 -110 120 0 120 0 0 110 0 110 -120 0 -120 0 0 -110z"/>
<path d="M25820 6080 l0 -110 130 0 130 0 0 110 0 110 -130 0 -130 0 0 -110z"/>
<path d="M26220 6080 l0 -110 105 0 105 0 0 110 0 110 -105 0 -105 0 0 -110z"/>
<path d="M26570 6080 l0 -110 110 0 110 0 0 110 0 110 -110 0 -110 0 0 -110z"/>
<path d="M26930 6080 l0 -110 110 0 110 0 0 110 0 110 -110 0 -110 0 0 -110z"/>
<path d="M27290 6080 l0 -110 105 0 105 0 0 110 0 110 -105 0 -105 0 0 -110z"/>
<path d="M27640 6080 l0 -110 110 0 110 0 0 110 0 110 -110 0 -110 0 0 -110z"/>
<path d="M28000 6080 l0 -110 120 0 120 0 0 110 0 110 -120 0 -120 0 0 -110z"/>
<path d="M28380 6080 l0 -110 125 0 125 0 0 110 0 110 -125 0 -125 0 0 -110z"/>
<path d="M28770 6080 l0 -110 110 0 110 0 0 110 0 110 -110 0 -110 0 0 -110z"/>
<path d="M29130 6080 l0 -110 105 0 105 0 0 110 0 110 -105 0 -105 0 0 -110z"/>
<path d="M29480 6080 l0 -110 110 0 110 0 0 110 0 110 -110 0 -110 0 0 -110z"/>
<path d="M29840 6080 l0 -110 110 0 110 0 0 110 0 110 -110 0 -110 0 0 -110z"/>
<path d="M30200 6080 l0 -110 110 0 110 0 0 110 0 110 -110 0 -110 0 0 -110z"/>
<path d="M30560 6080 l0 -110 120 0 120 0 0 110 0 110 -120 0 -120 0 0 -110z"/>
<path d="M31313 6156 c-15 -13 -43 -31 -60 -40 -37 -18 -44 -57 -19 -92 14
-18 16 -18 53 19 59 57 105 45 107 -27 1 -19 7 -40 13 -48 7 -7 16 -26 22 -41
12 -30 28 -34 56 -13 15 11 19 27 19 85 1 53 -2 71 -12 71 -12 0 -47 33 -96
91 -21 25 -49 24 -83 -5z"/>
<path d="M25820 5720 l0 -110 130 0 131 0 -3 108 -3 107 -127 3 -128 3 0 -111z"/>
<path d="M26220 5720 l0 -110 105 0 105 0 0 110 0 110 -105 0 -105 0 0 -110z"/>
<path d="M26577 5823 c-4 -3 -7 -53 -7 -110 l0 -103 110 0 110 0 0 110 0 110
-103 0 c-57 0 -107 -3 -110 -7z"/>
<path d="M26930 5720 l0 -110 110 0 111 0 -3 108 -3 107 -107 3 -108 3 0 -111z"/>
<path d="M27290 5720 l0 -110 105 0 105 0 0 110 0 110 -105 0 -105 0 0 -110z"/>
<path d="M27647 5823 c-4 -3 -7 -53 -7 -110 l0 -103 110 0 110 0 0 110 0 110
-103 0 c-57 0 -107 -3 -110 -7z"/>
<path d="M28000 5720 l0 -110 120 0 120 0 0 110 0 110 -120 0 -120 0 0 -110z"/>
<path d="M28380 5720 l0 -110 125 0 125 0 0 110 0 110 -125 0 -125 0 0 -110z"/>
<path d="M28770 5720 l0 -110 110 0 111 0 -3 108 -3 107 -107 3 -108 3 0 -111z"/>
<path d="M29130 5720 l0 -110 105 0 105 0 0 110 0 110 -105 0 -105 0 0 -110z"/>
<path d="M29487 5823 c-4 -3 -7 -53 -7 -110 l0 -103 110 0 110 0 0 110 0 110
-103 0 c-57 0 -107 -3 -110 -7z"/>
<path d="M29840 5720 l0 -110 110 0 110 0 0 110 0 110 -110 0 -110 0 0 -110z"/>
<path d="M30200 5720 l0 -110 110 0 111 0 -3 108 -3 107 -107 3 -108 3 0 -111z"/>
<path d="M30560 5720 l0 -110 120 0 120 0 0 110 0 110 -120 0 -120 0 0 -110z"/>
<path d="M31242 5514 c-35 -24 -26 -58 18 -64 l35 -5 0 -69 c1 -55 4 -71 20
-82 27 -20 40 -12 38 23 -3 36 10 50 52 55 37 4 40 28 6 45 -14 6 -32 29 -40
50 -9 21 -20 44 -24 51 -12 17 -78 15 -105 -4z"/>
<path d="M25820 5340 l0 -131 128 3 127 3 0 125 0 125 -127 3 -128 3 0 -131z"/>
<path d="M26220 5340 l0 -130 105 0 105 0 0 130 0 130 -105 0 -105 0 0 -130z"/>
<path d="M26574 5457 c-2 -7 -3 -65 -2 -128 l3 -114 105 0 105 0 0 125 0 125
-103 3 c-79 2 -104 0 -108 -11z"/>
<path d="M26934 5457 c-2 -7 -3 -65 -2 -128 l3 -114 105 0 105 0 0 125 0 125
-103 3 c-79 2 -104 0 -108 -11z"/>
<path d="M27290 5340 l0 -130 105 0 105 0 0 130 0 130 -105 0 -105 0 0 -130z"/>
<path d="M27644 5457 c-2 -7 -3 -65 -2 -128 l3 -114 108 -3 107 -3 0 131 0
130 -105 0 c-78 0 -107 -3 -111 -13z"/>
<path d="M28004 5457 c-2 -7 -3 -65 -2 -128 l3 -114 115 0 115 0 0 125 0 125
-113 3 c-87 2 -114 0 -118 -11z"/>
<path d="M28380 5340 l0 -130 125 0 125 0 0 130 0 130 -125 0 -125 0 0 -130z"/>
<path d="M28774 5457 c-2 -7 -3 -65 -2 -128 l3 -114 105 0 105 0 0 125 0 125
-103 3 c-79 2 -104 0 -108 -11z"/>
<path d="M29130 5340 l0 -130 105 0 105 0 0 130 0 130 -105 0 -105 0 0 -130z"/>
<path d="M29484 5457 c-2 -7 -3 -65 -2 -128 l3 -114 108 -3 107 -3 0 131 0
130 -105 0 c-78 0 -107 -3 -111 -13z"/>
<path d="M29844 5457 c-2 -7 -3 -65 -2 -128 l3 -114 105 0 105 0 0 125 0 125
-103 3 c-79 2 -104 0 -108 -11z"/>
<path d="M30200 5340 l0 -131 108 3 107 3 0 125 0 125 -107 3 -108 3 0 -131z"/>
<path d="M30560 5340 l0 -131 118 3 117 3 0 125 0 125 -117 3 -118 3 0 -131z"/>
<path d="M31254 5076 c-39 -17 -64 -52 -64 -89 0 -22 7 -31 33 -42 19 -8 41
-24 49 -37 13 -20 18 -21 42 -10 25 11 28 9 54 -28 33 -48 47 -51 37 -7 -5 17
-9 67 -10 110 -1 55 -6 82 -17 93 -21 22 -87 27 -124 10z"/>
<path d="M25262 5041 c-89 -30 -118 -50 -109 -75 4 -11 19 -16 48 -16 25 0 52
-8 70 -21 16 -11 44 -23 62 -26 28 -4 35 -1 45 21 6 15 15 44 18 65 5 31 2 43
-15 60 -25 25 -17 26 -119 -8z"/>
<path d="M25820 4955 l0 -115 130 0 130 0 0 115 0 115 -130 0 -130 0 0 -115z"/>
<path d="M26220 4955 l0 -115 105 0 105 0 0 115 0 115 -105 0 -105 0 0 -115z"/>
<path d="M26570 4955 l0 -115 110 0 110 0 0 115 0 115 -110 0 -110 0 0 -115z"/>
<path d="M26930 4955 l0 -115 110 0 110 0 0 115 0 115 -110 0 -110 0 0 -115z"/>
<path d="M27290 4955 l0 -115 105 0 105 0 0 115 0 115 -105 0 -105 0 0 -115z"/>
<path d="M27640 4955 l0 -115 110 0 110 0 0 115 0 115 -110 0 -110 0 0 -115z"/>
<path d="M28000 4955 l0 -115 120 0 120 0 0 115 0 115 -120 0 -120 0 0 -115z"/>
<path d="M28380 4955 l0 -115 125 0 125 0 0 115 0 115 -125 0 -125 0 0 -115z"/>
<path d="M28770 4955 l0 -115 110 0 110 0 0 115 0 115 -110 0 -110 0 0 -115z"/>
<path d="M29130 4955 l0 -115 105 0 105 0 0 115 0 115 -105 0 -105 0 0 -115z"/>
<path d="M29480 4955 l0 -115 110 0 110 0 0 115 0 115 -110 0 -110 0 0 -115z"/>
<path d="M29840 4955 l0 -115 110 0 110 0 0 115 0 115 -110 0 -110 0 0 -115z"/>
<path d="M30200 4955 l0 -115 110 0 110 0 0 115 0 115 -110 0 -110 0 0 -115z"/>
<path d="M30560 4955 l0 -115 120 0 120 0 0 115 0 115 -120 0 -120 0 0 -115z"/>
<path d="M25820 4570 l0 -130 66 0 c56 0 71 4 96 25 19 16 42 25 64 25 l35 0
-3 103 -3 102 -127 3 -128 3 0 -131z"/>
<path d="M26220 4595 l0 -105 105 0 105 0 0 105 0 105 -105 0 -105 0 0 -105z"/>
<path d="M26577 4693 c-4 -3 -7 -51 -7 -105 l0 -98 110 0 110 0 0 105 0 105
-103 0 c-57 0 -107 -3 -110 -7z"/>
<path d="M26930 4595 l0 -105 110 0 111 0 -3 103 -3 102 -107 3 -108 3 0 -106z"/>
<path d="M27290 4595 l0 -105 105 0 105 0 0 105 0 105 -105 0 -105 0 0 -105z"/>
<path d="M27647 4693 c-4 -3 -7 -51 -7 -105 l0 -98 110 0 110 0 0 105 0 105
-103 0 c-57 0 -107 -3 -110 -7z"/>
<path d="M28000 4595 l0 -105 120 0 120 0 0 105 0 105 -120 0 -120 0 0 -105z"/>
<path d="M28380 4595 l0 -105 125 0 125 0 0 105 0 105 -125 0 -125 0 0 -105z"/>
<path d="M28770 4595 l0 -105 110 0 111 0 -3 103 -3 102 -107 3 -108 3 0 -106z"/>
<path d="M29130 4595 l0 -105 105 0 105 0 0 105 0 105 -105 0 -105 0 0 -105z"/>
<path d="M29487 4693 c-4 -3 -7 -51 -7 -105 l0 -98 110 0 110 0 0 105 0 105
-103 0 c-57 0 -107 -3 -110 -7z"/>
<path d="M29840 4595 l0 -105 110 0 110 0 0 105 0 105 -110 0 -110 0 0 -105z"/>
<path d="M30200 4595 l0 -105 110 0 111 0 -3 103 -3 102 -107 3 -108 3 0 -106z"/>
<path d="M30560 4595 l0 -105 29 0 c17 0 42 -11 59 -25 25 -21 40 -25 91 -25
l61 0 0 130 0 130 -120 0 -120 0 0 -105z"/>
<path d="M25820 4225 l0 -166 148 3 147 3 3 100 c2 82 0 102 -13 111 -9 7 -20
25 -24 41 -6 24 -14 29 -51 34 -23 3 -48 13 -55 22 -9 13 -29 17 -84 17 l-71
0 0 -165z"/>
<path d="M30652 4370 c-9 -14 -23 -20 -51 -20 -36 0 -40 -3 -46 -30 -4 -17
-15 -36 -26 -43 -17 -10 -19 -24 -19 -115 l0 -103 143 3 142 3 3 163 2 162
-67 0 c-57 0 -70 -3 -81 -20z"/>
<path d="M26215 4320 c-4 -17 -15 -36 -26 -43 -17 -10 -19 -24 -19 -114 l0
-103 130 0 130 0 0 145 0 145 -104 0 -104 0 -7 -30z"/>
<path d="M26575 4337 c-3 -7 -4 -71 -3 -143 l3 -129 105 0 105 0 0 140 0 140
-103 3 c-78 2 -104 0 -107 -11z"/>
<path d="M26934 4337 c-2 -7 -3 -71 -2 -143 l3 -129 128 -3 127 -3 0 121 c0
75 -4 120 -10 120 -6 0 -16 11 -22 25 -11 24 -14 25 -115 25 -76 0 -105 -3
-109 -13z"/>
<path d="M27268 4318 c-27 -29 -28 -34 -28 -144 l0 -114 83 0 c76 0 86 2 107
25 13 14 34 25 47 25 23 0 23 1 23 120 l0 120 -102 0 c-102 -1 -103 -1 -130
-32z"/>
<path d="M27647 4343 c-4 -3 -7 -57 -7 -120 l0 -113 110 0 110 0 0 120 0 120
-103 0 c-57 0 -107 -3 -110 -7z"/>
<path d="M28007 4344 c-4 -4 -7 -58 -7 -121 l0 -113 120 0 121 0 -3 118 -3
117 -111 3 c-60 1 -113 -1 -117 -4z"/>
<path d="M28380 4230 l0 -120 125 0 125 0 0 120 0 120 -125 0 -125 0 0 -120z"/>
<path d="M28777 4344 c-4 -4 -7 -58 -7 -121 l0 -113 110 0 111 0 -3 118 -3
117 -101 3 c-55 1 -103 0 -107 -4z"/>
<path d="M29130 4230 c0 -102 2 -120 15 -120 9 0 27 -11 41 -25 24 -24 31 -26
112 -23 l87 3 3 111 c3 111 3 111 -27 143 -29 31 -30 31 -130 31 l-101 0 0
-120z"/>
<path d="M29467 4319 c-26 -30 -27 -35 -27 -145 l0 -114 130 0 130 0 0 145 0
145 -103 0 c-102 0 -103 0 -130 -31z"/>
<path d="M29845 4337 c-3 -7 -4 -71 -3 -143 l3 -129 105 0 105 0 0 140 0 140
-103 3 c-78 2 -104 0 -107 -11z"/>
<path d="M30200 4205 l0 -145 130 0 130 0 0 104 c0 82 -3 105 -15 109 -8 4
-18 21 -23 39 l-8 33 -107 3 -107 3 0 -146z"/>
<path d="M29187 3996 c-12 -18 -28 -26 -60 -28 l-42 -3 -3 -143 -3 -143 153 3
153 3 0 165 0 165 -90 2 c-85 3 -91 2 -108 -21z"/>
<path d="M25820 3845 l0 -166 148 3 147 3 3 163 2 162 -150 0 -150 0 0 -165z"/>
<path d="M26170 3845 l0 -166 153 3 152 3 3 129 c2 110 0 131 -13 139 -9 5
-20 20 -25 33 -9 24 -11 24 -140 24 l-130 0 0 -165z"/>
<path d="M26570 3997 c0 -8 -11 -24 -25 -37 -25 -24 -26 -27 -23 -150 l3 -125
153 -3 152 -3 0 102 c0 86 -3 105 -20 126 -12 16 -20 41 -20 64 l0 39 -110 0
c-85 0 -110 -3 -110 -13z"/>
<path d="M26930 3970 c0 -30 -7 -47 -25 -66 -24 -24 -26 -30 -23 -122 l3 -97
153 -3 152 -3 0 166 0 165 -130 0 -130 0 0 -40z"/>
<path d="M27240 3845 l0 -166 153 3 152 3 0 140 0 140 -54 5 c-34 4 -58 12
-66 23 -10 14 -29 17 -99 17 l-86 0 0 -165z"/>
<path d="M29440 3845 l0 -166 153 3 152 3 3 97 c3 92 1 98 -23 122 -18 19 -25
36 -25 66 l0 40 -130 0 -130 0 0 -165z"/>
<path d="M29840 3967 c0 -34 -6 -49 -25 -67 -24 -23 -26 -29 -23 -120 l3 -95
153 -3 152 -3 0 134 c0 121 -2 136 -20 152 -11 10 -20 24 -20 32 0 10 -25 13
-110 13 l-110 0 0 -43z"/>
<path d="M30200 4000 c0 -6 -11 -22 -25 -36 -25 -25 -26 -28 -23 -152 l3 -127
153 -3 152 -3 0 166 0 165 -130 0 c-84 0 -130 -4 -130 -10z"/>
<path d="M30510 3845 l0 -166 143 3 142 3 3 163 2 162 -145 0 -145 0 0 -165z"/>
<path d="M27600 3825 l0 -145 83 0 c76 0 86 2 107 25 13 14 34 25 47 25 23 0
23 1 23 120 l0 120 -130 0 -130 0 0 -145z"/>
<path d="M28002 3853 l3 -118 115 0 115 0 3 118 3 117 -121 0 -121 0 3 -117z"/>
<path d="M28380 3850 l0 -120 125 0 125 0 0 120 0 120 -125 0 -125 0 0 -120z"/>
<path d="M28770 3854 l0 -115 30 -11 c17 -5 35 -19 41 -29 8 -16 22 -19 99
-19 l90 0 0 145 0 145 -130 0 -130 0 0 -116z"/>
<path d="M25820 3475 l0 -165 150 0 150 0 -2 163 -3 162 -147 3 -148 3 0 -166z"/>
<path d="M26170 3475 l0 -165 155 0 155 0 -2 163 -3 162 -152 3 -153 3 0 -166z"/>
<path d="M26527 3633 c-4 -3 -7 -78 -7 -165 l0 -158 155 0 155 0 0 165 0 165
-148 0 c-82 0 -152 -3 -155 -7z"/>
<path d="M26887 3633 c-4 -3 -7 -78 -7 -165 l0 -158 155 0 155 0 0 165 0 165
-148 0 c-82 0 -152 -3 -155 -7z"/>
<path d="M27240 3475 l0 -165 155 0 155 0 -2 163 -3 162 -152 3 -153 3 0 -166z"/>
<path d="M27600 3475 l0 -165 86 0 c71 0 90 4 111 20 14 11 34 20 44 20 18 0
19 10 19 119 l0 119 -30 7 c-17 4 -36 15 -43 26 -10 16 -24 19 -99 19 l-88 0
0 -165z"/>
<path d="M28827 3615 c-15 -14 -35 -25 -43 -25 -11 0 -14 -22 -14 -120 0 -95
3 -120 14 -120 7 0 25 -9 39 -20 21 -17 40 -20 116 -20 l91 0 0 165 0 165 -87
0 c-79 -1 -91 -3 -116 -25z"/>
<path d="M29080 3475 l0 -165 155 0 155 0 -2 163 -3 162 -152 3 -153 3 0 -166z"/>
<path d="M29440 3475 l0 -165 155 0 155 0 -2 163 -3 162 -152 3 -153 3 0 -166z"/>
<path d="M29797 3633 c-4 -3 -7 -78 -7 -165 l0 -158 155 0 155 0 0 165 0 165
-148 0 c-82 0 -152 -3 -155 -7z"/>
<path d="M30157 3633 c-4 -3 -7 -78 -7 -165 l0 -158 155 0 155 0 0 165 0 165
-148 0 c-82 0 -152 -3 -155 -7z"/>
<path d="M30510 3475 l0 -165 145 0 145 0 -2 163 -3 162 -142 3 -143 3 0 -166z"/>
<path d="M28000 3470 l0 -120 120 0 120 0 0 120 0 120 -120 0 -120 0 0 -120z"/>
<path d="M28380 3470 l0 -120 125 0 125 0 0 120 0 120 -125 0 -125 0 0 -120z"/>
<path d="M25820 3130 l0 -131 148 3 147 3 3 128 3 127 -151 0 -150 0 0 -130z"/>
<path d="M26170 3130 l0 -131 153 3 152 3 0 125 0 125 -152 3 -153 3 0 -131z"/>
<path d="M26524 3247 c-2 -7 -3 -65 -2 -128 l3 -114 153 -3 152 -3 0 131 0
130 -150 0 c-115 0 -152 -3 -156 -13z"/>
<path d="M26882 3133 l3 -128 153 -3 152 -3 0 131 0 130 -155 0 -156 0 3 -127z"/>
<path d="M27240 3130 l0 -131 153 3 152 3 3 128 3 127 -156 0 -155 0 0 -130z"/>
<path d="M27600 3130 l0 -130 130 0 130 0 0 105 c0 104 0 105 -24 105 -14 0
-33 11 -44 25 -18 23 -26 25 -106 25 l-86 0 0 -130z"/>
<path d="M28841 3241 c-6 -10 -24 -24 -41 -30 l-31 -10 3 -98 3 -98 128 -3
127 -3 0 131 0 130 -90 0 c-77 0 -91 -3 -99 -19z"/>
<path d="M29080 3130 l0 -131 153 3 152 3 3 128 3 127 -156 0 -155 0 0 -130z"/>
<path d="M29440 3130 l0 -131 153 3 152 3 0 125 0 125 -152 3 -153 3 0 -131z"/>
<path d="M29794 3247 c-2 -7 -3 -65 -2 -128 l3 -114 153 -3 152 -3 0 131 0
130 -150 0 c-115 0 -152 -3 -156 -13z"/>
<path d="M30152 3133 l3 -128 153 -3 152 -3 0 131 0 130 -155 0 -156 0 3 -127z"/>
<path d="M30510 3130 l0 -131 143 3 142 3 3 128 3 127 -146 0 -145 0 0 -130z"/>
<path d="M28004 3197 c-2 -7 -4 -54 -2 -103 l3 -89 115 0 115 0 0 100 0 100
-113 3 c-88 2 -114 0 -118 -11z"/>
<path d="M28380 3105 l0 -105 125 0 125 0 0 105 0 105 -125 0 -125 0 0 -105z"/>
<path d="M3500 6900 l0 -752 348 4 c339 4 349 5 447 31 55 15 150 52 211 82
192 93 319 234 381 420 25 73 27 93 28 245 0 146 -3 172 -23 230 -81 234 -264
379 -582 461 -78 21 -114 23 -447 26 l-363 5 0 -752z"/>
<path d="M3500 4370 l0 -942 393 5 c419 5 468 10 651 67 336 105 580 341 659
635 43 162 46 367 7 519 -82 320 -350 536 -779 628 -86 19 -140 21 -513 25
l-418 5 0 -942z"/>
</g>
</svg>
