<?xml version="1.0" encoding="UTF-8"?>
<!DOCTYPE svg PUBLIC "-//W3C//DTD SVG 1.1//EN" "http://www.w3.org/Graphics/SVG/1.1/DTD/svg11.dtd">
<svg xmlns="http://www.w3.org/2000/svg" version="1.1" width="3333px" height="980px" style="shape-rendering:geometricPrecision; text-rendering:geometricPrecision; image-rendering:optimizeQuality; fill-rule:evenodd; clip-rule:evenodd" xmlns:xlink="http://www.w3.org/1999/xlink">
<g><path style="opacity:1" fill="#181818" d="M -0.5,-0.5 C 1110.5,-0.5 2221.5,-0.5 3332.5,-0.5C 3332.5,312.5 3332.5,625.5 3332.5,938.5C 2221.5,938.5 1110.5,938.5 -0.5,938.5C -0.5,625.5 -0.5,312.5 -0.5,-0.5 Z"/></g>
<g><path style="opacity:0.998" fill="#c8c8c8" d="M 2899.5,60.5 C 2902.19,60.3359 2904.85,60.5026 2907.5,61C 2909.71,62.7206 2911.71,64.7206 2913.5,67C 2919.1,68.1237 2924.77,68.7904 2930.5,69C 2935.17,69.0349 2937.67,71.2015 2938,75.5C 2935.31,77.1817 2932.48,78.6817 2929.5,80C 2928.25,81.4936 2928.25,82.9936 2929.5,84.5C 2931.83,85.6667 2934.17,86.8333 2936.5,88C 2937.77,89.7959 2937.77,91.6293 2936.5,93.5C 2933.39,95.475 2930.56,97.8084 2928,100.5C 2927.26,102.441 2927.42,104.274 2928.5,106C 2931.92,106.893 2935.08,106.393 2938,104.5C 2939.6,110.814 2942.6,111.814 2947,107.5C 2948.6,101.524 2952.1,100.024 2957.5,103C 2958.5,103.5 2959.5,104 2960.5,104.5C 2961.33,109.467 2961.83,114.467 2962,119.5C 2962.9,121.368 2964.4,122.368 2966.5,122.5C 2976.41,117.403 2985.25,118.737 2993,126.5C 2993.67,127.167 2993.67,127.833 2993,128.5C 2991.59,129.787 2990.09,130.954 2988.5,132C 2991.03,134.527 2993.53,137.027 2996,139.5C 2996.15,144.684 2993.48,147.35 2988,147.5C 2980.31,145.658 2972.81,143.325 2965.5,140.5C 2967.08,144.011 2967.58,147.678 2967,151.5C 2966.17,152.333 2965.33,153.167 2964.5,154C 2960.08,154.208 2955.75,154.874 2951.5,156C 2948.73,158.966 2949.07,161.633 2952.5,164C 2957.66,166.129 2963,166.796 2968.5,166C 2970.83,163 2973.17,160 2975.5,157C 2980.33,156.116 2984.99,156.616 2989.5,158.5C 2991.63,160.395 2991.97,162.562 2990.5,165C 2990.76,166.261 2991.43,167.261 2992.5,168C 2997.52,168.118 3002.19,169.451 3006.5,172C 3009.04,174.222 3009.04,176.389 3006.5,178.5C 3002.96,179.506 2999.96,181.34 2997.5,184C 3002.66,185.283 3007.99,185.95 3013.5,186C 3019.76,188.091 3023.76,192.258 3025.5,198.5C 3025.39,199.442 3025.06,200.275 3024.5,201C 3057.83,201.5 3091.17,201.667 3124.5,201.5C 3124.17,247.838 3124.5,294.171 3125.5,340.5C 3128.32,342.817 3130.98,345.317 3133.5,348C 3137.09,348.366 3140.59,347.866 3144,346.5C 3146.99,347.245 3149.83,348.412 3152.5,350C 3156.22,350.238 3159.89,350.738 3163.5,351.5C 3164.99,355.241 3164.32,358.574 3161.5,361.5C 3162.17,363.517 3163.34,365.183 3165,366.5C 3165.67,367.833 3165.67,369.167 3165,370.5C 3161.61,372.39 3158.11,374.057 3154.5,375.5C 3155.91,376.806 3157.58,377.64 3159.5,378C 3164.71,378.759 3169.87,378.592 3175,377.5C 3176.26,377.759 3177.26,378.426 3178,379.5C 3178,383.5 3178,387.5 3178,391.5C 3179.83,393.074 3181.99,393.907 3184.5,394C 3186.15,395.47 3187.15,397.303 3187.5,399.5C 3185.78,402.202 3183.78,404.702 3181.5,407C 3182.25,410.086 3184.09,412.252 3187,413.5C 3190.83,417.817 3190.33,421.317 3185.5,424C 3174.8,426.632 3169.3,422.466 3169,411.5C 3164.35,409.874 3160.01,410.541 3156,413.5C 3154.8,417.793 3155.97,421.293 3159.5,424C 3163.5,425.333 3167.5,426.667 3171.5,428C 3174.76,430.022 3176.26,432.855 3176,436.5C 3172.69,437.992 3169.69,439.992 3167,442.5C 3166.33,443.5 3166.33,444.5 3167,445.5C 3173.41,447.202 3179.91,448.702 3186.5,450C 3188.92,453.776 3190.08,457.943 3190,462.5C 3193.15,464.736 3196.65,466.236 3200.5,467C 3204.03,471.574 3205.03,476.574 3203.5,482C 3197.73,484.424 3191.73,485.924 3185.5,486.5C 3180.58,486.569 3176.42,484.903 3173,481.5C 3172.51,479.866 3172.34,478.199 3172.5,476.5C 3174.56,476.313 3176.56,475.813 3178.5,475C 3179.79,470.25 3177.79,467.584 3172.5,467C 3169,466.5 3165.5,466 3162,465.5C 3160.27,465.454 3158.77,465.954 3157.5,467C 3160.33,470.5 3163.17,474 3166,477.5C 3167.33,483.167 3165.16,485.667 3159.5,485C 3155.82,482.315 3152.82,478.982 3150.5,475C 3148.89,474.28 3147.39,474.446 3146,475.5C 3144.94,486.202 3149.77,491.035 3160.5,490C 3162.33,491.113 3163.16,492.613 3163,494.5C 3160.52,495.875 3159.69,497.709 3160.5,500C 3164.6,499.602 3167.94,497.602 3170.5,494C 3176.71,489.761 3180.87,491.261 3183,498.5C 3183.9,499.701 3185.07,500.535 3186.5,501C 3191.4,499.932 3196.4,499.599 3201.5,500C 3203.32,501.466 3203.82,503.299 3203,505.5C 3199.92,509.655 3195.75,511.822 3190.5,512C 3189.07,512.465 3187.9,513.299 3187,514.5C 3185.67,519.833 3184.33,525.167 3183,530.5C 3181.14,533.207 3178.64,534.041 3175.5,533C 3173.51,530.334 3170.84,528.667 3167.5,528C 3165.95,526.786 3164.78,525.286 3164,523.5C 3163.9,520.3 3163.23,517.3 3162,514.5C 3160.94,516.219 3160.11,518.053 3159.5,520C 3145.03,524.037 3145.03,528.704 3159.5,534C 3166.08,539.323 3169.25,546.156 3169,554.5C 3166.24,556.88 3163.08,558.714 3159.5,560C 3156.27,563.66 3153.77,567.827 3152,572.5C 3148.05,574.828 3143.88,575.162 3139.5,573.5C 3134.61,575.13 3129.61,576.13 3124.5,576.5C 3124.5,648.167 3124.5,719.833 3124.5,791.5C 2927.83,791.5 2731.17,791.5 2534.5,791.5C 2534.83,720.83 2534.5,650.164 2533.5,579.5C 2530.98,576.742 2527.98,574.742 2524.5,573.5C 2520.72,576.109 2517.05,578.943 2513.5,582C 2504.24,583.071 2500.57,579.071 2502.5,570C 2501.46,566.623 2499.96,563.456 2498,560.5C 2497.83,557.182 2497.99,553.849 2498.5,550.5C 2498.2,541.89 2494.53,540.224 2487.5,545.5C 2483.09,542.581 2479.93,538.581 2478,533.5C 2472.9,532.043 2469.4,528.877 2467.5,524C 2470.98,521.171 2474.32,518.171 2477.5,515C 2474.59,511.947 2471.75,508.781 2469,505.5C 2465.35,496.796 2468.35,492.796 2478,493.5C 2480.3,493.494 2482.47,493.994 2484.5,495C 2488.08,499.491 2491.41,504.157 2494.5,509C 2497.93,509.459 2500.93,508.459 2503.5,506C 2506.35,505.056 2508.85,505.556 2511,507.5C 2512.73,514.205 2510.9,519.705 2505.5,524C 2508.97,525.71 2512.31,527.71 2515.5,530C 2521.09,531.594 2524.09,529.428 2524.5,523.5C 2528.07,522.888 2530.74,521.055 2532.5,518C 2531.83,517.333 2531.17,516.667 2530.5,516C 2521.16,517.297 2517.33,513.464 2519,504.5C 2519.35,502.152 2520.51,500.319 2522.5,499C 2525.22,498.218 2527.55,496.884 2529.5,495C 2528.56,493.523 2527.22,492.523 2525.5,492C 2521.17,491.333 2516.83,491.333 2512.5,492C 2510.51,494.293 2508.51,496.626 2506.5,499C 2504.5,499.667 2502.5,499.667 2500.5,499C 2496.96,495.946 2493.62,492.613 2490.5,489C 2482.69,488.22 2481.52,485.054 2487,479.5C 2487.67,477.167 2487.67,474.833 2487,472.5C 2481.95,470.629 2476.78,469.129 2471.5,468C 2471,460.175 2467.17,454.675 2460,451.5C 2457.96,443.234 2461.13,438.567 2469.5,437.5C 2469.34,434.482 2469.5,431.482 2470,428.5C 2472.28,426.016 2474.78,425.849 2477.5,428C 2477.29,433.63 2479.96,437.13 2485.5,438.5C 2485.83,439.5 2486.17,440.5 2486.5,441.5C 2483.38,447.433 2485.38,450.433 2492.5,450.5C 2492.17,445.674 2493.17,441.174 2495.5,437C 2497.5,436.333 2499.5,436.333 2501.5,437C 2504.26,440.427 2507.59,443.093 2511.5,445C 2517.55,445.683 2523.38,447.183 2529,449.5C 2530.82,449.057 2532.66,448.723 2534.5,448.5C 2534.5,444.833 2534.5,441.167 2534.5,437.5C 2533.13,437.343 2531.79,437.51 2530.5,438C 2523.26,447.104 2517.76,446.27 2514,435.5C 2509.99,430.658 2504.82,427.991 2498.5,427.5C 2497.47,425.56 2497.47,423.56 2498.5,421.5C 2498.42,419.67 2497.59,418.337 2496,417.5C 2493.53,419.642 2491.36,422.142 2489.5,425C 2488.83,425.167 2488.17,425.333 2487.5,425.5C 2484.13,424.299 2481.13,422.466 2478.5,420C 2473.99,419.5 2469.49,419.667 2465,420.5C 2457.31,420.753 2455.65,417.753 2460,411.5C 2467.41,406.253 2473.91,400.253 2479.5,393.5C 2477.4,390.632 2475.9,387.632 2475,384.5C 2481.13,381.44 2486.8,382.107 2492,386.5C 2493.49,388.11 2493.66,389.776 2492.5,391.5C 2493.13,393.258 2494.13,394.758 2495.5,396C 2499.19,397.563 2502.86,399.063 2506.5,400.5C 2505.07,403.33 2504.73,406.164 2505.5,409C 2509.39,410.64 2513.39,411.973 2517.5,413C 2519.61,414.141 2521.44,415.641 2523,417.5C 2523.65,419.235 2523.48,420.902 2522.5,422.5C 2524.42,424.071 2525.42,426.071 2525.5,428.5C 2533.75,425.656 2536.42,419.989 2533.5,411.5C 2531.05,411.02 2528.88,410.02 2527,408.5C 2520.7,411.345 2515.87,409.678 2512.5,403.5C 2514.13,402.01 2515.79,400.51 2517.5,399C 2508.48,399.617 2506.48,396.283 2511.5,389C 2509.8,386.018 2507.14,384.684 2503.5,385C 2500.1,383.29 2498.6,380.457 2499,376.5C 2491.82,372.318 2490.98,367.151 2496.5,361C 2494.19,358.182 2494.19,355.516 2496.5,353C 2501.17,352.667 2505.83,352.333 2510.5,352C 2513.75,348.706 2517.08,345.54 2520.5,342.5C 2526.89,347.446 2531.39,346.113 2534,338.5C 2534.5,292.835 2534.67,247.168 2534.5,201.5C 2567.5,201.5 2600.5,201.5 2633.5,201.5C 2633.07,195.523 2635.4,191.023 2640.5,188C 2644.39,187.261 2648.05,185.927 2651.5,184C 2652.34,182.989 2652.67,181.822 2652.5,180.5C 2640.77,178.542 2637.77,172.375 2643.5,162C 2648.71,161.922 2653.71,163.088 2658.5,165.5C 2660.72,161.119 2662.72,156.619 2664.5,152C 2670.9,147.278 2677.07,147.445 2683,152.5C 2684.55,145.403 2687.21,138.736 2691,132.5C 2691.75,131.874 2692.58,131.374 2693.5,131C 2696.7,131.086 2699.7,132.086 2702.5,134C 2708.16,135.042 2711.82,132.708 2713.5,127C 2714.87,126.125 2716.37,125.625 2718,125.5C 2722.54,127.044 2726.88,129.044 2731,131.5C 2733.72,130.792 2734.72,129.125 2734,126.5C 2728.42,119.917 2722.42,113.584 2716,107.5C 2713.85,104.784 2714.02,102.284 2716.5,100C 2723.18,95.735 2730.18,94.9017 2737.5,97.5C 2741.23,104.141 2746.9,106.641 2754.5,105C 2755.3,100.586 2755.8,96.0855 2756,91.5C 2757.31,88.6936 2759.47,87.8603 2762.5,89C 2764.72,91.965 2767.06,94.7984 2769.5,97.5C 2770.09,97.2907 2770.59,96.9574 2771,96.5C 2771.58,85.8167 2777.08,81.15 2787.5,82.5C 2789.17,83.9921 2790.17,85.8255 2790.5,88C 2789.39,92.5579 2787.72,96.8912 2785.5,101C 2786.05,101.925 2786.71,102.758 2787.5,103.5C 2792.53,104.863 2797.53,106.363 2802.5,108C 2804.05,110.655 2805.22,113.488 2806,116.5C 2806.56,117.022 2807.23,117.355 2808,117.5C 2811.41,114.547 2814.91,111.713 2818.5,109C 2818.36,108.228 2818.02,107.561 2817.5,107C 2815.12,106.489 2812.79,105.822 2810.5,105C 2808.96,103.89 2808.3,102.39 2808.5,100.5C 2804.95,100.85 2801.61,100.184 2798.5,98.5C 2795.42,94.0562 2796.26,90.3895 2801,87.5C 2801.88,84.2105 2802.55,80.8772 2803,77.5C 2808.42,73.8751 2813.92,70.3751 2819.5,67C 2823.68,65.8345 2826.52,67.3345 2828,71.5C 2828.5,74.8168 2828.67,78.1501 2828.5,81.5C 2832.84,81.6615 2836.51,80.1615 2839.5,77C 2842.59,76.1533 2845.42,76.6533 2848,78.5C 2849.5,83.3495 2851.67,87.8495 2854.5,92C 2857.42,92.9876 2860.42,93.6543 2863.5,94C 2864.33,94.8333 2865.17,95.6667 2866,96.5C 2864.11,105.606 2867.78,110.272 2877,110.5C 2878.87,109.932 2880.7,109.265 2882.5,108.5C 2887.35,112.518 2891.69,117.018 2895.5,122C 2901.12,123.822 2906.79,125.489 2912.5,127C 2914.46,127.953 2916.12,129.287 2917.5,131C 2924.31,131.676 2929.98,129.509 2934.5,124.5C 2934.29,123.914 2933.96,123.414 2933.5,123C 2926.27,121.737 2918.94,121.07 2911.5,121C 2904.62,119.828 2900.12,115.995 2898,109.5C 2897.67,104.5 2897.33,99.5 2897,94.5C 2896.8,92.7139 2895.97,91.3805 2894.5,90.5C 2890.34,94.8257 2886.34,99.3257 2882.5,104C 2879.97,105.422 2877.3,105.755 2874.5,105C 2872.99,103.527 2872.33,101.693 2872.5,99.5C 2873.03,95.0598 2874.03,90.7264 2875.5,86.5C 2875.17,85.8333 2874.83,85.1667 2874.5,84.5C 2864.39,91.7971 2858.89,89.4637 2858,77.5C 2855.51,75.1911 2853.51,72.5244 2852,69.5C 2851.73,65.446 2853.73,63.7793 2858,64.5C 2863,65.3868 2867.83,66.8868 2872.5,69C 2876.17,69.6667 2879.83,69.6667 2883.5,69C 2888.74,65.8831 2894.07,63.0498 2899.5,60.5 Z"/></g>
<g><path style="opacity:1" fill="#1a1a1a" d="M 2828.5,105.5 C 2831.96,104.889 2834.63,106.056 2836.5,109C 2841.71,109.754 2845.05,112.587 2846.5,117.5C 2845.62,121.874 2842.96,124.374 2838.5,125C 2834.15,131.26 2834.82,136.926 2840.5,142C 2843.63,142.79 2846.63,142.457 2849.5,141C 2852.73,137.855 2855.73,134.522 2858.5,131C 2863.18,130.836 2867.85,130.836 2872.5,131C 2878.75,121.853 2883.25,122.687 2886,133.5C 2888.33,135.167 2890.67,136.833 2893,138.5C 2892.78,142.409 2890.61,144.909 2886.5,146C 2883.95,146.558 2881.95,145.725 2880.5,143.5C 2881.52,141.568 2881.69,139.568 2881,137.5C 2875.05,133.769 2869.21,134.269 2863.5,139C 2857.72,137.997 2853.89,140.163 2852,145.5C 2847.61,151.038 2842.44,151.871 2836.5,148C 2835.34,145.184 2834.17,142.35 2833,139.5C 2830.54,138.35 2828.2,137.017 2826,135.5C 2826.19,131.731 2824.69,128.898 2821.5,127C 2821.64,126.228 2821.98,125.561 2822.5,125C 2826.1,123.691 2829.6,122.191 2833,120.5C 2833.99,116.127 2832.32,113.127 2828,111.5C 2825.91,109.17 2826.08,107.17 2828.5,105.5 Z"/></g>
<g><path style="opacity:1" fill="#191919" d="M 2774.5,108.5 C 2777.14,108.954 2779.47,110.121 2781.5,112C 2788.97,111.135 2791.8,114.301 2790,121.5C 2788.74,123.594 2786.91,124.594 2784.5,124.5C 2781.27,123.554 2778.27,122.054 2775.5,120C 2772.5,119.245 2770,120.078 2768,122.5C 2766.73,126.771 2765.23,130.937 2763.5,135C 2757.53,137.871 2752.86,136.538 2749.5,131C 2750.1,129.395 2751.1,128.062 2752.5,127C 2758.57,125.442 2759.91,122.108 2756.5,117C 2764.3,117.638 2770.3,114.804 2774.5,108.5 Z"/></g>
<g><path style="opacity:1" fill="#1a1a1a" d="M 2767.5,141.5 C 2771.02,141.929 2774.02,143.429 2776.5,146C 2780.5,146.333 2784.5,146.667 2788.5,147C 2791.34,149.758 2794.67,150.758 2798.5,150C 2804.74,141.412 2809.74,142.245 2813.5,152.5C 2813.18,153.647 2812.52,154.481 2811.5,155C 2805.06,154.443 2801.56,157.276 2801,163.5C 2793.59,165.056 2787.76,162.556 2783.5,156C 2777.65,153.084 2771.82,152.918 2766,155.5C 2766.36,159.53 2766.2,163.53 2765.5,167.5C 2757.55,170.952 2750.55,169.619 2744.5,163.5C 2748.07,162.059 2751.57,160.392 2755,158.5C 2754.91,156.057 2753.58,154.39 2751,153.5C 2750.33,152.5 2750.33,151.5 2751,150.5C 2754.6,148.872 2758.44,148.038 2762.5,148C 2764.05,145.713 2765.72,143.546 2767.5,141.5 Z"/></g>
<g><path style="opacity:1" fill="#191919" d="M 2721.5,142.5 C 2728.03,143.087 2729.03,145.754 2724.5,150.5C 2725.17,151.833 2725.83,153.167 2726.5,154.5C 2720.66,156.157 2714.66,157.157 2708.5,157.5C 2708.14,159.911 2709.14,161.411 2711.5,162C 2713.9,162.711 2716.23,162.544 2718.5,161.5C 2720.61,162.034 2722.45,163.034 2724,164.5C 2724.16,168.287 2724.83,171.954 2726,175.5C 2729.03,176.617 2731.7,178.284 2734,180.5C 2735.46,190.288 2731.63,193.288 2722.5,189.5C 2721.67,188.5 2720.83,187.5 2720,186.5C 2720.19,183.111 2720.02,179.778 2719.5,176.5C 2714.4,175.748 2709.4,174.581 2704.5,173C 2702.03,170.772 2700.87,167.938 2701,164.5C 2698.17,162.506 2695.67,160.172 2693.5,157.5C 2695.41,154.539 2698.08,152.539 2701.5,151.5C 2702.23,149.807 2703.23,148.307 2704.5,147C 2708.45,147.434 2712.45,147.434 2716.5,147C 2718.07,145.322 2719.74,143.822 2721.5,142.5 Z"/></g>
<g><path style="opacity:1" fill="#191919" d="M 2904.5,144.5 C 2907.6,145.76 2909.93,147.926 2911.5,151C 2916.23,151.937 2920.9,153.104 2925.5,154.5C 2927.85,158.818 2926.52,161.818 2921.5,163.5C 2919.44,162.952 2917.78,161.786 2916.5,160C 2914.5,159.5 2912.5,159 2910.5,158.5C 2907.23,159.47 2904.23,160.97 2901.5,163C 2896.14,164.143 2893.97,161.976 2895,156.5C 2899.08,153.249 2902.25,149.249 2904.5,144.5 Z"/></g>
<g><path style="opacity:1" fill="#191919" d="M 2868.5,156.5 C 2876.02,158.927 2883.69,160.76 2891.5,162C 2892,162.5 2892.5,163 2893,163.5C 2891.6,172.087 2895.1,176.253 2903.5,176C 2908.76,168.967 2914.1,168.8 2919.5,175.5C 2925.91,176.08 2932.25,176.913 2938.5,178C 2939.72,179.438 2940.39,181.105 2940.5,183C 2939.84,187.144 2939.34,191.311 2939,195.5C 2935.07,198.448 2931.74,197.782 2929,193.5C 2928.58,185.389 2924.58,182.389 2917,184.5C 2915,183.833 2913,183.167 2911,182.5C 2907.5,184.998 2903.67,185.832 2899.5,185C 2895.67,183.254 2892.01,181.254 2888.5,179C 2885.38,175.387 2882.04,172.054 2878.5,169C 2874.11,168.737 2869.77,169.237 2865.5,170.5C 2859.59,169.983 2858.09,166.983 2861,161.5C 2863.17,159.177 2865.67,157.51 2868.5,156.5 Z"/></g>
<g><path style="opacity:1" fill="#191919" d="M 2797.5,172.5 C 2799.31,172.491 2800.98,172.991 2802.5,174C 2804.26,176.846 2806.26,179.512 2808.5,182C 2812.8,181.923 2817.14,181.756 2821.5,181.5C 2822.1,185.516 2821.1,189.016 2818.5,192C 2812.08,192.87 2805.75,192.536 2799.5,191C 2797.03,187.212 2794.69,183.379 2792.5,179.5C 2793.06,176.288 2794.73,173.955 2797.5,172.5 Z"/></g>
<g><path style="opacity:1" fill="#1b1b1b" d="M 2960.5,178.5 C 2969.3,180.704 2978.3,181.87 2987.5,182C 2988.41,184.488 2987.41,186.155 2984.5,187C 2978.56,189.328 2972.56,189.662 2966.5,188C 2963.34,185.49 2961.34,182.324 2960.5,178.5 Z"/></g>
<g><path style="opacity:1" fill="#1a1a1a" d="M 2871.5,181.5 C 2875.23,182.013 2878.9,182.846 2882.5,184C 2883.57,184.739 2884.24,185.739 2884.5,187C 2881.02,190.567 2877.36,193.9 2873.5,197C 2874.92,199.638 2877.08,201.472 2880,202.5C 2880.68,203.784 2880.52,204.951 2879.5,206C 2872.27,205.318 2865.27,203.484 2858.5,200.5C 2856.39,201.054 2854.39,201.888 2852.5,203C 2849.22,203.743 2846.22,203.076 2843.5,201C 2841,198.5 2838.5,196 2836,193.5C 2835.56,189.494 2836.72,185.994 2839.5,183C 2840.83,182.333 2842.17,182.333 2843.5,183C 2847.71,193.774 2855.04,196.774 2865.5,192C 2868.52,189.046 2870.52,185.546 2871.5,181.5 Z"/></g>
<g><path style="opacity:1" fill="#191919" d="M 2675.5,182.5 C 2677.31,182.491 2678.98,182.991 2680.5,184C 2684.34,189.335 2689.34,190.835 2695.5,188.5C 2696.5,196.848 2693.17,202.514 2685.5,205.5C 2680.86,204.239 2678.03,201.239 2677,196.5C 2670.36,192.221 2669.86,187.554 2675.5,182.5 Z"/></g>
<g><path style="opacity:1" fill="#1a1a1a" d="M 2755.5,186.5 C 2758.96,185.889 2761.63,187.056 2763.5,190C 2768.33,193.926 2772.33,193.259 2775.5,188C 2784.45,187.646 2785.62,190.48 2779,196.5C 2777.22,205.765 2772.39,207.598 2764.5,202C 2761.05,199.518 2757.88,196.685 2755,193.5C 2754.3,191.071 2754.46,188.738 2755.5,186.5 Z"/></g>
<g><path style="opacity:0.999" fill="#c8c8c8" d="M 195.5,200.5 C 280.184,200.033 364.85,200.533 449.5,202C 564.901,216.94 612.401,281.774 592,396.5C 583.593,432.57 561.76,456.07 526.5,467C 563.78,477.277 590.28,500.111 606,535.5C 626.691,586.149 627.691,637.149 609,688.5C 590.232,727.6 560.398,754.433 519.5,769C 493.949,778.304 467.615,783.971 440.5,786C 356.167,786.5 271.834,786.667 187.5,786.5C 187.5,758.5 187.5,730.5 187.5,702.5C 200.504,702.667 213.504,702.5 226.5,702C 242.654,697.912 250.821,687.412 251,670.5C 251.983,546.48 251.65,422.48 250,298.5C 247.826,288.329 241.993,281.162 232.5,277C 220.314,275.907 208.147,275.074 196,274.5C 195.5,249.836 195.333,225.169 195.5,200.5 Z"/></g>
<g><path style="opacity:1" fill="#c8c8c8" d="M 1048.5,219.5 C 1090.83,219.5 1133.17,219.5 1175.5,219.5C 1175.33,375.834 1175.5,532.167 1176,688.5C 1176.35,705.407 1184.51,716.241 1200.5,721C 1207.16,721.5 1213.83,721.666 1220.5,721.5C 1220.5,744.833 1220.5,768.167 1220.5,791.5C 1163.17,791.5 1105.83,791.5 1048.5,791.5C 1048.5,768.167 1048.5,744.833 1048.5,721.5C 1054.51,721.666 1060.51,721.499 1066.5,721C 1081.41,718.419 1089.91,709.586 1092,694.5C 1092.67,568.5 1092.67,442.5 1092,316.5C 1089.9,301.433 1081.4,292.6 1066.5,290C 1060.51,289.501 1054.51,289.334 1048.5,289.5C 1048.5,266.167 1048.5,242.833 1048.5,219.5 Z"/></g>
<g><path style="opacity:0.999" fill="#c8c8c8" d="M 1406.5,721.5 C 1406.5,744.833 1406.5,768.167 1406.5,791.5C 1349.17,791.5 1291.83,791.5 1234.5,791.5C 1234.5,768.167 1234.5,744.833 1234.5,721.5C 1245.77,722.852 1256.44,721.018 1266.5,716C 1273.05,710.727 1276.89,703.894 1278,695.5C 1278.67,568.833 1278.67,442.167 1278,315.5C 1275.46,300.96 1266.96,292.46 1252.5,290C 1246.51,289.501 1240.51,289.334 1234.5,289.5C 1234.5,266.167 1234.5,242.833 1234.5,219.5C 1277.17,219.5 1319.83,219.5 1362.5,219.5C 1362.33,377.834 1362.5,536.167 1363,694.5C 1364.82,708.655 1372.65,717.488 1386.5,721C 1393.16,721.5 1399.83,721.666 1406.5,721.5 Z"/></g>
<g><path style="opacity:1" fill="#1a1a1a" d="M 2581.5,248.5 C 2591.17,248.334 2600.84,248.5 2610.5,249C 2611.48,256.747 2611.82,264.58 2611.5,272.5C 2601.5,272.5 2591.5,272.5 2581.5,272.5C 2581.5,264.5 2581.5,256.5 2581.5,248.5 Z"/></g>
<g><path style="opacity:1" fill="#181818" d="M 2616.5,248.5 C 2625.17,248.5 2633.83,248.5 2642.5,248.5C 2642.5,254.833 2642.5,261.167 2642.5,267.5C 2638.38,267.091 2635.05,268.424 2632.5,271.5C 2627.21,272.495 2621.87,272.828 2616.5,272.5C 2616.5,264.5 2616.5,256.5 2616.5,248.5 Z"/></g>
<g><path style="opacity:1" fill="#1a1a1a" d="M 2657.5,248.5 C 2664.17,248.334 2670.84,248.5 2677.5,249C 2678.48,255.076 2678.81,261.242 2678.5,267.5C 2671.5,267.5 2664.5,267.5 2657.5,267.5C 2657.5,261.167 2657.5,254.833 2657.5,248.5 Z"/></g>
<g><path style="opacity:1" fill="#1a1a1a" d="M 2693.5,248.5 C 2700.17,248.5 2706.83,248.5 2713.5,248.5C 2713.5,254.833 2713.5,261.167 2713.5,267.5C 2706.5,267.5 2699.5,267.5 2692.5,267.5C 2692.21,261.077 2692.54,254.744 2693.5,248.5 Z"/></g>
<g><path style="opacity:1" fill="#181818" d="M 2728.5,248.5 C 2735.5,248.5 2742.5,248.5 2749.5,248.5C 2749.5,254.833 2749.5,261.167 2749.5,267.5C 2742.5,267.5 2735.5,267.5 2728.5,267.5C 2728.5,261.167 2728.5,254.833 2728.5,248.5 Z"/></g>
<g><path style="opacity:1" fill="#181818" d="M 2764.5,248.5 C 2771.5,248.5 2778.5,248.5 2785.5,248.5C 2785.5,254.833 2785.5,261.167 2785.5,267.5C 2778.5,267.5 2771.5,267.5 2764.5,267.5C 2764.5,261.167 2764.5,254.833 2764.5,248.5 Z"/></g>
<g><path style="opacity:1" fill="#1c1c1c" d="M 2800.5,248.5 C 2807.84,248.334 2815.17,248.5 2822.5,249C 2823.48,255.076 2823.81,261.242 2823.5,267.5C 2815.5,267.5 2807.5,267.5 2799.5,267.5C 2799.21,261.077 2799.54,254.744 2800.5,248.5 Z"/></g>
<g><path style="opacity:1" fill="#181818" d="M 2837.5,248.5 C 2845.83,248.5 2854.17,248.5 2862.5,248.5C 2862.5,254.833 2862.5,261.167 2862.5,267.5C 2854.17,267.5 2845.83,267.5 2837.5,267.5C 2837.5,261.167 2837.5,254.833 2837.5,248.5 Z"/></g>
<g><path style="opacity:1" fill="#1a1a1a" d="M 2877.5,248.5 C 2884.17,248.5 2890.83,248.5 2897.5,248.5C 2897.5,254.833 2897.5,261.167 2897.5,267.5C 2890.5,267.5 2883.5,267.5 2876.5,267.5C 2876.21,261.077 2876.54,254.744 2877.5,248.5 Z"/></g>
<g><path style="opacity:1" fill="#181818" d="M 2912.5,248.5 C 2919.5,248.5 2926.5,248.5 2933.5,248.5C 2933.5,254.833 2933.5,261.167 2933.5,267.5C 2926.5,267.5 2919.5,267.5 2912.5,267.5C 2912.5,261.167 2912.5,254.833 2912.5,248.5 Z"/></g>
<g><path style="opacity:1" fill="#181818" d="M 2948.5,248.5 C 2955.5,248.5 2962.5,248.5 2969.5,248.5C 2969.5,254.833 2969.5,261.167 2969.5,267.5C 2962.5,267.5 2955.5,267.5 2948.5,267.5C 2948.5,261.167 2948.5,254.833 2948.5,248.5 Z"/></g>
<g><path style="opacity:1" fill="#1d1d1d" d="M 2984.5,248.5 C 2991.17,248.334 2997.84,248.5 3004.5,249C 3005.48,255.076 3005.81,261.242 3005.5,267.5C 2998.17,267.5 2990.83,267.5 2983.5,267.5C 2983.21,261.077 2983.54,254.744 2984.5,248.5 Z"/></g>
<g><path style="opacity:1" fill="#191919" d="M 3019.5,248.5 C 3028.17,248.5 3036.83,248.5 3045.5,248.5C 3045.5,256.5 3045.5,264.5 3045.5,272.5C 3039.82,272.666 3034.16,272.499 3028.5,272C 3026.32,268.911 3023.32,267.411 3019.5,267.5C 3019.5,261.167 3019.5,254.833 3019.5,248.5 Z"/></g>
<g><path style="opacity:1" fill="#1a1a1a" d="M 3050.5,248.5 C 3059.84,248.334 3069.17,248.5 3078.5,249C 3079.48,256.747 3079.82,264.58 3079.5,272.5C 3069.83,272.5 3060.17,272.5 3050.5,272.5C 3050.5,264.5 3050.5,256.5 3050.5,248.5 Z"/></g>
<g><path style="opacity:1" fill="#1a1a1a" d="M 2581.5,278.5 C 2591.5,278.5 2601.5,278.5 2611.5,278.5C 2611.67,285.841 2611.5,293.174 2611,300.5C 2608.78,301.924 2607.28,303.924 2606.5,306.5C 2603.89,307.318 2601.23,307.818 2598.5,308C 2597.5,309 2596.5,310 2595.5,311C 2590.85,311.499 2586.18,311.666 2581.5,311.5C 2581.5,300.5 2581.5,289.5 2581.5,278.5 Z"/></g>
<g><path style="opacity:1" fill="#1a1a1a" d="M 2616.5,278.5 C 2621.84,278.334 2627.18,278.501 2632.5,279C 2635.17,281.951 2638.5,283.117 2642.5,282.5C 2642.67,290.507 2642.5,298.507 2642,306.5C 2635.26,307.479 2628.42,307.812 2621.5,307.5C 2621.51,304.175 2620.01,301.841 2617,300.5C 2616.5,293.174 2616.33,285.841 2616.5,278.5 Z"/></g>
<g><path style="opacity:1" fill="#1a1a1a" d="M 3028.5,278.5 C 3034.17,278.5 3039.83,278.5 3045.5,278.5C 3045.83,285.863 3045.5,293.197 3044.5,300.5C 3042.26,301.853 3040.93,303.853 3040.5,306.5C 3033.61,307.811 3026.78,307.811 3020,306.5C 3019.5,298.507 3019.33,290.507 3019.5,282.5C 3023.42,283.039 3026.42,281.706 3028.5,278.5 Z"/></g>
<g><path style="opacity:1" fill="#1c1c1c" d="M 3050.5,278.5 C 3060.17,278.5 3069.83,278.5 3079.5,278.5C 3079.5,289.5 3079.5,300.5 3079.5,311.5C 3076.48,311.665 3073.48,311.498 3070.5,311C 3069.83,309.667 3068.83,308.667 3067.5,308C 3063.51,307.501 3059.51,307.334 3055.5,307.5C 3055.46,304.415 3054.12,302.081 3051.5,300.5C 3050.5,293.197 3050.17,285.863 3050.5,278.5 Z"/></g>
<g><path style="opacity:1" fill="#181818" d="M 349.5,281.5 C 371.836,281.333 394.169,281.5 416.5,282C 436.478,284.1 454.478,291.1 470.5,303C 485.459,316.259 492.459,332.925 491.5,353C 492.088,380.16 481.088,401.16 458.5,416C 444.567,424.2 429.567,429.2 413.5,431C 392.169,431.5 370.836,431.667 349.5,431.5C 349.5,381.5 349.5,331.5 349.5,281.5 Z"/></g>
<g><path style="opacity:1" fill="#1c1c1c" d="M 2657.5,282.5 C 2664.5,282.5 2671.5,282.5 2678.5,282.5C 2678.67,290.507 2678.5,298.507 2678,306.5C 2671.26,307.479 2664.42,307.812 2657.5,307.5C 2657.5,299.167 2657.5,290.833 2657.5,282.5 Z"/></g>
<g><path style="opacity:1" fill="#1c1c1c" d="M 2692.5,282.5 C 2699.5,282.5 2706.5,282.5 2713.5,282.5C 2713.5,290.833 2713.5,299.167 2713.5,307.5C 2706.58,307.812 2699.74,307.479 2693,306.5C 2692.5,298.507 2692.33,290.507 2692.5,282.5 Z"/></g>
<g><path style="opacity:1" fill="#1a1a1a" d="M 2728.5,282.5 C 2735.5,282.5 2742.5,282.5 2749.5,282.5C 2749.5,290.833 2749.5,299.167 2749.5,307.5C 2742.5,307.5 2735.5,307.5 2728.5,307.5C 2728.5,299.167 2728.5,290.833 2728.5,282.5 Z"/></g>
<g><path style="opacity:1" fill="#1a1a1a" d="M 2764.5,282.5 C 2771.5,282.5 2778.5,282.5 2785.5,282.5C 2785.67,290.507 2785.5,298.507 2785,306.5C 2778.26,307.479 2771.42,307.812 2764.5,307.5C 2764.5,299.167 2764.5,290.833 2764.5,282.5 Z"/></g>
<g><path style="opacity:1" fill="#1e1e1e" d="M 2799.5,282.5 C 2807.5,282.5 2815.5,282.5 2823.5,282.5C 2823.67,290.507 2823.5,298.507 2823,306.5C 2815.33,307.833 2807.67,307.833 2800,306.5C 2799.5,298.507 2799.33,290.507 2799.5,282.5 Z"/></g>
<g><path style="opacity:1" fill="#1a1a1a" d="M 2837.5,282.5 C 2845.83,282.5 2854.17,282.5 2862.5,282.5C 2862.67,290.507 2862.5,298.507 2862,306.5C 2854,307.833 2846,307.833 2838,306.5C 2837.5,298.507 2837.33,290.507 2837.5,282.5 Z"/></g>
<g><path style="opacity:1" fill="#1c1c1c" d="M 2876.5,282.5 C 2883.5,282.5 2890.5,282.5 2897.5,282.5C 2897.5,290.833 2897.5,299.167 2897.5,307.5C 2890.58,307.812 2883.74,307.479 2877,306.5C 2876.5,298.507 2876.33,290.507 2876.5,282.5 Z"/></g>
<g><path style="opacity:1" fill="#1a1a1a" d="M 2912.5,282.5 C 2919.5,282.5 2926.5,282.5 2933.5,282.5C 2933.5,290.833 2933.5,299.167 2933.5,307.5C 2926.58,307.812 2919.74,307.479 2913,306.5C 2912.5,298.507 2912.33,290.507 2912.5,282.5 Z"/></g>
<g><path style="opacity:1" fill="#1a1a1a" d="M 2948.5,282.5 C 2955.5,282.5 2962.5,282.5 2969.5,282.5C 2969.67,290.507 2969.5,298.507 2969,306.5C 2962.26,307.479 2955.42,307.812 2948.5,307.5C 2948.5,299.167 2948.5,290.833 2948.5,282.5 Z"/></g>
<g><path style="opacity:1" fill="#1f1f1f" d="M 2983.5,282.5 C 2990.83,282.5 2998.17,282.5 3005.5,282.5C 3005.67,290.507 3005.5,298.507 3005,306.5C 2998,307.833 2991,307.833 2984,306.5C 2983.5,298.507 2983.33,290.507 2983.5,282.5 Z"/></g>
<g><path style="opacity:1" fill="#181818" d="M 2581.5,317.5 C 2588.07,316.665 2594.07,317.832 2599.5,321C 2601.81,321.497 2604.14,321.663 2606.5,321.5C 2606.5,327.833 2606.5,334.167 2606.5,340.5C 2598.17,340.5 2589.83,340.5 2581.5,340.5C 2581.5,332.833 2581.5,325.167 2581.5,317.5 Z"/></g>
<g><path style="opacity:1" fill="#1b1b1b" d="M 3070.5,317.5 C 3073.5,317.5 3076.5,317.5 3079.5,317.5C 3079.81,325.087 3079.48,332.587 3078.5,340C 3070.84,340.5 3063.17,340.666 3055.5,340.5C 3055.5,334.167 3055.5,327.833 3055.5,321.5C 3059.51,321.666 3063.51,321.499 3067.5,321C 3068.71,319.961 3069.71,318.794 3070.5,317.5 Z"/></g>
<g><path style="opacity:1" fill="#181818" d="M 2621.5,321.5 C 2628.5,321.5 2635.5,321.5 2642.5,321.5C 2642.5,327.833 2642.5,334.167 2642.5,340.5C 2635.5,340.5 2628.5,340.5 2621.5,340.5C 2621.5,334.167 2621.5,327.833 2621.5,321.5 Z"/></g>
<g><path style="opacity:1" fill="#1b1b1b" d="M 2657.5,321.5 C 2664.17,321.334 2670.84,321.5 2677.5,322C 2678.83,328 2678.83,334 2677.5,340C 2670.84,340.5 2664.17,340.666 2657.5,340.5C 2657.5,334.167 2657.5,327.833 2657.5,321.5 Z"/></g>
<g><path style="opacity:1" fill="#1b1b1b" d="M 2693.5,321.5 C 2700.17,321.5 2706.83,321.5 2713.5,321.5C 2713.5,327.833 2713.5,334.167 2713.5,340.5C 2706.83,340.666 2700.16,340.5 2693.5,340C 2692.19,333.834 2692.19,327.667 2693.5,321.5 Z"/></g>
<g><path style="opacity:1" fill="#181818" d="M 2728.5,321.5 C 2735.5,321.5 2742.5,321.5 2749.5,321.5C 2749.5,327.833 2749.5,334.167 2749.5,340.5C 2742.5,340.5 2735.5,340.5 2728.5,340.5C 2728.5,334.167 2728.5,327.833 2728.5,321.5 Z"/></g>
<g><path style="opacity:1" fill="#191919" d="M 2764.5,321.5 C 2771.5,321.5 2778.5,321.5 2785.5,321.5C 2785.5,327.833 2785.5,334.167 2785.5,340.5C 2778.5,340.5 2771.5,340.5 2764.5,340.5C 2764.5,334.167 2764.5,327.833 2764.5,321.5 Z"/></g>
<g><path style="opacity:1" fill="#1c1c1c" d="M 2800.5,321.5 C 2807.84,321.334 2815.17,321.5 2822.5,322C 2823.64,327.75 2823.81,333.584 2823,339.5C 2815.58,340.647 2808.08,340.813 2800.5,340C 2799.19,333.834 2799.19,327.667 2800.5,321.5 Z"/></g>
<g><path style="opacity:1" fill="#191919" d="M 2837.5,321.5 C 2845.83,321.5 2854.17,321.5 2862.5,321.5C 2862.5,327.833 2862.5,334.167 2862.5,340.5C 2854.17,340.5 2845.83,340.5 2837.5,340.5C 2837.5,334.167 2837.5,327.833 2837.5,321.5 Z"/></g>
<g><path style="opacity:1" fill="#1b1b1b" d="M 2877.5,321.5 C 2884.17,321.5 2890.83,321.5 2897.5,321.5C 2897.5,327.833 2897.5,334.167 2897.5,340.5C 2890.83,340.666 2884.16,340.5 2877.5,340C 2876.19,333.834 2876.19,327.667 2877.5,321.5 Z"/></g>
<g><path style="opacity:1" fill="#191919" d="M 2912.5,321.5 C 2919.5,321.5 2926.5,321.5 2933.5,321.5C 2933.5,327.833 2933.5,334.167 2933.5,340.5C 2926.5,340.5 2919.5,340.5 2912.5,340.5C 2912.5,334.167 2912.5,327.833 2912.5,321.5 Z"/></g>
<g><path style="opacity:1" fill="#191919" d="M 2948.5,321.5 C 2955.5,321.5 2962.5,321.5 2969.5,321.5C 2969.5,327.833 2969.5,334.167 2969.5,340.5C 2962.5,340.5 2955.5,340.5 2948.5,340.5C 2948.5,334.167 2948.5,327.833 2948.5,321.5 Z"/></g>
<g><path style="opacity:1" fill="#1d1d1d" d="M 2984.5,321.5 C 2991.17,321.334 2997.84,321.5 3004.5,322C 3005.64,327.75 3005.81,333.584 3005,339.5C 2998.25,340.645 2991.41,340.811 2984.5,340C 2983.19,333.834 2983.19,327.667 2984.5,321.5 Z"/></g>
<g><path style="opacity:1" fill="#191919" d="M 3019.5,321.5 C 3026.5,321.5 3033.5,321.5 3040.5,321.5C 3040.5,327.833 3040.5,334.167 3040.5,340.5C 3033.5,340.5 3026.5,340.5 3019.5,340.5C 3019.5,334.167 3019.5,327.833 3019.5,321.5 Z"/></g>
<g><path style="opacity:1" fill="#181818" d="M 2581.5,355.5 C 2589.83,355.5 2598.17,355.5 2606.5,355.5C 2606.5,362.5 2606.5,369.5 2606.5,376.5C 2598.17,376.5 2589.83,376.5 2581.5,376.5C 2581.5,369.5 2581.5,362.5 2581.5,355.5 Z"/></g>
<g><path style="opacity:1" fill="#171817" d="M 2621.5,355.5 C 2628.5,355.5 2635.5,355.5 2642.5,355.5C 2642.5,362.5 2642.5,369.5 2642.5,376.5C 2635.5,376.5 2628.5,376.5 2621.5,376.5C 2621.5,369.5 2621.5,362.5 2621.5,355.5 Z"/></g>
<g><path style="opacity:1" fill="#1a1a1a" d="M 2657.5,355.5 C 2664.5,355.5 2671.5,355.5 2678.5,355.5C 2678.5,362.5 2678.5,369.5 2678.5,376.5C 2671.5,376.5 2664.5,376.5 2657.5,376.5C 2657.5,369.5 2657.5,362.5 2657.5,355.5 Z"/></g>
<g><path style="opacity:1" fill="#1a1a1a" d="M 2692.5,355.5 C 2699.5,355.5 2706.5,355.5 2713.5,355.5C 2713.5,362.5 2713.5,369.5 2713.5,376.5C 2706.5,376.5 2699.5,376.5 2692.5,376.5C 2692.5,369.5 2692.5,362.5 2692.5,355.5 Z"/></g>
<g><path style="opacity:1" fill="#171817" d="M 2728.5,355.5 C 2735.5,355.5 2742.5,355.5 2749.5,355.5C 2749.5,362.5 2749.5,369.5 2749.5,376.5C 2742.5,376.5 2735.5,376.5 2728.5,376.5C 2728.5,369.5 2728.5,362.5 2728.5,355.5 Z"/></g>
<g><path style="opacity:1" fill="#181818" d="M 2764.5,355.5 C 2771.5,355.5 2778.5,355.5 2785.5,355.5C 2785.5,362.5 2785.5,369.5 2785.5,376.5C 2778.5,376.5 2771.5,376.5 2764.5,376.5C 2764.5,369.5 2764.5,362.5 2764.5,355.5 Z"/></g>
<g><path style="opacity:1" fill="#1c1c1c" d="M 2799.5,355.5 C 2807.5,355.5 2815.5,355.5 2823.5,355.5C 2823.5,362.5 2823.5,369.5 2823.5,376.5C 2815.5,376.5 2807.5,376.5 2799.5,376.5C 2799.5,369.5 2799.5,362.5 2799.5,355.5 Z"/></g>
<g><path style="opacity:1" fill="#181818" d="M 2837.5,355.5 C 2845.83,355.5 2854.17,355.5 2862.5,355.5C 2862.5,362.5 2862.5,369.5 2862.5,376.5C 2854.17,376.5 2845.83,376.5 2837.5,376.5C 2837.5,369.5 2837.5,362.5 2837.5,355.5 Z"/></g>
<g><path style="opacity:1" fill="#1a1a1a" d="M 2876.5,355.5 C 2883.5,355.5 2890.5,355.5 2897.5,355.5C 2897.5,362.5 2897.5,369.5 2897.5,376.5C 2890.5,376.5 2883.5,376.5 2876.5,376.5C 2876.5,369.5 2876.5,362.5 2876.5,355.5 Z"/></g>
<g><path style="opacity:1" fill="#181818" d="M 2912.5,355.5 C 2919.5,355.5 2926.5,355.5 2933.5,355.5C 2933.5,362.5 2933.5,369.5 2933.5,376.5C 2926.5,376.5 2919.5,376.5 2912.5,376.5C 2912.5,369.5 2912.5,362.5 2912.5,355.5 Z"/></g>
<g><path style="opacity:1" fill="#181818" d="M 2948.5,355.5 C 2955.5,355.5 2962.5,355.5 2969.5,355.5C 2969.5,362.5 2969.5,369.5 2969.5,376.5C 2962.5,376.5 2955.5,376.5 2948.5,376.5C 2948.5,369.5 2948.5,362.5 2948.5,355.5 Z"/></g>
<g><path style="opacity:1" fill="#1d1d1d" d="M 2983.5,355.5 C 2990.83,355.5 2998.17,355.5 3005.5,355.5C 3005.5,362.5 3005.5,369.5 3005.5,376.5C 2998.17,376.5 2990.83,376.5 2983.5,376.5C 2983.5,369.5 2983.5,362.5 2983.5,355.5 Z"/></g>
<g><path style="opacity:1" fill="#181818" d="M 3019.5,355.5 C 3026.5,355.5 3033.5,355.5 3040.5,355.5C 3040.5,362.5 3040.5,369.5 3040.5,376.5C 3033.5,376.5 3026.5,376.5 3019.5,376.5C 3019.5,369.5 3019.5,362.5 3019.5,355.5 Z"/></g>
<g><path style="opacity:1" fill="#1a1a1a" d="M 3055.5,355.5 C 3063.5,355.5 3071.5,355.5 3079.5,355.5C 3079.5,362.5 3079.5,369.5 3079.5,376.5C 3071.5,376.5 3063.5,376.5 3055.5,376.5C 3055.5,369.5 3055.5,362.5 3055.5,355.5 Z"/></g>
<g><path style="opacity:1" fill="#191919" d="M 2529.5,356.5 C 2532.32,356.081 2534.49,357.081 2536,359.5C 2537.37,365.31 2539.2,370.977 2541.5,376.5C 2540.63,378.868 2538.96,380.368 2536.5,381C 2528.81,381.729 2521.47,380.395 2514.5,377C 2511.83,375.333 2511.83,373.667 2514.5,372C 2518.48,372.186 2522.48,372.186 2526.5,372C 2527.33,371.167 2528.17,370.333 2529,369.5C 2528.41,365.116 2528.57,360.783 2529.5,356.5 Z"/></g>
<g><path style="opacity:1" fill="#1b1b1b" d="M 3123.5,383.5 C 3125.6,383.201 3127.6,383.534 3129.5,384.5C 3130.24,387.443 3130.74,390.443 3131,393.5C 3131.5,394 3132,394.5 3132.5,395C 3137.34,394.762 3142,393.595 3146.5,391.5C 3147.84,392.688 3148.51,394.188 3148.5,396C 3147.94,398.526 3147.27,401.026 3146.5,403.5C 3146.68,404.554 3147.01,405.554 3147.5,406.5C 3142.23,409.36 3137.73,408.36 3134,403.5C 3131.51,405.497 3128.68,406.497 3125.5,406.5C 3125.67,402.154 3125.5,397.821 3125,393.5C 3122.58,392.215 3120.74,390.382 3119.5,388C 3120.34,385.993 3121.68,384.493 3123.5,383.5 Z"/></g>
<g><path style="opacity:1" fill="#c8c8c8" d="M 854.5,386.5 C 899.167,386.5 943.833,386.5 988.5,386.5C 988.333,487.834 988.5,589.167 989,690.5C 989.85,706.671 998.016,716.838 1013.5,721C 1020.16,721.5 1026.83,721.666 1033.5,721.5C 1033.5,744.833 1033.5,768.167 1033.5,791.5C 993.5,791.5 953.5,791.5 913.5,791.5C 913.832,782.143 913.498,772.81 912.5,763.5C 893.77,782.364 871.103,793.531 844.5,797C 796.62,805.908 753.62,795.575 715.5,766C 689.872,740.572 675.039,709.739 671,673.5C 669.7,610.855 669.034,548.188 669,485.5C 667.474,472.926 660.974,464.093 649.5,459C 640.234,457.614 630.9,457.114 621.5,457.5C 621.5,434.167 621.5,410.833 621.5,387.5C 666.167,387.5 710.833,387.5 755.5,387.5C 755.333,477.501 755.5,567.501 756,657.5C 760.583,696.749 782.416,718.583 821.5,723C 868.467,721.373 895.301,697.206 902,650.5C 902.667,594.5 902.667,538.5 902,482.5C 899.351,469.852 891.851,461.686 879.5,458C 871.173,457.5 862.84,457.334 854.5,457.5C 854.5,433.833 854.5,410.167 854.5,386.5 Z"/></g>
<g><path style="opacity:1" fill="#1a1a1a" d="M 2581.5,391.5 C 2589.83,391.5 2598.17,391.5 2606.5,391.5C 2606.5,398.833 2606.5,406.167 2606.5,413.5C 2598.49,413.666 2590.49,413.5 2582.5,413C 2581.52,405.921 2581.19,398.755 2581.5,391.5 Z"/></g>
<g><path style="opacity:1" fill="#1a1a1a" d="M 2621.5,391.5 C 2628.5,391.5 2635.5,391.5 2642.5,391.5C 2642.5,398.833 2642.5,406.167 2642.5,413.5C 2635.5,413.5 2628.5,413.5 2621.5,413.5C 2621.5,406.167 2621.5,398.833 2621.5,391.5 Z"/></g>
<g><path style="opacity:1" fill="#1c1c1c" d="M 2657.5,391.5 C 2664.5,391.5 2671.5,391.5 2678.5,391.5C 2678.67,398.508 2678.5,405.508 2678,412.5C 2671.26,413.479 2664.42,413.812 2657.5,413.5C 2657.5,406.167 2657.5,398.833 2657.5,391.5 Z"/></g>
<g><path style="opacity:1" fill="#1c1c1c" d="M 2692.5,391.5 C 2699.5,391.5 2706.5,391.5 2713.5,391.5C 2713.5,398.833 2713.5,406.167 2713.5,413.5C 2706.58,413.812 2699.74,413.479 2693,412.5C 2692.5,405.508 2692.33,398.508 2692.5,391.5 Z"/></g>
<g><path style="opacity:1" fill="#1a1a1a" d="M 2728.5,391.5 C 2735.5,391.5 2742.5,391.5 2749.5,391.5C 2749.5,398.833 2749.5,406.167 2749.5,413.5C 2742.5,413.5 2735.5,413.5 2728.5,413.5C 2728.5,406.167 2728.5,398.833 2728.5,391.5 Z"/></g>
<g><path style="opacity:1" fill="#1a1a1a" d="M 2764.5,391.5 C 2771.5,391.5 2778.5,391.5 2785.5,391.5C 2785.67,398.508 2785.5,405.508 2785,412.5C 2778.26,413.479 2771.42,413.812 2764.5,413.5C 2764.5,406.167 2764.5,398.833 2764.5,391.5 Z"/></g>
<g><path style="opacity:1" fill="#1e1e1e" d="M 2799.5,391.5 C 2807.5,391.5 2815.5,391.5 2823.5,391.5C 2823.67,398.508 2823.5,405.508 2823,412.5C 2815.33,413.833 2807.67,413.833 2800,412.5C 2799.5,405.508 2799.33,398.508 2799.5,391.5 Z"/></g>
<g><path style="opacity:1" fill="#1a1a1a" d="M 2837.5,391.5 C 2845.83,391.5 2854.17,391.5 2862.5,391.5C 2862.67,398.508 2862.5,405.508 2862,412.5C 2854,413.833 2846,413.833 2838,412.5C 2837.5,405.508 2837.33,398.508 2837.5,391.5 Z"/></g>
<g><path style="opacity:1" fill="#1c1c1c" d="M 2876.5,391.5 C 2883.5,391.5 2890.5,391.5 2897.5,391.5C 2897.5,398.833 2897.5,406.167 2897.5,413.5C 2890.58,413.812 2883.74,413.479 2877,412.5C 2876.5,405.508 2876.33,398.508 2876.5,391.5 Z"/></g>
<g><path style="opacity:1" fill="#1a1a1a" d="M 2912.5,391.5 C 2919.5,391.5 2926.5,391.5 2933.5,391.5C 2933.5,398.833 2933.5,406.167 2933.5,413.5C 2926.58,413.812 2919.74,413.479 2913,412.5C 2912.5,405.508 2912.33,398.508 2912.5,391.5 Z"/></g>
<g><path style="opacity:1" fill="#1a1a1a" d="M 2948.5,391.5 C 2955.5,391.5 2962.5,391.5 2969.5,391.5C 2969.67,398.508 2969.5,405.508 2969,412.5C 2962.26,413.479 2955.42,413.812 2948.5,413.5C 2948.5,406.167 2948.5,398.833 2948.5,391.5 Z"/></g>
<g><path style="opacity:1" fill="#1f1f1f" d="M 2983.5,391.5 C 2990.83,391.5 2998.17,391.5 3005.5,391.5C 3005.67,398.508 3005.5,405.508 3005,412.5C 2998,413.833 2991,413.833 2984,412.5C 2983.5,405.508 2983.33,398.508 2983.5,391.5 Z"/></g>
<g><path style="opacity:1" fill="#1a1a1a" d="M 3019.5,391.5 C 3026.5,391.5 3033.5,391.5 3040.5,391.5C 3040.5,398.833 3040.5,406.167 3040.5,413.5C 3033.58,413.812 3026.74,413.479 3020,412.5C 3019.5,405.508 3019.33,398.508 3019.5,391.5 Z"/></g>
<g><path style="opacity:1" fill="#1c1c1c" d="M 3055.5,391.5 C 3063.5,391.5 3071.5,391.5 3079.5,391.5C 3079.81,398.755 3079.48,405.921 3078.5,413C 3070.84,413.5 3063.17,413.666 3055.5,413.5C 3055.5,406.167 3055.5,398.833 3055.5,391.5 Z"/></g>
<g><path style="opacity:1" fill="#181818" d="M 2581.5,427.5 C 2589.83,427.5 2598.17,427.5 2606.5,427.5C 2606.5,434.833 2606.5,442.167 2606.5,449.5C 2598.17,449.5 2589.83,449.5 2581.5,449.5C 2581.5,442.167 2581.5,434.833 2581.5,427.5 Z"/></g>
<g><path style="opacity:1" fill="#181818" d="M 2621.5,427.5 C 2628.5,427.5 2635.5,427.5 2642.5,427.5C 2642.5,434.833 2642.5,442.167 2642.5,449.5C 2635.5,449.5 2628.5,449.5 2621.5,449.5C 2621.5,442.167 2621.5,434.833 2621.5,427.5 Z"/></g>
<g><path style="opacity:1" fill="#1b1b1b" d="M 2657.5,427.5 C 2664.17,427.334 2670.84,427.5 2677.5,428C 2678.83,435 2678.83,442 2677.5,449C 2670.84,449.5 2664.17,449.666 2657.5,449.5C 2657.5,442.167 2657.5,434.833 2657.5,427.5 Z"/></g>
<g><path style="opacity:1" fill="#1b1b1b" d="M 2693.5,427.5 C 2700.17,427.5 2706.83,427.5 2713.5,427.5C 2713.5,434.833 2713.5,442.167 2713.5,449.5C 2706.58,449.812 2699.74,449.479 2693,448.5C 2692.21,441.42 2692.37,434.42 2693.5,427.5 Z"/></g>
<g><path style="opacity:1" fill="#181818" d="M 2728.5,427.5 C 2735.5,427.5 2742.5,427.5 2749.5,427.5C 2749.5,434.833 2749.5,442.167 2749.5,449.5C 2742.5,449.5 2735.5,449.5 2728.5,449.5C 2728.5,442.167 2728.5,434.833 2728.5,427.5 Z"/></g>
<g><path style="opacity:1" fill="#191919" d="M 2764.5,427.5 C 2771.5,427.5 2778.5,427.5 2785.5,427.5C 2785.5,434.833 2785.5,442.167 2785.5,449.5C 2778.5,449.5 2771.5,449.5 2764.5,449.5C 2764.5,442.167 2764.5,434.833 2764.5,427.5 Z"/></g>
<g><path style="opacity:1" fill="#1c1c1c" d="M 2800.5,427.5 C 2807.84,427.334 2815.17,427.5 2822.5,428C 2823.64,434.752 2823.81,441.586 2823,448.5C 2815.58,449.647 2808.08,449.813 2800.5,449C 2799.18,441.834 2799.18,434.667 2800.5,427.5 Z"/></g>
<g><path style="opacity:1" fill="#191919" d="M 2837.5,427.5 C 2845.83,427.5 2854.17,427.5 2862.5,427.5C 2862.5,434.833 2862.5,442.167 2862.5,449.5C 2854.17,449.5 2845.83,449.5 2837.5,449.5C 2837.5,442.167 2837.5,434.833 2837.5,427.5 Z"/></g>
<g><path style="opacity:1" fill="#1b1b1b" d="M 2877.5,427.5 C 2884.17,427.5 2890.83,427.5 2897.5,427.5C 2897.5,434.833 2897.5,442.167 2897.5,449.5C 2890.58,449.812 2883.74,449.479 2877,448.5C 2876.21,441.42 2876.37,434.42 2877.5,427.5 Z"/></g>
<g><path style="opacity:1" fill="#191919" d="M 2912.5,427.5 C 2919.5,427.5 2926.5,427.5 2933.5,427.5C 2933.5,434.833 2933.5,442.167 2933.5,449.5C 2926.5,449.5 2919.5,449.5 2912.5,449.5C 2912.5,442.167 2912.5,434.833 2912.5,427.5 Z"/></g>
<g><path style="opacity:1" fill="#191919" d="M 2948.5,427.5 C 2955.5,427.5 2962.5,427.5 2969.5,427.5C 2969.5,434.833 2969.5,442.167 2969.5,449.5C 2962.5,449.5 2955.5,449.5 2948.5,449.5C 2948.5,442.167 2948.5,434.833 2948.5,427.5 Z"/></g>
<g><path style="opacity:1" fill="#1d1d1d" d="M 2984.5,427.5 C 2991.42,427.188 2998.26,427.521 3005,428.5C 3005.81,435.414 3005.64,442.248 3004.5,449C 2997.59,449.811 2990.75,449.645 2984,448.5C 2983.21,441.42 2983.37,434.42 2984.5,427.5 Z"/></g>
<g><path style="opacity:1" fill="#191919" d="M 3019.5,427.5 C 3026.5,427.5 3033.5,427.5 3040.5,427.5C 3040.5,434.833 3040.5,442.167 3040.5,449.5C 3033.5,449.5 3026.5,449.5 3019.5,449.5C 3019.5,442.167 3019.5,434.833 3019.5,427.5 Z"/></g>
<g><path style="opacity:1" fill="#1a1a1a" d="M 3055.5,427.5 C 3063.17,427.334 3070.84,427.5 3078.5,428C 3079.83,435 3079.83,442 3078.5,449C 3070.84,449.5 3063.17,449.666 3055.5,449.5C 3055.5,442.167 3055.5,434.833 3055.5,427.5 Z"/></g>
<g><path style="opacity:1" fill="#1a1a1a" d="M 3133.5,428.5 C 3134.87,428.343 3136.21,428.51 3137.5,429C 3140.32,431.638 3142.65,434.638 3144.5,438C 3146.02,439.009 3147.69,439.509 3149.5,439.5C 3148.8,443.552 3148.8,447.552 3149.5,451.5C 3149.2,453.985 3147.87,455.652 3145.5,456.5C 3141.3,452.792 3139.13,448.125 3139,442.5C 3137.67,438.896 3135.17,437.729 3131.5,439C 3129.5,440.333 3127.83,442 3126.5,444C 3122.02,444.165 3120.52,441.998 3122,437.5C 3126.17,434.842 3130.01,431.842 3133.5,428.5 Z"/></g>
<g><path style="opacity:1" fill="#1a1a1a" d="M 2582.5,463.5 C 2590.5,463.5 2598.5,463.5 2606.5,463.5C 2606.5,470.833 2606.5,478.167 2606.5,485.5C 2598.17,485.5 2589.83,485.5 2581.5,485.5C 2581.2,478.08 2581.54,470.746 2582.5,463.5 Z"/></g>
<g><path style="opacity:1" fill="#1a1a1a" d="M 2621.5,463.5 C 2628.5,463.5 2635.5,463.5 2642.5,463.5C 2642.5,470.833 2642.5,478.167 2642.5,485.5C 2635.5,485.5 2628.5,485.5 2621.5,485.5C 2621.5,478.167 2621.5,470.833 2621.5,463.5 Z"/></g>
<g><path style="opacity:1" fill="#1c1c1c" d="M 2657.5,463.5 C 2664.42,463.188 2671.26,463.521 2678,464.5C 2678.5,471.492 2678.67,478.492 2678.5,485.5C 2671.5,485.5 2664.5,485.5 2657.5,485.5C 2657.5,478.167 2657.5,470.833 2657.5,463.5 Z"/></g>
<g><path style="opacity:1" fill="#1c1c1c" d="M 2693.5,463.5 C 2700.17,463.5 2706.83,463.5 2713.5,463.5C 2713.5,470.833 2713.5,478.167 2713.5,485.5C 2706.5,485.5 2699.5,485.5 2692.5,485.5C 2692.2,478.08 2692.54,470.746 2693.5,463.5 Z"/></g>
<g><path style="opacity:1" fill="#1a1a1a" d="M 2728.5,463.5 C 2735.5,463.5 2742.5,463.5 2749.5,463.5C 2749.5,470.833 2749.5,478.167 2749.5,485.5C 2742.5,485.5 2735.5,485.5 2728.5,485.5C 2728.5,478.167 2728.5,470.833 2728.5,463.5 Z"/></g>
<g><path style="opacity:1" fill="#1a1a1a" d="M 2764.5,463.5 C 2771.42,463.188 2778.26,463.521 2785,464.5C 2785.5,471.492 2785.67,478.492 2785.5,485.5C 2778.5,485.5 2771.5,485.5 2764.5,485.5C 2764.5,478.167 2764.5,470.833 2764.5,463.5 Z"/></g>
<g><path style="opacity:1" fill="#1e1e1e" d="M 2800.5,463.5 C 2807.84,463.334 2815.17,463.5 2822.5,464C 2823.48,471.079 2823.81,478.245 2823.5,485.5C 2815.5,485.5 2807.5,485.5 2799.5,485.5C 2799.2,478.08 2799.54,470.746 2800.5,463.5 Z"/></g>
<g><path style="opacity:1" fill="#1a1a1a" d="M 2838.5,463.5 C 2846.17,463.334 2853.84,463.5 2861.5,464C 2862.48,471.079 2862.81,478.245 2862.5,485.5C 2854.17,485.5 2845.83,485.5 2837.5,485.5C 2837.2,478.08 2837.54,470.746 2838.5,463.5 Z"/></g>
<g><path style="opacity:1" fill="#1c1c1c" d="M 2877.5,463.5 C 2884.17,463.5 2890.83,463.5 2897.5,463.5C 2897.5,470.833 2897.5,478.167 2897.5,485.5C 2890.5,485.5 2883.5,485.5 2876.5,485.5C 2876.2,478.08 2876.54,470.746 2877.5,463.5 Z"/></g>
<g><path style="opacity:1" fill="#1a1a1a" d="M 2913.5,463.5 C 2920.17,463.5 2926.83,463.5 2933.5,463.5C 2933.5,470.833 2933.5,478.167 2933.5,485.5C 2926.5,485.5 2919.5,485.5 2912.5,485.5C 2912.2,478.08 2912.54,470.746 2913.5,463.5 Z"/></g>
<g><path style="opacity:1" fill="#1a1a1a" d="M 2948.5,463.5 C 2955.42,463.188 2962.26,463.521 2969,464.5C 2969.5,471.492 2969.67,478.492 2969.5,485.5C 2962.5,485.5 2955.5,485.5 2948.5,485.5C 2948.5,478.167 2948.5,470.833 2948.5,463.5 Z"/></g>
<g><path style="opacity:1" fill="#1f1f1f" d="M 2984.5,463.5 C 2991.42,463.188 2998.26,463.521 3005,464.5C 3005.5,471.492 3005.67,478.492 3005.5,485.5C 2998.17,485.5 2990.83,485.5 2983.5,485.5C 2983.2,478.08 2983.54,470.746 2984.5,463.5 Z"/></g>
<g><path style="opacity:1" fill="#1a1a1a" d="M 3020.5,463.5 C 3027.17,463.5 3033.83,463.5 3040.5,463.5C 3040.5,470.833 3040.5,478.167 3040.5,485.5C 3033.5,485.5 3026.5,485.5 3019.5,485.5C 3019.2,478.08 3019.54,470.746 3020.5,463.5 Z"/></g>
<g><path style="opacity:1" fill="#1c1c1c" d="M 3055.5,463.5 C 3063.17,463.334 3070.84,463.5 3078.5,464C 3079.48,471.079 3079.81,478.245 3079.5,485.5C 3071.5,485.5 3063.5,485.5 3055.5,485.5C 3055.5,478.167 3055.5,470.833 3055.5,463.5 Z"/></g>
<g><path style="opacity:1" fill="#1a1a1a" d="M 3126.5,493.5 C 3128.92,493.292 3131.25,493.626 3133.5,494.5C 3135.09,497.421 3136.59,500.421 3138,503.5C 3141.21,504.255 3142.71,506.255 3142.5,509.5C 3135.5,507.833 3132.83,510.5 3134.5,517.5C 3132.86,517.714 3131.36,517.38 3130,516.5C 3129.5,511.511 3129.33,506.511 3129.5,501.5C 3126.64,501.945 3124.14,501.278 3122,499.5C 3121.75,496.241 3123.25,494.241 3126.5,493.5 Z"/></g>
<g><path style="opacity:1" fill="#181818" d="M 2581.5,500.5 C 2589.83,500.5 2598.17,500.5 2606.5,500.5C 2606.5,508.5 2606.5,516.5 2606.5,524.5C 2598.17,524.5 2589.83,524.5 2581.5,524.5C 2581.5,516.5 2581.5,508.5 2581.5,500.5 Z"/></g>
<g><path style="opacity:1" fill="#171817" d="M 2621.5,500.5 C 2628.5,500.5 2635.5,500.5 2642.5,500.5C 2642.5,508.5 2642.5,516.5 2642.5,524.5C 2635.5,524.5 2628.5,524.5 2621.5,524.5C 2621.5,516.5 2621.5,508.5 2621.5,500.5 Z"/></g>
<g><path style="opacity:1" fill="#1a1a1a" d="M 2657.5,500.5 C 2664.5,500.5 2671.5,500.5 2678.5,500.5C 2678.5,508.5 2678.5,516.5 2678.5,524.5C 2671.5,524.5 2664.5,524.5 2657.5,524.5C 2657.5,516.5 2657.5,508.5 2657.5,500.5 Z"/></g>
<g><path style="opacity:1" fill="#1a1a1a" d="M 2692.5,500.5 C 2699.5,500.5 2706.5,500.5 2713.5,500.5C 2713.5,508.5 2713.5,516.5 2713.5,524.5C 2706.5,524.5 2699.5,524.5 2692.5,524.5C 2692.5,516.5 2692.5,508.5 2692.5,500.5 Z"/></g>
<g><path style="opacity:1" fill="#171817" d="M 2728.5,500.5 C 2735.5,500.5 2742.5,500.5 2749.5,500.5C 2749.5,508.5 2749.5,516.5 2749.5,524.5C 2742.5,524.5 2735.5,524.5 2728.5,524.5C 2728.5,516.5 2728.5,508.5 2728.5,500.5 Z"/></g>
<g><path style="opacity:1" fill="#181818" d="M 2764.5,500.5 C 2771.5,500.5 2778.5,500.5 2785.5,500.5C 2785.5,508.5 2785.5,516.5 2785.5,524.5C 2778.5,524.5 2771.5,524.5 2764.5,524.5C 2764.5,516.5 2764.5,508.5 2764.5,500.5 Z"/></g>
<g><path style="opacity:1" fill="#1c1c1c" d="M 2799.5,500.5 C 2807.5,500.5 2815.5,500.5 2823.5,500.5C 2823.5,508.5 2823.5,516.5 2823.5,524.5C 2815.5,524.5 2807.5,524.5 2799.5,524.5C 2799.5,516.5 2799.5,508.5 2799.5,500.5 Z"/></g>
<g><path style="opacity:1" fill="#181818" d="M 2837.5,500.5 C 2845.83,500.5 2854.17,500.5 2862.5,500.5C 2862.5,508.5 2862.5,516.5 2862.5,524.5C 2854.17,524.5 2845.83,524.5 2837.5,524.5C 2837.5,516.5 2837.5,508.5 2837.5,500.5 Z"/></g>
<g><path style="opacity:1" fill="#1a1a1a" d="M 2876.5,500.5 C 2883.5,500.5 2890.5,500.5 2897.5,500.5C 2897.5,508.5 2897.5,516.5 2897.5,524.5C 2890.5,524.5 2883.5,524.5 2876.5,524.5C 2876.5,516.5 2876.5,508.5 2876.5,500.5 Z"/></g>
<g><path style="opacity:1" fill="#181818" d="M 2912.5,500.5 C 2919.5,500.5 2926.5,500.5 2933.5,500.5C 2933.5,508.5 2933.5,516.5 2933.5,524.5C 2926.5,524.5 2919.5,524.5 2912.5,524.5C 2912.5,516.5 2912.5,508.5 2912.5,500.5 Z"/></g>
<g><path style="opacity:1" fill="#181818" d="M 2948.5,500.5 C 2955.5,500.5 2962.5,500.5 2969.5,500.5C 2969.5,508.5 2969.5,516.5 2969.5,524.5C 2962.5,524.5 2955.5,524.5 2948.5,524.5C 2948.5,516.5 2948.5,508.5 2948.5,500.5 Z"/></g>
<g><path style="opacity:1" fill="#1d1d1d" d="M 2983.5,500.5 C 2990.83,500.5 2998.17,500.5 3005.5,500.5C 3005.5,508.5 3005.5,516.5 3005.5,524.5C 2998.17,524.5 2990.83,524.5 2983.5,524.5C 2983.5,516.5 2983.5,508.5 2983.5,500.5 Z"/></g>
<g><path style="opacity:1" fill="#181818" d="M 3019.5,500.5 C 3026.5,500.5 3033.5,500.5 3040.5,500.5C 3040.5,508.5 3040.5,516.5 3040.5,524.5C 3033.5,524.5 3026.5,524.5 3019.5,524.5C 3019.5,516.5 3019.5,508.5 3019.5,500.5 Z"/></g>
<g><path style="opacity:1" fill="#1a1a1a" d="M 3055.5,500.5 C 3063.5,500.5 3071.5,500.5 3079.5,500.5C 3079.5,508.5 3079.5,516.5 3079.5,524.5C 3071.5,524.5 3063.5,524.5 3055.5,524.5C 3055.5,516.5 3055.5,508.5 3055.5,500.5 Z"/></g>
<g><path style="opacity:1" fill="#181818" d="M 349.5,515.5 C 375.169,515.333 400.835,515.5 426.5,516C 452.985,517.934 476.652,526.934 497.5,543C 515.053,559.621 523.72,580.121 523.5,604.5C 521.89,652.204 498.223,683.038 452.5,697C 444.936,699.141 437.269,700.808 429.5,702C 402.861,703.415 376.195,703.915 349.5,703.5C 349.5,640.833 349.5,578.167 349.5,515.5 Z"/></g>
<g><path style="opacity:1" fill="#1b1b1b" d="M 3129.5,537.5 C 3132.58,537.804 3135.41,538.804 3138,540.5C 3138.3,548.273 3138.96,555.94 3140,563.5C 3137.99,560.328 3135.49,557.662 3132.5,555.5C 3131.5,556.167 3130.5,556.833 3129.5,557.5C 3126.59,553.982 3123.09,551.316 3119,549.5C 3118.29,547.029 3118.63,544.695 3120,542.5C 3122.91,540.132 3126.07,538.465 3129.5,537.5 Z"/></g>
<g><path style="opacity:1" fill="#1a1a1a" d="M 2531.5,540.5 C 2537.33,540.157 2539.83,542.824 2539,548.5C 2538.62,555.253 2535.45,557.419 2529.5,555C 2526.89,553.111 2524.06,551.611 2521,550.5C 2518.34,552.055 2516.17,551.555 2514.5,549C 2514.61,547.72 2515.28,546.887 2516.5,546.5C 2521.54,544.337 2526.54,542.337 2531.5,540.5 Z"/></g>
<g><path style="opacity:1" fill="#181818" d="M 2581.5,539.5 C 2589.83,539.5 2598.17,539.5 2606.5,539.5C 2606.5,547.167 2606.5,554.833 2606.5,562.5C 2598.17,562.5 2589.83,562.5 2581.5,562.5C 2581.5,554.833 2581.5,547.167 2581.5,539.5 Z"/></g>
<g><path style="opacity:1" fill="#181818" d="M 2621.5,539.5 C 2628.5,539.5 2635.5,539.5 2642.5,539.5C 2642.5,547.167 2642.5,554.833 2642.5,562.5C 2635.5,562.5 2628.5,562.5 2621.5,562.5C 2621.5,554.833 2621.5,547.167 2621.5,539.5 Z"/></g>
<g><path style="opacity:1" fill="#1b1b1b" d="M 2657.5,539.5 C 2664.17,539.334 2670.84,539.5 2677.5,540C 2678.83,547.333 2678.83,554.667 2677.5,562C 2670.84,562.5 2664.17,562.666 2657.5,562.5C 2657.5,554.833 2657.5,547.167 2657.5,539.5 Z"/></g>
<g><path style="opacity:1" fill="#1b1b1b" d="M 2693.5,539.5 C 2700.17,539.5 2706.83,539.5 2713.5,539.5C 2713.5,547.167 2713.5,554.833 2713.5,562.5C 2706.58,562.812 2699.74,562.479 2693,561.5C 2692.2,554.087 2692.37,546.754 2693.5,539.5 Z"/></g>
<g><path style="opacity:1" fill="#181818" d="M 2728.5,539.5 C 2735.5,539.5 2742.5,539.5 2749.5,539.5C 2749.5,547.167 2749.5,554.833 2749.5,562.5C 2742.5,562.5 2735.5,562.5 2728.5,562.5C 2728.5,554.833 2728.5,547.167 2728.5,539.5 Z"/></g>
<g><path style="opacity:1" fill="#191919" d="M 2764.5,539.5 C 2771.5,539.5 2778.5,539.5 2785.5,539.5C 2785.5,547.167 2785.5,554.833 2785.5,562.5C 2778.5,562.5 2771.5,562.5 2764.5,562.5C 2764.5,554.833 2764.5,547.167 2764.5,539.5 Z"/></g>
<g><path style="opacity:1" fill="#1c1c1c" d="M 2800.5,539.5 C 2807.84,539.334 2815.17,539.5 2822.5,540C 2823.65,547.086 2823.81,554.253 2823,561.5C 2815.58,562.647 2808.08,562.813 2800.5,562C 2799.18,554.5 2799.18,547 2800.5,539.5 Z"/></g>
<g><path style="opacity:1" fill="#191919" d="M 2837.5,539.5 C 2845.83,539.5 2854.17,539.5 2862.5,539.5C 2862.5,547.167 2862.5,554.833 2862.5,562.5C 2854.17,562.5 2845.83,562.5 2837.5,562.5C 2837.5,554.833 2837.5,547.167 2837.5,539.5 Z"/></g>
<g><path style="opacity:1" fill="#1b1b1b" d="M 2877.5,539.5 C 2884.17,539.5 2890.83,539.5 2897.5,539.5C 2897.5,547.167 2897.5,554.833 2897.5,562.5C 2890.58,562.812 2883.74,562.479 2877,561.5C 2876.2,554.087 2876.37,546.754 2877.5,539.5 Z"/></g>
<g><path style="opacity:1" fill="#191919" d="M 2912.5,539.5 C 2919.5,539.5 2926.5,539.5 2933.5,539.5C 2933.5,547.167 2933.5,554.833 2933.5,562.5C 2926.5,562.5 2919.5,562.5 2912.5,562.5C 2912.5,554.833 2912.5,547.167 2912.5,539.5 Z"/></g>
<g><path style="opacity:1" fill="#191919" d="M 2948.5,539.5 C 2955.5,539.5 2962.5,539.5 2969.5,539.5C 2969.5,547.167 2969.5,554.833 2969.5,562.5C 2962.5,562.5 2955.5,562.5 2948.5,562.5C 2948.5,554.833 2948.5,547.167 2948.5,539.5 Z"/></g>
<g><path style="opacity:1" fill="#1d1d1d" d="M 2984.5,539.5 C 2991.42,539.188 2998.26,539.521 3005,540.5C 3005.81,547.747 3005.65,554.914 3004.5,562C 2997.59,562.811 2990.75,562.645 2984,561.5C 2983.2,554.087 2983.37,546.754 2984.5,539.5 Z"/></g>
<g><path style="opacity:1" fill="#191919" d="M 3019.5,539.5 C 3026.5,539.5 3033.5,539.5 3040.5,539.5C 3040.5,547.167 3040.5,554.833 3040.5,562.5C 3033.5,562.5 3026.5,562.5 3019.5,562.5C 3019.5,554.833 3019.5,547.167 3019.5,539.5 Z"/></g>
<g><path style="opacity:1" fill="#1a1a1a" d="M 3055.5,539.5 C 3063.17,539.334 3070.84,539.5 3078.5,540C 3079.83,547.333 3079.83,554.667 3078.5,562C 3070.84,562.5 3063.17,562.666 3055.5,562.5C 3055.5,554.833 3055.5,547.167 3055.5,539.5 Z"/></g>
<g><path style="opacity:1" fill="#1b1b1b" d="M 2582.5,576.5 C 2590.5,576.5 2598.5,576.5 2606.5,576.5C 2606.5,583.5 2606.5,590.5 2606.5,597.5C 2601.73,596.522 2598.06,598.022 2595.5,602C 2591.17,602.667 2586.83,602.667 2582.5,602C 2581.18,593.5 2581.18,585 2582.5,576.5 Z"/></g>
<g><path style="opacity:1" fill="#1a1a1a" d="M 2621.5,576.5 C 2628.5,576.5 2635.5,576.5 2642.5,576.5C 2642.5,583.5 2642.5,590.5 2642.5,597.5C 2635.5,597.5 2628.5,597.5 2621.5,597.5C 2621.5,590.5 2621.5,583.5 2621.5,576.5 Z"/></g>
<g><path style="opacity:1" fill="#1d1d1d" d="M 2657.5,576.5 C 2664.17,576.334 2670.84,576.5 2677.5,577C 2678.48,583.744 2678.81,590.578 2678.5,597.5C 2671.5,597.5 2664.5,597.5 2657.5,597.5C 2657.5,590.5 2657.5,583.5 2657.5,576.5 Z"/></g>
<g><path style="opacity:1" fill="#1d1d1d" d="M 2693.5,576.5 C 2700.17,576.5 2706.83,576.5 2713.5,576.5C 2713.5,583.5 2713.5,590.5 2713.5,597.5C 2706.5,597.5 2699.5,597.5 2692.5,597.5C 2692.2,590.412 2692.54,583.412 2693.5,576.5 Z"/></g>
<g><path style="opacity:1" fill="#1a1a1a" d="M 2728.5,576.5 C 2735.5,576.5 2742.5,576.5 2749.5,576.5C 2749.5,583.5 2749.5,590.5 2749.5,597.5C 2742.5,597.5 2735.5,597.5 2728.5,597.5C 2728.5,590.5 2728.5,583.5 2728.5,576.5 Z"/></g>
<g><path style="opacity:1" fill="#1a1a1a" d="M 2764.5,576.5 C 2771.17,576.334 2777.84,576.5 2784.5,577C 2785.48,583.744 2785.81,590.578 2785.5,597.5C 2778.5,597.5 2771.5,597.5 2764.5,597.5C 2764.5,590.5 2764.5,583.5 2764.5,576.5 Z"/></g>
<g><path style="opacity:1" fill="#1e1e1e" d="M 2800.5,576.5 C 2807.84,576.334 2815.17,576.5 2822.5,577C 2823.48,583.744 2823.81,590.578 2823.5,597.5C 2815.5,597.5 2807.5,597.5 2799.5,597.5C 2799.2,590.412 2799.54,583.412 2800.5,576.5 Z"/></g>
<g><path style="opacity:1" fill="#1b1b1b" d="M 2838.5,576.5 C 2846.17,576.334 2853.84,576.5 2861.5,577C 2862.48,583.744 2862.81,590.578 2862.5,597.5C 2854.17,597.5 2845.83,597.5 2837.5,597.5C 2837.2,590.412 2837.54,583.412 2838.5,576.5 Z"/></g>
<g><path style="opacity:1" fill="#1d1d1d" d="M 2877.5,576.5 C 2884.17,576.5 2890.83,576.5 2897.5,576.5C 2897.5,583.5 2897.5,590.5 2897.5,597.5C 2890.5,597.5 2883.5,597.5 2876.5,597.5C 2876.2,590.412 2876.54,583.412 2877.5,576.5 Z"/></g>
<g><path style="opacity:1" fill="#1a1a1a" d="M 2913.5,576.5 C 2920.17,576.5 2926.83,576.5 2933.5,576.5C 2933.5,583.5 2933.5,590.5 2933.5,597.5C 2926.5,597.5 2919.5,597.5 2912.5,597.5C 2912.2,590.412 2912.54,583.412 2913.5,576.5 Z"/></g>
<g><path style="opacity:1" fill="#1a1a1a" d="M 2948.5,576.5 C 2955.17,576.334 2961.84,576.5 2968.5,577C 2969.48,583.744 2969.81,590.578 2969.5,597.5C 2962.5,597.5 2955.5,597.5 2948.5,597.5C 2948.5,590.5 2948.5,583.5 2948.5,576.5 Z"/></g>
<g><path style="opacity:1" fill="#1f1f1f" d="M 2984.5,576.5 C 2991.17,576.334 2997.84,576.5 3004.5,577C 3005.48,583.744 3005.81,590.578 3005.5,597.5C 2998.17,597.5 2990.83,597.5 2983.5,597.5C 2983.2,590.412 2983.54,583.412 2984.5,576.5 Z"/></g>
<g><path style="opacity:1" fill="#1a1a1a" d="M 3020.5,576.5 C 3027.17,576.5 3033.83,576.5 3040.5,576.5C 3040.5,583.5 3040.5,590.5 3040.5,597.5C 3033.5,597.5 3026.5,597.5 3019.5,597.5C 3019.2,590.412 3019.54,583.412 3020.5,576.5 Z"/></g>
<g><path style="opacity:1" fill="#1d1d1d" d="M 3055.5,576.5 C 3063.17,576.334 3070.84,576.5 3078.5,577C 3079.83,585.333 3079.83,593.667 3078.5,602C 3074.5,602.667 3070.5,602.667 3066.5,602C 3063.98,598.02 3060.32,596.52 3055.5,597.5C 3055.5,590.5 3055.5,583.5 3055.5,576.5 Z"/></g>
<g><path style="opacity:1" fill="#191919" d="M 2581.5,607.5 C 2586.18,607.334 2590.85,607.501 2595.5,608C 2598.25,611.707 2601.92,613.207 2606.5,612.5C 2606.69,615.877 2608.19,618.544 2611,620.5C 2611.5,626.825 2611.67,633.158 2611.5,639.5C 2601.5,639.5 2591.5,639.5 2581.5,639.5C 2581.5,628.833 2581.5,618.167 2581.5,607.5 Z"/></g>
<g><path style="opacity:1" fill="#1a1a1a" d="M 3066.5,607.5 C 3070.83,607.5 3075.17,607.5 3079.5,607.5C 3079.5,618.167 3079.5,628.833 3079.5,639.5C 3069.83,639.5 3060.17,639.5 3050.5,639.5C 3050.33,633.158 3050.5,626.825 3051,620.5C 3053.81,618.544 3055.31,615.877 3055.5,612.5C 3060.34,613.244 3064.01,611.578 3066.5,607.5 Z"/></g>
<g><path style="opacity:1" fill="#181818" d="M 2621.5,612.5 C 2628.5,612.5 2635.5,612.5 2642.5,612.5C 2642.5,621.5 2642.5,630.5 2642.5,639.5C 2633.83,639.5 2625.17,639.5 2616.5,639.5C 2616.17,632.8 2616.5,626.134 2617.5,619.5C 2620.12,617.919 2621.46,615.585 2621.5,612.5 Z"/></g>
<g><path style="opacity:1" fill="#1a1a1a" d="M 2657.5,612.5 C 2664.5,612.5 2671.5,612.5 2678.5,612.5C 2678.5,621.5 2678.5,630.5 2678.5,639.5C 2671.5,639.5 2664.5,639.5 2657.5,639.5C 2657.5,630.5 2657.5,621.5 2657.5,612.5 Z"/></g>
<g><path style="opacity:1" fill="#1a1a1a" d="M 2692.5,612.5 C 2699.86,612.169 2707.2,612.503 2714.5,613.5C 2715.48,614.981 2716.65,616.315 2718,617.5C 2718.5,624.826 2718.67,632.159 2718.5,639.5C 2709.83,639.5 2701.17,639.5 2692.5,639.5C 2692.5,630.5 2692.5,621.5 2692.5,612.5 Z"/></g>
<g><path style="opacity:1" fill="#181818" d="M 2727.5,612.5 C 2734.83,612.5 2742.17,612.5 2749.5,612.5C 2749.5,620.167 2749.5,627.833 2749.5,635.5C 2746.2,635.016 2743.54,636.016 2741.5,638.5C 2735.54,639.496 2729.54,639.829 2723.5,639.5C 2723.33,632.159 2723.5,624.826 2724,617.5C 2725.8,616.211 2726.97,614.544 2727.5,612.5 Z"/></g>
<g><path style="opacity:1" fill="#181818" d="M 2764.5,612.5 C 2771.5,612.5 2778.5,612.5 2785.5,612.5C 2785.5,620.167 2785.5,627.833 2785.5,635.5C 2778.5,635.5 2771.5,635.5 2764.5,635.5C 2764.5,627.833 2764.5,620.167 2764.5,612.5 Z"/></g>
<g><path style="opacity:1" fill="#1c1c1c" d="M 2799.5,612.5 C 2807.5,612.5 2815.5,612.5 2823.5,612.5C 2823.67,619.841 2823.5,627.174 2823,634.5C 2815.33,635.833 2807.67,635.833 2800,634.5C 2799.5,627.174 2799.33,619.841 2799.5,612.5 Z"/></g>
<g><path style="opacity:1" fill="#181818" d="M 2837.5,612.5 C 2845.83,612.5 2854.17,612.5 2862.5,612.5C 2862.5,620.167 2862.5,627.833 2862.5,635.5C 2854.17,635.5 2845.83,635.5 2837.5,635.5C 2837.5,627.833 2837.5,620.167 2837.5,612.5 Z"/></g>
<g><path style="opacity:1" fill="#1a1a1a" d="M 2876.5,612.5 C 2883.5,612.5 2890.5,612.5 2897.5,612.5C 2897.5,620.167 2897.5,627.833 2897.5,635.5C 2890.58,635.812 2883.74,635.479 2877,634.5C 2876.5,627.174 2876.33,619.841 2876.5,612.5 Z"/></g>
<g><path style="opacity:1" fill="#1a1a1a" d="M 2912.5,612.5 C 2919.86,612.169 2927.2,612.503 2934.5,613.5C 2935.48,614.981 2936.65,616.315 2938,617.5C 2938.5,624.826 2938.67,632.159 2938.5,639.5C 2932.16,639.666 2925.82,639.5 2919.5,639C 2917.93,636.259 2915.6,635.092 2912.5,635.5C 2912.5,627.833 2912.5,620.167 2912.5,612.5 Z"/></g>
<g><path style="opacity:1" fill="#181818" d="M 2947.5,612.5 C 2954.83,612.5 2962.17,612.5 2969.5,612.5C 2969.5,621.5 2969.5,630.5 2969.5,639.5C 2960.83,639.5 2952.17,639.5 2943.5,639.5C 2943.33,632.159 2943.5,624.826 2944,617.5C 2945.8,616.211 2946.97,614.544 2947.5,612.5 Z"/></g>
<g><path style="opacity:1" fill="#1d1d1d" d="M 2983.5,612.5 C 2990.83,612.5 2998.17,612.5 3005.5,612.5C 3005.5,621.5 3005.5,630.5 3005.5,639.5C 2998.17,639.5 2990.83,639.5 2983.5,639.5C 2983.5,630.5 2983.5,621.5 2983.5,612.5 Z"/></g>
<g><path style="opacity:1" fill="#181818" d="M 3019.5,612.5 C 3026.5,612.5 3033.5,612.5 3040.5,612.5C 3040.69,615.877 3042.19,618.544 3045,620.5C 3045.5,626.825 3045.67,633.158 3045.5,639.5C 3036.83,639.5 3028.17,639.5 3019.5,639.5C 3019.5,630.5 3019.5,621.5 3019.5,612.5 Z"/></g>
<g><path style="opacity:1" fill="#1a1a1a" d="M 2581.5,645.5 C 2591.5,645.5 2601.5,645.5 2611.5,645.5C 2611.5,656.167 2611.5,666.833 2611.5,677.5C 2601.5,677.5 2591.5,677.5 2581.5,677.5C 2581.5,666.833 2581.5,656.167 2581.5,645.5 Z"/></g>
<g><path style="opacity:1" fill="#181818" d="M 2616.5,645.5 C 2625.19,645.169 2633.86,645.502 2642.5,646.5C 2643.17,648.517 2644.34,650.183 2646,651.5C 2646.5,660.16 2646.67,668.827 2646.5,677.5C 2636.5,677.5 2626.5,677.5 2616.5,677.5C 2616.5,666.833 2616.5,656.167 2616.5,645.5 Z"/></g>
<g><path style="opacity:1" fill="#181818" d="M 2656.5,645.5 C 2663.83,645.5 2671.17,645.5 2678.5,645.5C 2677.62,650.226 2678.78,654.226 2682,657.5C 2682.5,664.158 2682.67,670.825 2682.5,677.5C 2672.5,677.5 2662.5,677.5 2652.5,677.5C 2652.17,668.808 2652.5,660.141 2653.5,651.5C 2655.55,650.061 2656.55,648.061 2656.5,645.5 Z"/></g>
<g><path style="opacity:1" fill="#191919" d="M 2692.5,645.5 C 2701.17,645.5 2709.83,645.5 2718.5,645.5C 2718.5,656.167 2718.5,666.833 2718.5,677.5C 2708.17,677.5 2697.83,677.5 2687.5,677.5C 2687.33,671.158 2687.5,664.825 2688,658.5C 2692.11,655.182 2693.61,650.849 2692.5,645.5 Z"/></g>
<g><path style="opacity:1" fill="#1a1a1a" d="M 2723.5,645.5 C 2729.18,645.334 2734.84,645.501 2740.5,646C 2741.5,647 2742.5,648 2743.5,649C 2747.09,649.207 2750.59,649.707 2754,650.5C 2754.5,659.494 2754.67,668.494 2754.5,677.5C 2744.17,677.5 2733.83,677.5 2723.5,677.5C 2723.5,666.833 2723.5,656.167 2723.5,645.5 Z"/></g>
<g><path style="opacity:1" fill="#1a1a1a" d="M 2919.5,645.5 C 2925.83,645.5 2932.17,645.5 2938.5,645.5C 2938.5,656.167 2938.5,666.833 2938.5,677.5C 2928.17,677.5 2917.83,677.5 2907.5,677.5C 2907.33,668.494 2907.5,659.494 2908,650.5C 2910.74,649.718 2913.57,649.218 2916.5,649C 2917.71,647.961 2918.71,646.794 2919.5,645.5 Z"/></g>
<g><path style="opacity:1" fill="#181818" d="M 2943.5,645.5 C 2952.17,645.5 2960.83,645.5 2969.5,645.5C 2968.62,650.226 2969.78,654.226 2973,657.5C 2973.5,664.158 2973.67,670.825 2973.5,677.5C 2963.5,677.5 2953.5,677.5 2943.5,677.5C 2943.5,666.833 2943.5,656.167 2943.5,645.5 Z"/></g>
<g><path style="opacity:1" fill="#181818" d="M 2983.5,645.5 C 2990.83,645.5 2998.17,645.5 3005.5,645.5C 3005.45,648.061 3006.45,650.061 3008.5,651.5C 3009.5,660.141 3009.83,668.808 3009.5,677.5C 2999.5,677.5 2989.5,677.5 2979.5,677.5C 2979.33,670.825 2979.5,664.158 2980,657.5C 2981.33,656.833 2982.33,655.833 2983,654.5C 2983.5,651.518 2983.66,648.518 2983.5,645.5 Z"/></g>
<g><path style="opacity:1" fill="#191919" d="M 3019.5,645.5 C 3028.17,645.5 3036.83,645.5 3045.5,645.5C 3045.5,656.167 3045.5,666.833 3045.5,677.5C 3035.17,677.5 3024.83,677.5 3014.5,677.5C 3014.33,669.16 3014.5,660.827 3015,652.5C 3017.58,650.772 3019.08,648.439 3019.5,645.5 Z"/></g>
<g><path style="opacity:1" fill="#1a1a1a" d="M 3050.5,645.5 C 3060.17,645.5 3069.83,645.5 3079.5,645.5C 3079.5,656.167 3079.5,666.833 3079.5,677.5C 3069.83,677.5 3060.17,677.5 3050.5,677.5C 3050.5,666.833 3050.5,656.167 3050.5,645.5 Z"/></g>
<g><path style="opacity:1" fill="#1a1a1a" d="M 2760.5,649.5 C 2768.51,649.334 2776.51,649.5 2784.5,650C 2785.48,657.413 2785.81,664.913 2785.5,672.5C 2782.11,672.511 2779.44,673.845 2777.5,676.5C 2771.54,677.496 2765.54,677.829 2759.5,677.5C 2759.19,668.083 2759.53,658.75 2760.5,649.5 Z"/></g>
<g><path style="opacity:1" fill="#1e1e1e" d="M 2800.5,649.5 C 2807.84,649.334 2815.17,649.5 2822.5,650C 2823.48,657.413 2823.81,664.913 2823.5,672.5C 2815.5,672.5 2807.5,672.5 2799.5,672.5C 2799.2,664.747 2799.53,657.08 2800.5,649.5 Z"/></g>
<g><path style="opacity:1" fill="#1a1a1a" d="M 2838.5,649.5 C 2846.17,649.334 2853.84,649.5 2861.5,650C 2862.48,657.413 2862.81,664.913 2862.5,672.5C 2854.17,672.5 2845.83,672.5 2837.5,672.5C 2837.2,664.747 2837.53,657.08 2838.5,649.5 Z"/></g>
<g><path style="opacity:1" fill="#1c1c1c" d="M 2877.5,649.5 C 2885.75,649.184 2893.92,649.518 2902,650.5C 2902.5,659.494 2902.67,668.494 2902.5,677.5C 2896.49,677.666 2890.49,677.499 2884.5,677C 2882.54,674.19 2879.88,672.69 2876.5,672.5C 2876.2,664.747 2876.53,657.08 2877.5,649.5 Z"/></g>
<g><path style="opacity:1" fill="#1a1a1a" d="M 2581.5,683.5 C 2591.5,683.5 2601.5,683.5 2611.5,683.5C 2611.5,694.167 2611.5,704.833 2611.5,715.5C 2601.5,715.5 2591.5,715.5 2581.5,715.5C 2581.5,704.833 2581.5,694.167 2581.5,683.5 Z"/></g>
<g><path style="opacity:1" fill="#171817" d="M 2616.5,683.5 C 2626.5,683.5 2636.5,683.5 2646.5,683.5C 2646.5,694.167 2646.5,704.833 2646.5,715.5C 2636.5,715.5 2626.5,715.5 2616.5,715.5C 2616.5,704.833 2616.5,694.167 2616.5,683.5 Z"/></g>
<g><path style="opacity:1" fill="#171817" d="M 2652.5,683.5 C 2662.5,683.5 2672.5,683.5 2682.5,683.5C 2682.5,694.167 2682.5,704.833 2682.5,715.5C 2672.5,715.5 2662.5,715.5 2652.5,715.5C 2652.5,704.833 2652.5,694.167 2652.5,683.5 Z"/></g>
<g><path style="opacity:1" fill="#1a1a1a" d="M 2687.5,683.5 C 2697.83,683.5 2708.17,683.5 2718.5,683.5C 2718.5,694.167 2718.5,704.833 2718.5,715.5C 2708.17,715.5 2697.83,715.5 2687.5,715.5C 2687.5,704.833 2687.5,694.167 2687.5,683.5 Z"/></g>
<g><path style="opacity:1" fill="#1a1a1a" d="M 2723.5,683.5 C 2733.83,683.5 2744.17,683.5 2754.5,683.5C 2754.5,694.167 2754.5,704.833 2754.5,715.5C 2744.17,715.5 2733.83,715.5 2723.5,715.5C 2723.5,704.833 2723.5,694.167 2723.5,683.5 Z"/></g>
<g><path style="opacity:1" fill="#181818" d="M 2759.5,683.5 C 2765.51,683.334 2771.51,683.501 2777.5,684C 2779.57,686.534 2782.24,687.701 2785.5,687.5C 2785.5,695.5 2785.5,703.5 2785.5,711.5C 2782.24,711.299 2779.57,712.466 2777.5,715C 2771.51,715.499 2765.51,715.666 2759.5,715.5C 2759.5,704.833 2759.5,694.167 2759.5,683.5 Z"/></g>
<g><path style="opacity:1" fill="#1a1a1a" d="M 2883.5,683.5 C 2889.83,683.5 2896.17,683.5 2902.5,683.5C 2902.5,694.167 2902.5,704.833 2902.5,715.5C 2893.27,716.649 2884.77,714.982 2877,710.5C 2876.5,702.841 2876.33,695.174 2876.5,687.5C 2879.81,687.851 2882.14,686.518 2883.5,683.5 Z"/></g>
<g><path style="opacity:1" fill="#1a1a1a" d="M 2907.5,683.5 C 2917.83,683.5 2928.17,683.5 2938.5,683.5C 2938.5,694.167 2938.5,704.833 2938.5,715.5C 2928.17,715.5 2917.83,715.5 2907.5,715.5C 2907.5,704.833 2907.5,694.167 2907.5,683.5 Z"/></g>
<g><path style="opacity:1" fill="#171817" d="M 2943.5,683.5 C 2953.5,683.5 2963.5,683.5 2973.5,683.5C 2973.5,694.167 2973.5,704.833 2973.5,715.5C 2963.5,715.5 2953.5,715.5 2943.5,715.5C 2943.5,704.833 2943.5,694.167 2943.5,683.5 Z"/></g>
<g><path style="opacity:1" fill="#171817" d="M 2979.5,683.5 C 2989.5,683.5 2999.5,683.5 3009.5,683.5C 3009.5,694.167 3009.5,704.833 3009.5,715.5C 2999.5,715.5 2989.5,715.5 2979.5,715.5C 2979.5,704.833 2979.5,694.167 2979.5,683.5 Z"/></g>
<g><path style="opacity:1" fill="#1a1a1a" d="M 3014.5,683.5 C 3024.83,683.5 3035.17,683.5 3045.5,683.5C 3045.5,694.167 3045.5,704.833 3045.5,715.5C 3035.17,715.5 3024.83,715.5 3014.5,715.5C 3014.5,704.833 3014.5,694.167 3014.5,683.5 Z"/></g>
<g><path style="opacity:1" fill="#1a1a1a" d="M 3050.5,683.5 C 3060.17,683.5 3069.83,683.5 3079.5,683.5C 3079.5,694.167 3079.5,704.833 3079.5,715.5C 3069.83,715.5 3060.17,715.5 3050.5,715.5C 3050.5,704.833 3050.5,694.167 3050.5,683.5 Z"/></g>
<g><path style="opacity:1" fill="#1c1c1c" d="M 2799.5,687.5 C 2807.5,687.5 2815.5,687.5 2823.5,687.5C 2823.67,695.174 2823.5,702.841 2823,710.5C 2815.33,711.833 2807.67,711.833 2800,710.5C 2799.5,702.841 2799.33,695.174 2799.5,687.5 Z"/></g>
<g><path style="opacity:1" fill="#181818" d="M 2837.5,687.5 C 2845.83,687.5 2854.17,687.5 2862.5,687.5C 2862.5,695.5 2862.5,703.5 2862.5,711.5C 2854.17,711.5 2845.83,711.5 2837.5,711.5C 2837.5,703.5 2837.5,695.5 2837.5,687.5 Z"/></g>
<g><path style="opacity:1" fill="#1c1c1c" d="M 2582.5,720.5 C 2591.84,720.334 2601.17,720.5 2610.5,721C 2611.48,729.081 2611.82,737.248 2611.5,745.5C 2601.5,745.5 2591.5,745.5 2581.5,745.5C 2581.2,737.082 2581.53,728.748 2582.5,720.5 Z"/></g>
<g><path style="opacity:1" fill="#1a1a1a" d="M 2616.5,720.5 C 2626.5,720.5 2636.5,720.5 2646.5,720.5C 2646.5,728.833 2646.5,737.167 2646.5,745.5C 2636.5,745.5 2626.5,745.5 2616.5,745.5C 2616.5,737.167 2616.5,728.833 2616.5,720.5 Z"/></g>
<g><path style="opacity:1" fill="#1a1a1a" d="M 2652.5,720.5 C 2662.5,720.5 2672.5,720.5 2682.5,720.5C 2682.5,728.833 2682.5,737.167 2682.5,745.5C 2672.5,745.5 2662.5,745.5 2652.5,745.5C 2652.5,737.167 2652.5,728.833 2652.5,720.5 Z"/></g>
<g><path style="opacity:1" fill="#1c1c1c" d="M 2688.5,720.5 C 2698.17,720.334 2707.84,720.5 2717.5,721C 2718.48,729.081 2718.82,737.248 2718.5,745.5C 2708.17,745.5 2697.83,745.5 2687.5,745.5C 2687.2,737.082 2687.53,728.748 2688.5,720.5 Z"/></g>
<g><path style="opacity:1" fill="#1c1c1c" d="M 2724.5,720.5 C 2734.17,720.334 2743.84,720.5 2753.5,721C 2754.48,729.081 2754.82,737.248 2754.5,745.5C 2744.17,745.5 2733.83,745.5 2723.5,745.5C 2723.2,737.082 2723.53,728.748 2724.5,720.5 Z"/></g>
<g><path style="opacity:1" fill="#191919" d="M 2759.5,720.5 C 2765.18,720.334 2770.84,720.501 2776.5,721C 2778.53,724.349 2781.53,726.183 2785.5,726.5C 2785.5,732.833 2785.5,739.167 2785.5,745.5C 2776.83,745.5 2768.17,745.5 2759.5,745.5C 2759.5,737.167 2759.5,728.833 2759.5,720.5 Z"/></g>
<g><path style="opacity:1" fill="#1b1b1b" d="M 2884.5,720.5 C 2890.43,720.192 2896.26,720.525 2902,721.5C 2902.5,729.493 2902.67,737.493 2902.5,745.5C 2893.83,745.5 2885.17,745.5 2876.5,745.5C 2876.17,739.132 2876.5,732.798 2877.5,726.5C 2881.09,725.912 2883.42,723.912 2884.5,720.5 Z"/></g>
<g><path style="opacity:1" fill="#1c1c1c" d="M 2908.5,720.5 C 2918.17,720.334 2927.84,720.5 2937.5,721C 2938.48,729.081 2938.82,737.248 2938.5,745.5C 2928.17,745.5 2917.83,745.5 2907.5,745.5C 2907.2,737.082 2907.53,728.748 2908.5,720.5 Z"/></g>
<g><path style="opacity:1" fill="#1a1a1a" d="M 2943.5,720.5 C 2953.5,720.5 2963.5,720.5 2973.5,720.5C 2973.5,728.833 2973.5,737.167 2973.5,745.5C 2963.5,745.5 2953.5,745.5 2943.5,745.5C 2943.5,737.167 2943.5,728.833 2943.5,720.5 Z"/></g>
<g><path style="opacity:1" fill="#1a1a1a" d="M 2979.5,720.5 C 2989.5,720.5 2999.5,720.5 3009.5,720.5C 3009.5,728.833 3009.5,737.167 3009.5,745.5C 2999.5,745.5 2989.5,745.5 2979.5,745.5C 2979.5,737.167 2979.5,728.833 2979.5,720.5 Z"/></g>
<g><path style="opacity:1" fill="#1c1c1c" d="M 3015.5,720.5 C 3025.17,720.334 3034.84,720.5 3044.5,721C 3045.48,729.081 3045.82,737.248 3045.5,745.5C 3035.17,745.5 3024.83,745.5 3014.5,745.5C 3014.2,737.082 3014.53,728.748 3015.5,720.5 Z"/></g>
<g><path style="opacity:1" fill="#1c1c1c" d="M 3051.5,720.5 C 3060.51,720.334 3069.51,720.5 3078.5,721C 3079.48,729.081 3079.82,737.248 3079.5,745.5C 3069.83,745.5 3060.17,745.5 3050.5,745.5C 3050.2,737.082 3050.53,728.748 3051.5,720.5 Z"/></g>
<g><path style="opacity:1" fill="#1c1c1c" d="M 2799.5,726.5 C 2807.5,726.5 2815.5,726.5 2823.5,726.5C 2823.5,732.833 2823.5,739.167 2823.5,745.5C 2815.5,745.5 2807.5,745.5 2799.5,745.5C 2799.5,739.167 2799.5,732.833 2799.5,726.5 Z"/></g>
<g><path style="opacity:1" fill="#181818" d="M 2837.5,726.5 C 2845.83,726.5 2854.17,726.5 2862.5,726.5C 2862.5,732.833 2862.5,739.167 2862.5,745.5C 2854.17,745.5 2845.83,745.5 2837.5,745.5C 2837.5,739.167 2837.5,732.833 2837.5,726.5 Z"/></g>
<g><path style="opacity:0.988" fill="#242424" d="M 1234.5,721.5 C 1234.5,744.833 1234.5,768.167 1234.5,791.5C 1291.83,791.5 1349.17,791.5 1406.5,791.5C 1406.5,768.167 1406.5,744.833 1406.5,721.5C 1407.5,744.994 1407.83,768.661 1407.5,792.5C 1349.5,792.5 1291.5,792.5 1233.5,792.5C 1233.17,768.661 1233.5,744.994 1234.5,721.5 Z"/></g>
<g><path style="opacity:1" fill="#2f302f" d="M -0.5,938.5 C 1110.5,938.5 2221.5,938.5 3332.5,938.5C 3332.5,952.167 3332.5,965.833 3332.5,979.5C 2221.5,979.5 1110.5,979.5 -0.5,979.5C -0.5,965.833 -0.5,952.167 -0.5,938.5 Z"/></g>
</svg>
