<?xml version="1.0" encoding="UTF-8" standalone="no"?>
<!-- Generator: Adobe Illustrator 13.0.0, SVG Export Plug-In . SVG Version: 6.00 Build 14948)  -->
<svg id="Capa_1" xmlns:rdf="http://www.w3.org/1999/02/22-rdf-syntax-ns#" xmlns="http://www.w3.org/2000/svg" enable-background="new 0 0 566.929 566.929" xml:space="preserve" height="566.93px" viewBox="0 0 566.929 566.929" width="566.93px" version="1.1" y="0px" x="0px" xmlns:cc="http://creativecommons.org/ns#" xmlns:dc="http://purl.org/dc/elements/1.1/"><metadata id="metadata384"><rdf:RDF><cc:Work rdf:about=""><dc:format>image/svg+xml</dc:format><dc:type rdf:resource="http://purl.org/dc/dcmitype/StillImage"/><dc:title/></cc:Work></rdf:RDF></metadata><rect id="rect236" y="-107.23" x="-18.802" height="781.38" width="2032.5"/><g id="g238" fill="#fff" clip-rule="evenodd" fill-rule="evenodd"><path id="path240" d="m274.49 63.536c70.478-3.354 125.09 24.768 160.29 59.263 35.767 35.058 65.876 82.606 69.103 150.11 1.73 36.488-5.55 67.606-16.135 93.635-21.064 51.68-56.788 89.622-105.23 113.98-24.554 12.337-52.633 20.899-86.613 22.796-70.411 3.924-124.2-25.75-159.91-58.927-37.026-34.387-65.162-83.102-69.096-150.1-2.089-35.543 5.363-68.687 15.434-93.633 10.821-26.855 24.717-47.925 42.433-66.986 29.968-32.248 70.134-58.139 124.15-67.68 8.41-1.496 17.55-2.075 25.58-2.454zm-77.49 27.7c-47.295 22.521-83.471 58.746-104.15 106.61-10.964 25.339-17.759 54.298-17.537 87.335 0.436 66.585 28.293 114.92 62.086 148.69 34.151 34.179 82.777 61.021 149.74 61.021 65.584 0 113.14-28.613 147.65-63.121 17.643-17.64 31.512-38.036 42.448-62.768 10.785-24.411 18.91-53.311 18.222-87.326-0.644-32.771-7.716-61.353-18.923-86.283-21.4-47.583-57.711-83.421-105.58-105.21-23.652-10.771-54.993-19.004-87.32-18.238-34.33 0.82-62.48 7.778-86.64 19.294z"/><path id="path242" d="m285.73 96.843c0.014 0 0.114-0.307 0.35-0.35 15.521-2.074 16.708 19.432 4.199 21.398-15.46 2.43-18.24-18.6-4.55-21.047z"/><path id="path244" d="m291.35 281.68c30.21 0.127 51.624-11.308 69.417-29.118 8.254-8.225 15.521-16.706 21.4-27.713 7.115-13.281 14.568-35.145 7.023-51.888-4.091-9.097-12.83-16.157-26.655-14.733-10.528 1.072-18.173 8.16-23.509 14.032 9.955 2.233 18.438 3.419 22.442 11.221 6.852 13.319-6.508 33.201-22.778 28.401-11.722-3.446-22.665-22.7-14.04-38.234 11.149-20.068 49.512-31.17 71.556-13.325 14.197 11.508 24.853 34.709 17.881 59.276-5.587 19.697-20.628 35.023-35.432 45.938-7.531 5.58-15.728 10.642-25.583 15.077-9.191 4.136-19.919 8.409-32.272 8.425-10.168 0-17.507-2.71-30.532-1.057 2.074 6.155 7.174 10.829 11.235 15.781 11.887 14.54 27.293 26.005 49.1 31.571 28.68 7.317 72.615 3.676 83.814-16.842 7.174-13.095-0.357-26.155-8.052-33.664-4.929-4.808-10.964-9.994-19.648-8.062 1.402 5.783 6.695 13.254 3.154 21.4-7.188 16.492-34.944 11.17-36.818-6.332-2.088-19.424 20.025-32.484 38.921-26.298 12.688 4.169 20.864 12.659 27.364 23.501 5.807 9.697 10.571 25.675 5.249 40.325-5.907 16.355-20.976 27.619-35.416 33.676-8.977 3.763-18.067 5.679-29.102 4.207-9.499-1.257-18.66-4.332-26.657-7.718-16.083-6.795-30.245-15.79-42.097-27.007-11.771-11.154-21.048-22.686-26.985-41.731-7.81 9.906-12.559 24.246-13.344 39.98-1.497 31.15 11.543 63.141 26.312 81.02 8.682 10.499 27.364 23.539 44.887 15.07 12.494-6.044 20.039-26.075 11.584-41.382-8.431 4.191-12.973 18.508-27.356 12.278-10.792-4.682-15.77-24.195-4.212-32.6 6.05-4.427 18.931-6.033 27.7-1.438 10.606 5.608 15.713 18.574 14.735 34.74-1.489 24.445-16.695 43.185-39.287 46.652-26.915 4.12-46.69-9.964-57.519-27.022-11.1-17.485-16.42-45.965-13.317-70.481 3.319-26.076 10.536-44.823 24.202-61.021-33.957-1.104-55.235 13.837-73.315 31.905-8.29 8.311-15.626 19.088-21.033 31.92-5 11.893-9.299 30.318-3.498 43.475 2.445 5.585 7.702 11.445 13.682 14.054 15.42 6.661 31.547-3.052 37.497-13.347-11.308-2.529-23.666-5.271-23.831-18.923-0.179-13.932 15.027-25.589 28.766-17.545 5.528 3.236 11.035 11.167 11.915 19.642 0.788 7.601-2.396 15.511-4.897 19.289-7.296 10.907-22.337 18.817-37.535 19.983-25.217 1.952-40.488-14.669-47.697-32.258-8.782-21.449-2.924-45.71 8.769-61.727 11.272-15.417 28.401-26.206 46.295-33.68 18.652-7.769 38.636-14.226 66.637-10.157-14.37-27.399-54.084-57.76-103.82-50.143-16.064 2.459-33.851 8.726-40.667 20.326-6.137 10.412-0.866 25.282 5.249 32.627 5.271 6.302 11.795 10.155 22.437 10.155-0.644-6.163-4.507-9.332-4.199-17.178 0.458-11.543 10.07-18.13 21.735-16.479 15.19 2.139 21.098 22.221 10.878 34.725-4.635 5.671-14.097 10.84-25.948 9.803-14.625-1.257-25.125-10.22-31.918-19.273-6.889-9.212-12.618-22.889-9.813-38.923 2.475-14.153 9.562-23.916 19.633-31.563 9.534-7.266 22.507-13.26 37.519-13.338 27.429-0.149 50.302 13.869 65.592 25.599 17.358 13.344 30.854 27.922 38.921 51.894 18.39-20.97 15.198-59.477 5.615-87.661-5.027-14.792-10.263-25.291-18.945-35.783-7.745-9.354-22.873-22.193-39.987-17.18-14.605 4.277-25.133 26.685-16.465 43.507 5.558-7.588 14.998-16.628 27.716-11.235 6.078 2.575 12.786 10.986 11.2 21.728-2.125 14.503-22.028 21.148-35.418 12.995-8.403-5.122-13.317-17.372-14.031-28.758-1.711-27.6 15.011-50.551 41.396-52.617 42.14-3.276 61.986 25.561 68.037 59.625 3.555 20.041 1.332 39.996-3.517 56.816-4.79 16.78-12.26 31.09-20.3 42.78z"/><path id="path246" d="m316.94 130.52c6.814-1.294 12.337 4.377 12.981 10.178 0.715 6.514-4.585 12.494-8.782 13.309-14.25 2.83-18.72-20.73-4.2-23.49z"/><path id="path248" d="m179.82 171.9c16.901-2.496 15.206 22.559 1.053 22.45-5.701-0.049-11.272-5.006-11.224-11.922 0.03-6.21 4.45-9.69 10.17-10.53z"/><path id="path250" d="m133.52 181.02c10.927-2.023 16.135 10.549 10.87 18.589-2.718 4.14-11.3 5.613-16.135 2.102-7.65-5.56-2.76-19.22 5.26-20.69z"/><path id="path252" d="m438.64 187.33c4.391-0.22 10.084 4.607 10.864 9.128 2.09 11.928-12.044 15.862-17.878 11.221-7.82-6.23-3.92-19.81 7.02-20.35z"/><path id="path254" d="m421.46 232.93c14.146-2.783 16.75 17.757 5.964 21.734-7.759 2.854-16.471-3.661-14.383-14.018 0.74-3.7 3.28-6.71 8.42-7.71z"/><path id="path256" d="m144.74 313.22c9.24-1.803 16.579 8.817 11.565 17.898-4.792 8.7-18.725 4.014-19.968-4.568-1.11-7.52 2.86-12.24 8.41-13.33z"/><path id="path258" d="m131.08 358.47c15.176-2.769 16.565 23.7 0 22.451-4.562-0.354-10.713-4.643-10.185-12.282 0.37-5.44 5.08-9.23 10.18-10.17z"/><path id="path260" d="m431.63 365.15c7.867-1.658 15.683 4.077 14.031 12.961-1.359 7.274-14.147 11.445-19.99 4.914-5.46-6.08-1.87-16.25 5.96-17.87z"/><path id="path262" d="m388.14 373.91c1.229-0.07 4.02 0.13 5.25 0.703 8.711 3.963 7.91 20.542-4.9 20.683-4.134 0.055-10.685-1.968-11.586-8.771-1.02-7.83 4.62-12.2 11.24-12.61z"/><path id="path264" d="m249.61 414.23c8.167-1.375 15.32 4.355 12.981 13.33-2.38 9.062-18.709 10.837-21.75 0.342-1.89-6.54 1.31-12.41 8.77-13.67z"/><path id="path266" d="m281.53 449.31c7.138-1.383 14.97 5.612 11.915 15.082-2.859 8.896-22.17 7.859-22.099-4.207 0.05-6.2 4.89-9.85 10.19-10.87z"/></g><g id="g268" fill="#333"><path id="path270" d="m927.72 530.76c-1.122 1.391-3.188 2.553-6.188 3.484-1.065 3.053-2.367 5.301-3.916 6.748-1.551 1.451-3.158 2.172-4.83 2.172-0.854 0-1.533-0.23-2.056-0.697-0.511-0.465-0.772-1.08-0.772-1.846 0-2.406 2.381-4.449 7.138-6.113l0.389-1.578c1.111-4.525 1.8-7.221 2.068-8.102l0.962-3.213c-0.126 0.238-0.388 0.801-0.795 1.697-1.938 4.357-3.67 7.336-5.184 8.934-1.512 1.598-3.002 2.396-4.478 2.396-1.119 0-2.031-0.434-2.735-1.309-0.702-0.877-1.054-2.023-1.054-3.439 0-1.77 0.629-4.477 1.89-8.115 1.268-3.633 1.899-6.057 1.899-7.266 0-0.742-0.188-1.357-0.582-1.85-0.388-0.486-0.878-0.732-1.471-0.732-0.923 0-1.786 0.516-2.591 1.537-0.814 1.023-1.215 2.113-1.215 3.279 0 1.07 0.381 1.93 1.146 2.6 0.272 0.244 0.4 0.436 0.4 0.586 0 0.338-0.219 0.797-0.662 1.387-0.444 0.59-0.884 0.883-1.323 0.883-0.47 0-0.923-0.332-1.357-0.992-0.429-0.662-0.646-1.363-0.646-2.105 0-1.984 0.729-3.938 2.191-5.857 1.455-1.916 3.197-2.877 5.215-2.877 1.435 0 2.612 0.563 3.528 1.693 0.916 1.123 1.371 2.588 1.371 4.381-0.014 2.15-0.703 5.135-2.079 8.955-0.932 2.639-1.406 4.502-1.406 5.594 0 1.01 0.37 1.516 1.111 1.516 1.369 0 3.119-2.057 5.255-6.172 2.134-4.113 4.056-9.064 5.776-14.857 0.076-0.287 0.211-0.48 0.411-0.568 0.195-0.09 0.864-0.207 2.02-0.342 1.152-0.131 1.77-0.199 1.842-0.199 0.288 0 0.418 0.082 0.39 0.248l-0.913 3.654-2.614 11.414c-0.363 1.572-0.958 3.891-1.802 6.957 2.314-0.729 4.202-2.006 5.662-3.822v1.94zm-11.03 5.23c-1.682 0.574-3.013 1.273-3.991 2.113-0.974 0.836-1.463 1.621-1.463 2.357 0 0.42 0.147 0.77 0.439 1.039 0.288 0.281 0.647 0.412 1.076 0.412 0.839 0 1.57-0.48 2.18-1.451 0.61-0.96 1.19-2.45 1.75-4.47z"/><path id="path272" d="m942.82 530.76c-0.571 0.502-1.127 0.857-1.665 1.066-0.539 0.207-0.967 0.311-1.28 0.311-0.809 0-1.609-0.314-2.41-0.936-1.613 2.439-3.469 3.666-5.555 3.666-1.302 0-2.356-0.49-3.164-1.469-0.806-0.975-1.209-2.273-1.209-3.887 0-2.557 0.909-4.756 2.723-6.59 1.821-1.836 3.99-2.754 6.519-2.754 0.953 0 1.646 0.107 2.097 0.311 0.442 0.205 0.713 0.451 0.814 0.732 0.102 0.281 0.153 0.637 0.153 1.059 0 2.104-0.575 4.678-1.72 7.729 0.574 0.527 1.174 0.793 1.8 0.793 0.755 0 1.719-0.658 2.896-1.969v1.94zm-5.55-9.42c-0.167-0.068-0.411-0.104-0.72-0.104-1.467 0-2.605 0.768-3.434 2.295-0.821 1.525-1.232 3.311-1.232 5.352 0 1.135 0.182 2.018 0.537 2.646 0.361 0.625 0.859 0.939 1.496 0.939 0.798 0 1.665-0.736 2.598-2.205-1.058-1.324-1.584-2.746-1.584-4.275-0.02-1.8 0.76-3.36 2.32-4.66z"/><path id="path274" d="m960.78 530.76c-1.483 1.4-2.723 2.432-3.718 3.105-1.003 0.664-1.897 1.002-2.696 1.002-0.884 0-1.57-0.359-2.046-1.063-0.473-0.709-0.713-1.668-0.713-2.881-1.238 1.361-2.34 2.361-3.318 3.004-0.973 0.652-1.929 0.973-2.863 0.973-0.854 0-1.531-0.354-2.047-1.064-0.523-0.703-0.777-1.664-0.777-2.881 0-2.33 0.786-5.619 2.354-9.865l4.503-0.893c-1.856 5.387-2.783 8.834-2.787 10.359 0 1.078 0.4 1.615 1.214 1.615 0.582 0 1.307-0.477 2.173-1.424 0.864-0.949 1.401-1.777 1.613-2.482l2.207-7.176 4.583-0.922c-1.055 3.371-1.782 5.748-2.18 7.121-0.39 1.369-0.589 2.326-0.589 2.877 0 1.057 0.359 1.59 1.082 1.59 0.58 0 1.447-0.537 2.592-1.604l1.414-1.33v1.94z"/><path id="path276" d="m973.36 530.76c-2.813 2.752-4.986 4.141-6.512 4.141-0.683 0-1.263-0.293-1.734-0.869-0.473-0.576-0.709-1.295-0.709-2.145 0-1.582 0.85-3.701 2.541-6.365-0.825 0.426-1.737 0.721-2.726 0.893-0.727 1.344-1.874 2.791-3.434 4.346h-0.386v-1.52c0.874-0.906 1.665-1.885 2.374-2.926-0.964-0.428-1.447-1.061-1.447-1.906 0-0.861 0.288-1.785 0.88-2.768 0.588-0.982 1.403-1.473 2.434-1.473 0.877 0 1.316 0.445 1.316 1.348 0 0.705-0.254 1.715-0.755 3.027 1.86-0.199 3.489-1.621 4.881-4.271l1.53-0.07-1.563 4.313c-0.654 1.814-1.072 3.057-1.264 3.707-0.192 0.66-0.286 1.24-0.286 1.746 0 0.469 0.108 0.846 0.329 1.127 0.219 0.277 0.511 0.424 0.884 0.424 0.4 0 0.786-0.139 1.163-0.412 0.37-0.275 1.2-1.035 2.486-2.283v1.93z"/><path id="path278" d="m997.1 530.76c-0.514 0.447-1.041 0.764-1.563 0.957-0.528 0.188-0.936 0.287-1.229 0.287-0.821 0-1.629-0.316-2.424-0.945-1.999 2.535-4.115 3.809-6.35 3.809-1.163 0-2.079-0.404-2.735-1.201-0.654-0.805-0.985-1.928-0.985-3.361 0-1.582 0.395-3.525 1.181-5.83l1.181-3.445 4.565-0.861-2.031 6.074c-0.215 0.666-0.414 1.447-0.603 2.359-0.19 0.91-0.285 1.561-0.285 1.955 0 0.602 0.16 1.113 0.48 1.523 0.316 0.412 0.711 0.611 1.167 0.611 1.083 0 2.239-0.918 3.485-2.76-0.571-1.143-0.857-2.295-0.857-3.451 0-1.604 0.421-3.051 1.27-4.338 0.849-1.295 1.778-1.941 2.789-1.941 0.763 0 1.149 0.59 1.149 1.768 0 2.275-0.923 4.906-2.766 7.891 0.571 0.533 1.174 0.793 1.802 0.793 0.765 0 1.684-0.611 2.76-1.83v1.94z"/><path id="path280" d="m1005.4 530.76c-2.623 2.752-4.597 4.141-5.895 4.141-0.719 0-1.323-0.371-1.818-1.104-0.494-0.736-0.74-1.66-0.74-2.77 0-2.395 0.806-5.699 2.42-9.938l4.281-0.889h0.206l-1.689 5.266c-0.701 2.184-1.046 3.734-1.046 4.666 0 0.371 0.084 0.674 0.247 0.904 0.16 0.229 0.366 0.342 0.617 0.342 0.433 0 0.873-0.16 1.319-0.48 0.446-0.313 1.142-1.014 2.097-2.076v1.94zm-0.4-17.14c0 2.689-0.996 4.037-2.98 4.037-0.969 0-1.79-0.295-2.477-0.879 0.652-0.984 1.155-2.094 1.515-3.328 0.886 0.555 1.603 0.822 2.142 0.822 0.7 0 1.3-0.22 1.9-0.65z"/><path id="path282" d="m1010.6 520.89c0.773-0.203 1.558-0.371 2.341-0.498 0.784-0.129 1.261-0.195 1.413-0.195 0.116 0 0.171 0.049 0.171 0.135 0 0.174-0.048 0.344-0.135 0.521-0.182 0.516-0.272 1.012-0.272 1.48 0.004 0.584 0.342 1.379 1.014 2.391 0.672 1.01 1.01 1.945 1.01 2.813 0 1.721-0.825 3.375-2.465 4.969-1.651 1.594-3.35 2.391-5.115 2.391-0.76 0-1.453-0.199-2.086-0.609-0.63-0.402-0.939-0.832-0.939-1.295 0-0.266 0.31-0.777 0.929-1.533 0.627-0.746 1.075-1.127 1.344-1.127 0.363 0 0.676 0.459 0.959 1.381 0.281 0.924 0.763 1.379 1.447 1.379 0.687 0 1.326-0.313 1.93-0.945 0.603-0.633 0.897-1.32 0.897-2.053 0-0.699-0.382-1.646-1.145-2.824-0.763-1.18-1.269-2.166-1.512-2.961-1.306 2.098-2.952 4.246-4.951 6.447h-0.388v-1.52c2.8-2.95 4.7-5.73 5.7-8.37z"/><path id="path284" d="m1027.6 530.76c-2.627 2.752-4.594 4.141-5.892 4.141-0.715 0-1.319-0.371-1.813-1.104-0.498-0.736-0.744-1.66-0.744-2.77 0-2.395 0.806-5.699 2.424-9.938l4.277-0.889h0.202l-1.682 5.266c-0.697 2.184-1.05 3.734-1.05 4.666 0 0.371 0.084 0.674 0.246 0.904 0.159 0.229 0.368 0.342 0.615 0.342 0.438 0 0.876-0.16 1.322-0.48 0.443-0.313 1.142-1.014 2.094-2.076v1.94zm-0.3-17.14c0 2.689-0.995 4.037-2.98 4.037-0.965 0-1.79-0.295-2.472-0.879 0.647-0.984 1.156-2.094 1.51-3.328 0.89 0.555 1.599 0.822 2.144 0.822 0.7 0 1.3-0.22 1.9-0.65z"/><path id="path286" d="m1042.8 530.76c-0.566 0.502-1.123 0.857-1.664 1.066-0.539 0.207-0.964 0.311-1.286 0.311-0.804 0-1.604-0.314-2.402-0.936-1.614 2.439-3.468 3.666-5.557 3.666-1.306 0-2.356-0.49-3.162-1.469-0.811-0.975-1.214-2.273-1.214-3.887 0-2.557 0.908-4.756 2.729-6.59 1.817-1.836 3.986-2.754 6.516-2.754 0.953 0 1.653 0.107 2.091 0.311 0.446 0.205 0.722 0.451 0.82 0.732 0.103 0.281 0.152 0.637 0.152 1.059 0 2.104-0.578 4.678-1.72 7.729 0.576 0.527 1.172 0.793 1.804 0.793 0.748 0 1.716-0.658 2.893-1.969v1.94zm-5.6-9.42c-0.171-0.068-0.414-0.104-0.724-0.104-1.464 0-2.605 0.768-3.431 2.295-0.821 1.525-1.237 3.311-1.237 5.352 0 1.135 0.182 2.018 0.537 2.646 0.359 0.625 0.86 0.939 1.501 0.939 0.798 0 1.661-0.736 2.595-2.205-1.059-1.324-1.585-2.746-1.585-4.275 0-1.8 0.7-3.36 2.3-4.66z"/><path id="path288" d="m1059.3 530.76c-2.589 2.734-4.822 4.107-6.667 4.107-0.754 0-1.354-0.266-1.818-0.793-0.459-0.529-0.69-1.23-0.69-2.123 0-1.199 0.496-3.037 1.481-5.51 0.524-1.318 0.789-2.158 0.789-2.521 0-0.355-0.135-0.541-0.414-0.541-0.16 0-0.368 0.086-0.626 0.242-0.232 0.154-0.516 0.371-0.825 0.652-0.282 0.262-0.596 0.572-0.944 0.945-0.299 0.309-0.629 0.672-0.975 1.078l-0.943 1.094c-0.415 0.506-0.676 1.039-0.775 1.602-0.169 0.953-0.279 1.828-0.338 2.625-0.036 0.59-0.047 1.4-0.047 2.404l-3.726 0.879c-0.119-1.516-0.181-2.646-0.181-3.383 0-1.811 0.206-3.521 0.631-5.137 0.422-1.617 1.096-3.439 2.025-5.455l4.113-0.793c-0.868 2.326-1.432 4.154-1.703 5.49 1.838-2.059 3.298-3.48 4.383-4.27 1.076-0.791 2.042-1.186 2.877-1.186 0.571 0 1.052 0.217 1.432 0.648 0.383 0.426 0.571 0.975 0.571 1.617 0 1.078-0.48 2.852-1.446 5.32-0.665 1.697-0.999 2.795-0.999 3.305 0 0.676 0.283 1.01 0.829 1.01 0.825 0 2.147-1.078 3.986-3.246v1.94z"/><path id="path290" d="m1063.9 529.58c0.938 0.574 1.632 1.168 2.067 1.775 0.438 0.611 0.654 1.348 0.654 2.197 0 1.385-0.558 2.65-1.682 3.807s-2.768 2.127-4.934 2.912l-0.352-1.031c1.246-0.668 2.19-1.287 2.827-1.854 0.641-0.568 0.961-1.236 0.961-2.016 0-0.975-0.561-1.689-1.685-2.139-0.391-0.135-0.592-0.27-0.592-0.4 0-0.111 0.24-0.381 0.709-0.811 0.4-0.44 1.1-1.25 2-2.45z"/><path id="path292" d="m1091.3 530.76c-0.571 0.502-1.128 0.857-1.672 1.066-0.535 0.207-0.96 0.311-1.273 0.311-0.813 0-1.609-0.314-2.405-0.936-1.62 2.439-3.47 3.666-5.56 3.666-1.305 0-2.356-0.49-3.169-1.469-0.804-0.975-1.207-2.273-1.207-3.887 0-2.557 0.908-4.756 2.729-6.59 1.813-1.836 3.987-2.754 6.512-2.754 0.953 0 1.654 0.107 2.097 0.311 0.446 0.205 0.713 0.451 0.814 0.732 0.105 0.281 0.156 0.637 0.156 1.059 0 2.104-0.577 4.678-1.719 7.729 0.57 0.527 1.173 0.793 1.799 0.793 0.749 0 1.717-0.658 2.897-1.969v1.94zm-5.6-9.42c-0.171-0.068-0.407-0.104-0.728-0.104-1.46 0-2.604 0.768-3.427 2.295-0.821 1.525-1.232 3.311-1.232 5.352 0 1.135 0.177 2.018 0.535 2.646 0.363 0.625 0.861 0.939 1.498 0.939 0.798 0 1.664-0.736 2.598-2.205-1.065-1.324-1.588-2.746-1.588-4.275 0-1.8 0.8-3.36 2.3-4.66z"/><path id="path294" d="m1109.2 530.76c-1.479 1.4-2.716 2.432-3.715 3.105-1 0.664-1.897 1.002-2.696 1.002-0.887 0-1.566-0.359-2.043-1.063-0.475-0.709-0.713-1.668-0.713-2.881-1.241 1.361-2.344 2.361-3.318 3.004-0.977 0.652-1.93 0.973-2.863 0.973-0.854 0-1.54-0.354-2.056-1.064-0.514-0.703-0.771-1.664-0.771-2.881 0-2.33 0.786-5.619 2.354-9.865l4.497-0.893c-1.848 5.387-2.774 8.834-2.777 10.359 0 1.078 0.403 1.615 1.211 1.615 0.585 0 1.309-0.477 2.173-1.424 0.864-0.949 1.403-1.777 1.616-2.482l2.203-7.176 4.586-0.922c-1.058 3.371-1.787 5.748-2.18 7.121-0.393 1.369-0.592 2.326-0.592 2.877 0 1.057 0.362 1.59 1.079 1.59 0.581 0 1.445-0.537 2.598-1.604l1.407-1.33v1.94z"/><path id="path296" d="m1121.8 530.76c-2.82 2.752-4.994 4.141-6.516 4.141-0.687 0-1.265-0.293-1.734-0.869-0.471-0.576-0.709-1.295-0.709-2.145 0-1.582 0.848-3.701 2.541-6.365-0.825 0.426-1.737 0.721-2.729 0.893-0.726 1.344-1.875 2.791-3.431 4.346h-0.386v-1.52c0.869-0.906 1.664-1.885 2.37-2.926-0.964-0.428-1.445-1.061-1.445-1.906 0-0.861 0.297-1.785 0.878-2.768 0.596-0.982 1.403-1.473 2.44-1.473 0.875 0 1.313 0.445 1.313 1.348 0 0.705-0.261 1.715-0.763 3.027 1.863-0.199 3.492-1.621 4.885-4.271l1.533-0.07-1.566 4.313c-0.651 1.814-1.072 3.057-1.261 3.707-0.192 0.66-0.29 1.24-0.29 1.746 0 0.469 0.111 0.846 0.33 1.127 0.218 0.277 0.517 0.424 0.883 0.424 0.407 0 0.789-0.139 1.163-0.412 0.368-0.275 1.2-1.035 2.493-2.283v1.93z"/><path id="path298" d="m1147 530.76c-1.424 1.49-3.126 2.59-5.114 3.297-0.93 2.906-2.118 5.146-3.542 6.719-1.436 1.568-2.952 2.357-4.555 2.357-0.884 0-1.584-0.273-2.126-0.824-0.534-0.549-0.806-1.273-0.806-2.17 0-1.207 0.537-2.277 1.605-3.24 1.072-0.949 2.894-1.871 5.459-2.764l0.729-3.311c-1.079 1.209-2.01 2.102-2.794 2.67-0.788 0.566-1.577 0.85-2.377 0.85-0.931 0-1.697-0.434-2.287-1.311-0.596-0.875-0.893-2.018-0.893-3.422 0-2.287 0.871-4.432 2.615-6.441 1.748-1.998 3.604-3.002 5.561-3.002 1.094 0 2.051 0.459 2.897 1.377 0.505-0.172 1.159-0.451 1.97-0.805l1.195-0.539h0.386c-0.436 1.326-0.771 2.617-1.006 3.873l-1.585 8.436c1.522-0.576 3.074-1.803 4.666-3.688v1.92zm-9.5 4.86c-3.626 1.309-5.44 2.811-5.44 4.521 0 0.504 0.153 0.914 0.457 1.234 0.303 0.322 0.688 0.482 1.161 0.482 0.813 0 1.509-0.52 2.107-1.535 0.5-1.02 1.1-2.59 1.6-4.7zm-1.4-4.31c0.797 0 1.51-0.473 2.123-1.416 0.617-0.938 1.098-2.137 1.436-3.58 0.345-1.451 0.517-2.455 0.517-3.016 0-0.531-0.139-0.965-0.396-1.303-0.263-0.346-0.596-0.52-0.984-0.52-1.185 0-2.232 0.805-3.116 2.412-0.887 1.604-1.33 3.236-1.33 4.9 0 0.775 0.16 1.383 0.477 1.84 0.4 0.47 0.8 0.69 1.3 0.69z"/><path id="path300" d="m1159.6 530.76c-1.432 1.4-2.707 2.432-3.838 3.105-1.135 0.664-2.385 1.002-3.754 1.002-1.531 0-2.765-0.49-3.697-1.469-0.934-0.975-1.402-2.258-1.402-3.852 0-2.379 0.819-4.531 2.468-6.459 1.654-1.924 3.479-2.887 5.495-2.887 1.036 0 1.876 0.273 2.507 0.811 0.619 0.533 0.939 1.244 0.939 2.119 0 2.318-2.465 4.207-7.403 5.658 0.446 2.191 1.62 3.279 3.514 3.279 0.742 0 1.45-0.195 2.124-0.598 0.672-0.398 1.686-1.279 3.048-2.648v1.95zm-8.9-3.12c2.876-0.807 4.311-2.297 4.311-4.475 0-1.08-0.393-1.621-1.181-1.621-0.741 0-1.447 0.564-2.116 1.699-0.6 1.12-1 2.59-1 4.4z"/><path id="path302" d="m1177.5 530.76c-1.798 1.703-3.082 2.816-3.853 3.332-0.776 0.516-1.515 0.775-2.226 0.775-1.775 0-2.607-1.568-2.503-4.701-1.129 1.607-2.158 2.791-3.117 3.561-0.942 0.756-1.92 1.141-2.932 1.141-0.987 0-1.826-0.463-2.517-1.391-0.69-0.924-1.035-2.063-1.035-3.406 0-1.689 0.464-3.291 1.391-4.816 0.923-1.529 2.109-2.764 3.563-3.709 1.443-0.936 2.722-1.412 3.835-1.412 1.405 0 2.387 0.646 2.943 1.938l3.444-1.902h0.942l-1.486 4.93c-0.763 2.49-1.146 4.186-1.146 5.104 0 0.967 0.342 1.451 1.028 1.451 0.434 0 0.917-0.234 1.44-0.701 0.533-0.461 1.274-1.174 2.227-2.129v1.95zm-12.3 0.92c1.121 0 2.185-0.955 3.177-2.873 0.995-1.91 1.486-3.678 1.486-5.293 0-0.629-0.141-1.119-0.418-1.475-0.286-0.35-0.658-0.527-1.129-0.527-1.121 0-2.188 0.953-3.188 2.859-1.011 1.91-1.508 3.664-1.508 5.271 0 0.607 0.146 1.1 0.446 1.469 0.3 0.38 0.6 0.57 1.1 0.57z"/><path id="path304" d="m1190.1 530.76c-2.82 2.752-4.99 4.141-6.514 4.141-0.69 0-1.265-0.293-1.734-0.869-0.478-0.576-0.711-1.295-0.711-2.145 0-1.582 0.847-3.701 2.539-6.365-0.83 0.426-1.739 0.721-2.724 0.893-0.731 1.344-1.876 2.791-3.436 4.346h-0.385v-1.52c0.875-0.906 1.665-1.885 2.376-2.926-0.969-0.428-1.449-1.061-1.449-1.906 0-0.861 0.29-1.785 0.877-2.768 0.592-0.982 1.404-1.473 2.435-1.473 0.876 0 1.312 0.445 1.312 1.348 0 0.705-0.25 1.715-0.756 3.027 1.864-0.199 3.496-1.621 4.884-4.271l1.531-0.07-1.563 4.313c-0.65 1.814-1.072 3.057-1.261 3.707-0.193 0.66-0.292 1.24-0.292 1.746 0 0.469 0.112 0.846 0.331 1.127 0.223 0.277 0.509 0.424 0.888 0.424 0.399 0 0.791-0.139 1.159-0.412 0.37-0.275 1.202-1.035 2.493-2.283v1.93z"/><path id="path306" d="m1196.4 530.98c-0.494 1.594-0.94 2.646-1.355 3.137-0.406 0.494-1.021 0.75-1.842 0.75-1.01 0-1.984-0.363-2.929-1.078 0.6-0.924 1.155-2.24 1.686-3.961 0.719 0.619 1.243 1.006 1.577 1.17 0.342 0.164 0.742 0.246 1.219 0.246 0.3-0.01 0.9-0.1 1.6-0.27z"/></g><g id="g308"><path id="path310" d="m888.15 463.35h5.756c3.718 0 6.233 0.172 7.542 0.512 1.311 0.342 2.305 0.898 2.988 1.686 0.679 0.779 1.107 1.645 1.278 2.602 0.174 0.955 0.258 2.832 0.258 5.637v10.361c0 2.656-0.13 4.434-0.374 5.324-0.254 0.9-0.69 1.602-1.312 2.104-0.617 0.506-1.385 0.861-2.298 1.059-0.919 0.209-2.292 0.311-4.134 0.311h-9.704v-29.59zm7.7 5.06v19.463c1.111 0 1.794-0.219 2.048-0.666 0.254-0.443 0.379-1.654 0.379-3.627v-11.494c0-1.342-0.038-2.203-0.125-2.578-0.087-0.377-0.279-0.654-0.585-0.832-0.32-0.17-0.89-0.26-1.73-0.26z"/><path id="path312" d="m915.45 478.08h-6.93v-1.627c0-1.875 0.215-3.324 0.647-4.344 0.432-1.016 1.3-1.91 2.605-2.693 1.305-0.779 2.998-1.168 5.084-1.168 2.497 0 4.38 0.441 5.648 1.32 1.264 0.887 2.027 1.971 2.279 3.254 0.254 1.285 0.388 3.932 0.388 7.945v12.174h-7.188v-2.166c-0.448 0.867-1.03 1.514-1.741 1.949-0.709 0.432-1.563 0.648-2.548 0.648-1.3 0-2.479-0.359-3.557-1.084-1.081-0.723-1.618-2.313-1.618-4.76v-1.994c0-1.814 0.286-3.053 0.86-3.709 0.571-0.654 1.992-1.424 4.25-2.305 2.431-0.945 3.73-1.592 3.901-1.92 0.17-0.33 0.254-0.994 0.254-2.01 0-1.268-0.094-2.09-0.283-2.479-0.188-0.375-0.505-0.57-0.941-0.57-0.501 0-0.814 0.16-0.934 0.48-0.121 0.33-0.18 1.168-0.18 2.514v2.55zm2.34 3.32c-1.181 0.867-1.871 1.592-2.056 2.178-0.187 0.584-0.281 1.424-0.281 2.525 0 1.252 0.083 2.061 0.244 2.426 0.164 0.363 0.491 0.547 0.975 0.547 0.462 0 0.77-0.145 0.909-0.43 0.139-0.281 0.21-1.037 0.21-2.256v-4.99z"/><path id="path314" d="m935.32 468.69l-0.293 3.188c1.069-2.283 2.626-3.496 4.663-3.629v8.533c-1.352 0-2.347 0.184-2.984 0.549-0.629 0.367-1.017 0.871-1.163 1.529-0.149 0.646-0.222 2.148-0.222 4.502v9.58h-7.387v-24.252h7.38z"/><path id="path316" d="m957.45 468.69l-2.995 9.654 3.891 14.598h-7.097l-2.304-10.576-0.011 10.576h-7.378v-29.59h7.378l0.011 12.422 2.304-7.08h6.2z"/><path id="path318" d="m976.45 468.69v18.672c0 2.523-0.059 4.15-0.17 4.891-0.119 0.736-0.534 1.52-1.236 2.338-0.708 0.82-1.689 1.451-2.954 1.883-1.261 0.43-2.844 0.648-4.759 0.648-2.354 0-4.243-0.396-5.666-1.195-1.424-0.803-2.163-2.367-2.212-4.711h7.167c0 1.074 0.39 1.611 1.167 1.611 0.56 0 0.934-0.164 1.119-0.498 0.18-0.326 0.271-1.014 0.271-2.064v-1.828c-0.633 0.574-1.302 1.01-2.002 1.301-0.699 0.295-1.43 0.443-2.2 0.443-1.33 0-2.424-0.266-3.285-0.805-0.854-0.537-1.444-1.24-1.757-2.113-0.322-0.869-0.479-2.109-0.479-3.719v-8.811c0-2.301 0.415-3.957 1.243-4.969 0.829-1.014 2.089-1.516 3.782-1.516 0.923 0 1.77 0.189 2.531 0.568 0.763 0.379 1.442 0.943 2.042 1.699l0.53-1.826h6.87zm-7.4 6.43c0-1.109-0.063-1.82-0.196-2.119-0.125-0.307-0.411-0.457-0.854-0.457-0.423 0-0.72 0.174-0.902 0.516-0.17 0.35-0.261 1.037-0.261 2.061v8.15c0 1.082 0.067 1.781 0.199 2.111 0.131 0.324 0.414 0.484 0.843 0.484 0.487 0 0.804-0.195 0.948-0.588 0.149-0.387 0.223-1.273 0.223-2.648v-7.5z"/><path id="path320" d="m986.91 463.35v29.594h-7.602v-29.59h7.6z"/><path id="path322" d="m996.38 478.08h-6.927v-1.627c0-1.875 0.221-3.324 0.651-4.344 0.432-1.016 1.304-1.91 2.609-2.693 1.302-0.779 2.998-1.168 5.077-1.168 2.5 0 4.385 0.441 5.651 1.32 1.264 0.887 2.027 1.971 2.281 3.254 0.258 1.285 0.39 3.932 0.39 7.945v12.174h-7.191v-2.166c-0.452 0.867-1.033 1.514-1.739 1.949-0.715 0.432-1.565 0.648-2.554 0.648-1.284 0-2.479-0.359-3.555-1.084-1.079-0.723-1.62-2.313-1.62-4.76v-1.994c0-1.814 0.29-3.053 0.861-3.709 0.574-0.654 1.995-1.424 4.259-2.305 2.428-0.945 3.726-1.592 3.896-1.92 0.168-0.33 0.255-0.994 0.255-2.01 0-1.268-0.095-2.09-0.286-2.479-0.184-0.375-0.502-0.57-0.936-0.57-0.501 0-0.813 0.16-0.934 0.48-0.126 0.33-0.188 1.168-0.188 2.514v2.55zm2.34 3.32c-1.185 0.867-1.867 1.592-2.054 2.178-0.188 0.584-0.29 1.424-0.29 2.525 0 1.252 0.087 2.061 0.254 2.426 0.16 0.363 0.487 0.547 0.971 0.547 0.467 0 0.766-0.145 0.911-0.43 0.139-0.281 0.208-1.037 0.208-2.256v-4.99z"/><path id="path324" d="m1023.9 476.44h-6.544v-1.316c0-1.123-0.066-1.83-0.192-2.135-0.128-0.295-0.452-0.441-0.957-0.441-0.421 0-0.726 0.135-0.937 0.41-0.201 0.273-0.307 0.686-0.307 1.238 0 0.734 0.052 1.285 0.157 1.631 0.101 0.35 0.414 0.725 0.926 1.143 0.523 0.416 1.585 1.018 3.188 1.809 2.152 1.049 3.561 2.033 4.226 2.959 0.667 0.928 1.001 2.271 1.001 4.041 0 1.971-0.253 3.463-0.765 4.469-0.509 1.002-1.369 1.781-2.566 2.32-1.198 0.543-2.647 0.811-4.339 0.811-1.879 0-3.485-0.291-4.819-0.875-1.333-0.588-2.249-1.375-2.751-2.379-0.497-0.994-0.744-2.508-0.744-4.529v-1.168h6.542v1.531c0 1.309 0.08 2.154 0.243 2.543 0.167 0.393 0.491 0.582 0.98 0.582 0.521 0 0.887-0.125 1.099-0.391 0.202-0.262 0.306-0.814 0.306-1.656 0-1.156-0.135-1.879-0.4-2.172-0.284-0.291-1.712-1.156-4.296-2.596-2.166-1.219-3.489-2.322-3.966-3.318-0.471-0.996-0.711-2.172-0.711-3.535 0-1.938 0.254-3.365 0.767-4.285 0.512-0.92 1.382-1.629 2.602-2.127 1.229-0.5 2.646-0.75 4.268-0.75 1.616 0 2.979 0.201 4.106 0.611 1.131 0.406 1.991 0.947 2.591 1.617 0.606 0.67 0.971 1.293 1.101 1.859 0.124 0.576 0.192 1.469 0.192 2.691v1.42z"/><path id="path326" d="m1041.8 476.44h-6.54v-1.316c0-1.123-0.066-1.83-0.19-2.135-0.13-0.295-0.453-0.441-0.962-0.441-0.418 0-0.724 0.135-0.934 0.41-0.205 0.273-0.31 0.686-0.31 1.238 0 0.734 0.057 1.285 0.156 1.631 0.105 0.35 0.411 0.725 0.93 1.143 0.517 0.416 1.578 1.018 3.19 1.809 2.138 1.049 3.552 2.033 4.224 2.959 0.669 0.928 1.003 2.271 1.003 4.041 0 1.971-0.254 3.463-0.767 4.469-0.509 1.002-1.371 1.781-2.573 2.32-1.198 0.543-2.643 0.811-4.332 0.811-1.879 0-3.485-0.291-4.822-0.875-1.33-0.588-2.249-1.375-2.751-2.379-0.494-0.994-0.749-2.508-0.749-4.529v-1.168h6.548v1.531c0 1.309 0.08 2.154 0.242 2.543 0.167 0.393 0.492 0.582 0.979 0.582 0.526 0 0.888-0.125 1.094-0.391 0.208-0.262 0.313-0.814 0.313-1.656 0-1.156-0.132-1.879-0.4-2.172-0.283-0.291-1.711-1.156-4.295-2.596-2.173-1.219-3.488-2.322-3.969-3.318-0.47-0.996-0.708-2.172-0.708-3.535 0-1.938 0.253-3.365 0.76-4.285 0.516-0.92 1.383-1.629 2.604-2.127 1.229-0.5 2.65-0.75 4.277-0.75 1.604 0 2.973 0.201 4.097 0.611 1.133 0.406 1.992 0.947 2.599 1.617 0.599 0.67 0.965 1.293 1.094 1.859 0.129 0.576 0.191 1.469 0.191 2.691v1.42z"/><path id="path328" d="m1051.6 463.35h12.832v5.922h-5.136v5.609h4.805v5.631h-4.805v6.508h5.641v5.924h-13.337v-29.59z"/><path id="path330" d="m1074.8 463.35v29.594h-7.604v-29.59h7.6z"/><path id="path332" d="m1094.4 481.24h-9.562v5.242c0 1.096 0.076 1.805 0.236 2.119 0.155 0.32 0.468 0.475 0.918 0.475 0.56 0 0.932-0.209 1.127-0.629 0.186-0.42 0.277-1.23 0.277-2.438v-3.199h7.003v1.789c0 1.504-0.102 2.65-0.284 3.455-0.188 0.805-0.632 1.662-1.33 2.58-0.69 0.91-1.572 1.598-2.641 2.051-1.065 0.455-2.399 0.686-4.003 0.686-1.572 0-2.943-0.219-4.137-0.672-1.191-0.451-2.121-1.068-2.786-1.855-0.662-0.783-1.124-1.65-1.38-2.598-0.251-0.945-0.386-2.316-0.386-4.121v-7.072c0-2.115 0.286-3.785 0.86-5.016 0.574-1.229 1.508-2.164 2.813-2.814 1.309-0.652 2.806-0.977 4.495-0.977 2.075 0 3.78 0.389 5.129 1.176 1.344 0.791 2.285 1.828 2.827 3.129 0.546 1.295 0.821 3.115 0.821 5.471v3.2zm-7.5-3.95v-1.771c0-1.256-0.069-2.063-0.197-2.436-0.137-0.361-0.409-0.541-0.821-0.541-0.517 0-0.833 0.154-0.955 0.463-0.119 0.311-0.182 1.146-0.182 2.514v1.771h2.2z"/><path id="path334" d="m1113.3 477.85h-6.953v-2.803c0-0.975-0.08-1.635-0.243-1.984-0.158-0.342-0.453-0.516-0.879-0.516-0.425 0-0.713 0.15-0.855 0.457-0.144 0.299-0.224 0.982-0.224 2.043v11.441c0 0.867 0.112 1.514 0.331 1.949 0.22 0.432 0.54 0.645 0.965 0.645 0.504 0 0.844-0.221 1.02-0.672 0.178-0.453 0.265-1.305 0.265-2.559v-2.893h6.574c-0.007 1.943-0.08 3.395-0.202 4.357-0.129 0.977-0.539 1.967-1.229 2.986-0.685 1.016-1.586 1.779-2.69 2.299-1.115 0.516-2.482 0.775-4.113 0.775-2.082 0-3.732-0.357-4.95-1.064-1.226-0.713-2.086-1.711-2.588-3-0.508-1.287-0.759-3.107-0.759-5.475v-6.887c0-2.061 0.201-3.611 0.62-4.662 0.411-1.051 1.295-1.982 2.646-2.803 1.354-0.822 3.002-1.234 4.94-1.234 1.922 0 3.568 0.402 4.931 1.221 1.364 0.814 2.271 1.848 2.727 3.09 0.6 1.23 0.8 2.99 0.8 5.28z"/><path id="path336" d="m1123.5 465.45v3.818h1.996v3.836h-1.996v12.98c0 1.594 0.086 2.484 0.246 2.668 0.163 0.18 0.85 0.273 2.059 0.273v3.914h-2.985c-1.677 0-2.879-0.074-3.592-0.217-0.721-0.137-1.355-0.461-1.901-0.963-0.551-0.512-0.893-1.082-1.027-1.74-0.132-0.65-0.199-2.182-0.199-4.596v-12.32h-1.594v-3.836h1.594v-3.818h7.4z"/><path id="path338" d="m1134.7 468.69l-0.292 3.188c1.069-2.283 2.621-3.496 4.659-3.629v8.533c-1.354 0-2.347 0.184-2.977 0.549-0.639 0.367-1.028 0.871-1.174 1.529-0.146 0.646-0.217 2.148-0.217 4.502v9.58h-7.386v-24.252h7.4z"/><path id="path340" d="m1157.7 477.2v5.941c0 2.178-0.114 3.779-0.331 4.797-0.226 1.016-0.689 1.967-1.406 2.848-0.724 0.885-1.644 1.535-2.77 1.959-1.131 0.414-2.425 0.625-3.885 0.625-1.629 0-3.013-0.178-4.147-0.533-1.134-0.363-2.017-0.908-2.639-1.627-0.631-0.729-1.076-1.605-1.345-2.635-0.271-1.025-0.407-2.572-0.407-4.633v-6.217c0-2.252 0.251-4.012 0.738-5.283 0.483-1.264 1.358-2.283 2.627-3.047 1.266-0.768 2.886-1.15 4.863-1.15 1.653 0 3.082 0.246 4.266 0.738 1.19 0.496 2.109 1.139 2.755 1.926 0.644 0.797 1.081 1.613 1.323 2.453 0.1 0.84 0.2 2.12 0.2 3.83zm-7.4-1.82c0-1.24-0.063-2.02-0.196-2.35-0.139-0.32-0.421-0.48-0.862-0.48-0.438 0-0.728 0.16-0.878 0.48-0.143 0.33-0.219 1.109-0.219 2.35v10.945c0 1.143 0.076 1.893 0.219 2.242 0.15 0.344 0.432 0.518 0.86 0.518 0.439 0 0.728-0.154 0.871-0.475 0.136-0.314 0.205-0.996 0.205-2.041v-11.18z"/><path id="path342" d="m1167.8 468.69l-0.128 2.23c0.532-0.893 1.193-1.557 1.967-2.006 0.771-0.443 1.665-0.666 2.675-0.666 1.266 0 2.301 0.295 3.112 0.891 0.798 0.602 1.315 1.348 1.543 2.258 0.236 0.912 0.347 2.422 0.347 4.543v17.002h-7.382v-16.801c0-1.67-0.051-2.684-0.167-3.057-0.1-0.361-0.407-0.541-0.905-0.541-0.527 0-0.86 0.211-0.984 0.627-0.136 0.42-0.205 1.545-0.205 3.373v16.398h-7.387v-24.252h7.6z"/><path id="path344" d="m1187.7 463.35v3.857h-7.601v-3.857h7.6zm0 5.34v24.252h-7.601v-24.252h7.6z"/><path id="path346" d="m1206.9 477.85h-6.967v-2.803c0-0.975-0.077-1.635-0.235-1.984-0.152-0.342-0.448-0.516-0.876-0.516-0.426 0-0.706 0.15-0.857 0.457-0.146 0.299-0.219 0.982-0.219 2.043v11.441c0 0.867 0.108 1.514 0.323 1.949 0.225 0.432 0.548 0.645 0.975 0.645 0.502 0 0.832-0.221 1.014-0.672 0.175-0.453 0.265-1.305 0.265-2.559v-2.893h6.578c-0.007 1.943-0.084 3.395-0.21 4.357-0.124 0.977-0.538 1.967-1.225 2.986-0.69 1.016-1.589 1.779-2.696 2.299-1.106 0.516-2.479 0.775-4.111 0.775-2.082 0-3.732-0.357-4.951-1.064-1.22-0.713-2.076-1.711-2.587-3-0.505-1.287-0.76-3.107-0.76-5.475v-6.887c0-2.061 0.205-3.611 0.625-4.662 0.408-1.051 1.294-1.982 2.647-2.803 1.352-0.822 3.002-1.234 4.938-1.234 1.922 0 3.565 0.402 4.928 1.221 1.367 0.814 2.275 1.848 2.726 3.09 0.7 1.23 0.9 2.99 0.9 5.28z"/><path id="path348" d="m1224.4 476.44h-6.539v-1.316c0-1.123-0.063-1.83-0.195-2.135-0.121-0.295-0.448-0.441-0.957-0.441-0.414 0-0.724 0.135-0.93 0.41-0.212 0.273-0.313 0.686-0.313 1.238 0 0.734 0.052 1.285 0.153 1.631 0.104 0.35 0.414 0.725 0.934 1.143 0.521 0.416 1.584 1.018 3.195 1.809 2.14 1.049 3.546 2.033 4.22 2.959 0.665 0.928 1.003 2.271 1.003 4.041 0 1.971-0.256 3.463-0.765 4.469-0.516 1.002-1.369 1.781-2.573 2.32-1.194 0.543-2.644 0.811-4.339 0.811-1.874 0-3.481-0.291-4.818-0.875-1.331-0.588-2.25-1.375-2.748-2.379-0.498-0.994-0.748-2.508-0.748-4.529v-1.168h6.538v1.531c0 1.309 0.087 2.154 0.244 2.543 0.17 0.393 0.496 0.582 0.984 0.582 0.523 0 0.894-0.125 1.098-0.391 0.202-0.262 0.31-0.814 0.31-1.656 0-1.156-0.132-1.879-0.404-2.172-0.28-0.291-1.709-1.156-4.289-2.596-2.173-1.219-3.496-2.322-3.973-3.318-0.471-0.996-0.707-2.172-0.707-3.535 0-1.938 0.25-3.365 0.77-4.285 0.509-0.92 1.38-1.629 2.602-2.127 1.222-0.5 2.646-0.75 4.267-0.75 1.604 0 2.973 0.201 4.101 0.611 1.127 0.406 1.991 0.947 2.594 1.617 0.606 0.67 0.968 1.293 1.103 1.859 0.123 0.576 0.186 1.469 0.186 2.691v1.42z"/></g><g id="g350" clip-rule="evenodd" fill-rule="evenodd"><path id="path352" d="m817.71 448.57c17.523-0.834 31.102 6.158 39.853 14.734 8.893 8.717 16.379 20.539 17.182 37.322 0.43 9.072-1.38 16.811-4.012 23.281-5.237 12.85-14.12 22.283-26.164 28.34-6.105 3.066-13.086 5.195-21.535 5.668-17.507 0.975-30.881-6.402-39.76-14.652-9.206-8.549-16.202-20.662-17.18-37.32-0.52-8.838 1.333-17.078 3.837-23.281 2.69-6.676 6.146-11.916 10.55-16.654 7.451-8.018 17.438-14.455 30.867-16.828 2.08-0.37 4.35-0.51 6.35-0.61zm-19.27 6.89c-11.759 5.6-20.754 14.607-25.896 26.508-2.726 6.299-4.416 13.5-4.36 21.715 0.108 16.555 7.035 28.572 15.437 36.969 8.491 8.498 20.582 15.172 37.23 15.172 16.307 0 28.13-7.115 36.71-15.695 4.387-4.385 7.835-9.457 10.554-15.605 2.682-6.068 4.702-13.254 4.531-21.713-0.16-8.146-1.918-15.254-4.705-21.453-5.321-11.83-14.349-20.74-26.251-26.158-5.881-2.678-13.673-4.725-21.711-4.533-8.53 0.2-15.53 1.93-21.54 4.79z"/><path id="path354" d="m820.5 456.86c0.003 0 0.028-0.076 0.087-0.088 3.859-0.516 4.154 4.832 1.044 5.32-3.84 0.6-4.53-4.63-1.13-5.23z"/><path id="path356" d="m821.9 502.81c7.511 0.033 12.835-2.811 17.26-7.238 2.052-2.045 3.859-4.154 5.321-6.891 1.769-3.303 3.622-8.738 1.746-12.902-1.017-2.262-3.19-4.018-6.627-3.662-2.618 0.266-4.519 2.027-5.845 3.488 2.475 0.555 4.584 0.85 5.58 2.789 1.704 3.313-1.618 8.256-5.664 7.063-2.915-0.857-5.635-5.645-3.491-9.506 2.772-4.99 12.311-7.75 17.792-3.314 3.53 2.861 6.179 8.631 4.446 14.738-1.389 4.898-5.129 8.709-8.81 11.422-1.873 1.389-3.911 2.646-6.361 3.75-2.285 1.027-4.953 2.09-8.024 2.094-2.528 0-4.353-0.674-7.591-0.262 0.516 1.529 1.784 2.691 2.793 3.924 2.956 3.615 6.786 6.465 12.208 7.85 7.131 1.818 18.055 0.914 20.839-4.188 1.784-3.256-0.089-6.504-2.002-8.371-1.226-1.195-2.726-2.484-4.885-2.004 0.349 1.438 1.665 3.295 0.784 5.32-1.787 4.102-8.688 2.777-9.154-1.574-0.519-4.83 4.979-8.076 9.677-6.539 3.155 1.037 5.188 3.148 6.804 5.844 1.444 2.412 2.628 6.385 1.305 10.027-1.469 4.064-5.215 6.865-8.806 8.371-2.232 0.936-4.492 1.412-7.236 1.047-2.362-0.313-4.64-1.078-6.628-1.92-3.999-1.689-7.52-3.924-10.467-6.713-2.927-2.773-5.233-5.641-6.709-10.377-1.942 2.463-3.123 6.029-3.318 9.941-0.372 7.744 2.87 15.697 6.542 20.143 2.159 2.611 6.804 5.854 11.161 3.748 3.106-1.504 4.982-6.484 2.88-10.289-2.096 1.041-3.226 4.602-6.802 3.053-2.683-1.164-3.921-6.016-1.047-8.105 1.504-1.102 4.707-1.5 6.887-0.357 2.637 1.395 3.907 4.617 3.664 8.637-0.37 6.078-4.151 10.738-9.768 11.6-6.692 1.025-11.609-2.477-14.301-6.719-2.76-4.348-4.083-11.428-3.311-17.523 0.825-6.482 2.62-11.145 6.018-15.172-8.443-0.273-13.733 3.441-18.229 7.934-2.061 2.066-3.885 4.746-5.229 7.936-1.243 2.957-2.312 7.537-0.87 10.809 0.608 1.389 1.915 2.846 3.402 3.494 3.834 1.656 7.844-0.758 9.323-3.318-2.812-0.629-5.884-1.311-5.925-4.705-0.044-3.463 3.736-6.361 7.152-4.361 1.375 0.805 2.744 2.775 2.962 4.883 0.196 1.891-0.596 3.857-1.218 4.797-1.814 2.711-5.554 4.678-9.333 4.969-6.27 0.484-10.067-3.648-11.859-8.021-2.184-5.332-0.727-11.363 2.18-15.346 2.803-3.834 7.062-6.516 11.511-8.375 4.638-1.932 9.606-3.537 16.568-2.525-3.573-6.813-13.447-14.361-25.813-12.467-3.994 0.611-8.417 2.17-10.111 5.053-1.526 2.59-0.215 6.287 1.305 8.113 1.311 1.566 2.933 2.525 5.579 2.525-0.16-1.533-1.121-2.32-1.044-4.271 0.114-2.871 2.504-4.508 5.404-4.098 3.777 0.531 5.246 5.525 2.705 8.635-1.152 1.41-3.505 2.695-6.452 2.438-3.636-0.313-6.247-2.541-7.936-4.793-1.713-2.291-3.137-5.691-2.44-9.678 0.615-3.52 2.377-5.945 4.881-7.848 2.371-1.807 5.596-3.297 9.329-3.316 6.82-0.037 12.507 3.449 16.309 6.365 4.316 3.318 7.671 6.941 9.677 12.902 4.572-5.213 3.779-14.787 1.396-21.795-1.25-3.678-2.552-6.289-4.71-8.898-1.926-2.324-5.687-5.518-9.942-4.271-3.631 1.064-6.249 6.635-4.094 10.818 1.382-1.887 3.729-4.135 6.891-2.793 1.511 0.639 3.179 2.73 2.785 5.402-0.528 3.605-5.477 5.258-8.806 3.23-2.089-1.273-3.311-4.32-3.489-7.15-0.425-6.863 3.732-12.568 10.292-13.082 10.478-0.814 15.412 6.355 16.917 14.824 0.884 4.982 0.331 9.945-0.875 14.127-1.18 4.2-3.04 7.76-5.04 10.66z"/><path id="path358" d="m828.26 465.23c1.694-0.32 3.067 1.09 3.228 2.531 0.178 1.619-1.14 3.107-2.184 3.309-3.55 0.7-4.66-5.15-1.05-5.84z"/><path id="path360" d="m794.17 475.52c4.202-0.619 3.781 5.609 0.262 5.582-1.417-0.012-2.803-1.244-2.791-2.963 0.01-1.55 1.1-2.41 2.53-2.62z"/><path id="path362" d="m782.66 477.78c2.717-0.502 4.012 2.623 2.703 4.623-0.676 1.029-2.81 1.395-4.012 0.521-1.9-1.37-0.69-4.77 1.31-5.14z"/><path id="path364" d="m858.52 479.35c1.092-0.055 2.507 1.146 2.701 2.27 0.52 2.967-2.995 3.943-4.445 2.791-1.95-1.55-0.98-4.92 1.74-5.06z"/><path id="path366" d="m854.25 490.69c3.517-0.693 4.165 4.414 1.483 5.402-1.929 0.711-4.095-0.91-3.576-3.484 0.19-0.92 0.82-1.67 2.1-1.92z"/><path id="path368" d="m785.45 510.66c2.297-0.449 4.122 2.191 2.875 4.449-1.191 2.164-4.656 0.998-4.965-1.135-0.28-1.88 0.71-3.05 2.09-3.32z"/><path id="path370" d="m782.05 521.91c3.773-0.689 4.119 5.893 0 5.582-1.134-0.088-2.664-1.154-2.532-3.055 0.09-1.36 1.26-2.3 2.53-2.53z"/><path id="path372" d="m856.78 523.57c1.956-0.412 3.899 1.014 3.489 3.223-0.338 1.809-3.518 2.846-4.97 1.221-1.36-1.51-0.47-4.04 1.48-4.44z"/><path id="path374" d="m845.96 525.74c0.306-0.018 1 0.033 1.305 0.176 2.166 0.984 1.967 5.107-1.218 5.143-1.028 0.014-2.657-0.49-2.881-2.182-0.24-1.95 1.16-3.03 2.8-3.14z"/><path id="path376" d="m811.52 535.77c2.031-0.342 3.809 1.082 3.228 3.314-0.592 2.252-4.652 2.693-5.408 0.084-0.47-1.62 0.32-3.08 2.18-3.39z"/><path id="path378" d="m819.46 544.49c1.775-0.344 3.722 1.395 2.962 3.75-0.711 2.211-5.512 1.953-5.495-1.047 0.02-1.54 1.22-2.44 2.54-2.7z"/></g></svg>
