<?xml version="1.0" standalone="no"?>
<!DOCTYPE svg PUBLIC "-//W3C//DTD SVG 20010904//EN"
 "http://www.w3.org/TR/2001/REC-SVG-20010904/DTD/svg10.dtd">
<svg version="1.0" xmlns="http://www.w3.org/2000/svg"
 width="100.000000pt" height="100.000000pt" viewBox="0 0 100.000000 100.000000"
 preserveAspectRatio="xMidYMid meet">

<g transform="translate(0.000000,100.000000) scale(0.100000,-0.100000)"
fill="#000000" stroke="none">
<path d="M0 500 l0 -500 500 0 500 0 0 500 0 500 -500 0 -500 0 0 -500z m665
351 c81 -37 149 -106 189 -191 28 -58 31 -75 31 -160 0 -86 -3 -101 -32 -162
-144 -304 -564 -299 -705 8 -19 41 -23 66 -23 154 0 88 4 113 23 154 93 202
322 289 517 197z"/>
<path d="M383 852 c-132 -47 -217 -148 -243 -289 -29 -162 58 -331 208 -401
50 -24 70 -27 157 -27 82 0 109 4 148 22 66 31 152 115 184 182 25 50 28 67
28 161 0 87 -4 113 -22 153 -31 67 -115 152 -182 184 -75 36 -201 43 -278 15z
m143 -33 c10 -17 -13 -36 -27 -22 -12 12 -4 33 11 33 5 0 12 -5 16 -11z m-13
-60 c49 -38 59 -147 21 -220 -8 -17 -14 -33 -12 -35 9 -8 72 16 103 40 54 42
84 133 53 164 -16 16 -53 15 -67 -2 -9 -11 -7 -15 9 -19 26 -7 26 -43 1 -57
-25 -13 -51 11 -51 45 0 31 35 55 81 55 89 0 108 -123 29 -188 -34 -28 -91
-52 -125 -52 -41 0 -44 -8 -12 -38 29 -27 88 -52 125 -52 79 0 125 48 87 90
-21 23 -37 26 -34 8 4 -32 -2 -39 -28 -36 -53 6 -37 68 17 68 34 0 80 -50 80
-87 0 -30 -47 -79 -84 -89 -55 -13 -137 35 -204 120 -39 50 -152 -17 -182
-109 -10 -30 -9 -40 4 -60 10 -15 26 -25 41 -25 31 0 42 18 20 34 -22 16 -15
50 11 54 56 8 55 -68 -1 -95 -45 -21 -87 -5 -110 43 -40 84 37 174 164 193
l46 7 -33 32 c-53 50 -142 64 -204 31 -32 -17 -18 -89 17 -89 7 0 11 10 11 23
-1 32 49 38 59 6 17 -52 -62 -71 -102 -25 -65 76 24 183 122 146 48 -18 99
-57 119 -91 18 -30 20 -31 32 -14 42 57 -26 225 -90 225 -28 0 -46 -18 -46
-45 0 -16 6 -20 32 -20 37 0 52 -30 24 -51 -40 -29 -83 19 -71 78 13 57 97 78
148 37z m65 -12 c2 -10 -3 -17 -12 -17 -18 0 -29 16 -21 31 9 14 29 6 33 -14z
m-243 -68 c0 -7 -8 -15 -17 -17 -18 -3 -25 18 -11 32 10 10 28 1 28 -15z m-79
-10 c10 -17 -13 -36 -27 -22 -12 12 -4 33 11 33 5 0 12 -5 16 -11z m531 -14
c7 -20 -2 -29 -21 -22 -9 4 -13 13 -10 22 8 19 23 19 31 0z m-21 -76 c10 -17
-13 -36 -27 -22 -12 12 -4 33 11 33 5 0 12 -5 16 -11z m-281 -172 c0 -63 4
-79 28 -115 32 -49 68 -63 97 -37 11 10 20 29 20 42 0 20 -2 22 -19 12 -26
-17 -53 -4 -49 23 3 26 41 36 64 18 18 -15 18 -79 0 -103 -37 -48 -108 -41
-149 15 -28 37 -34 131 -14 181 9 20 17 37 19 37 2 0 3 -33 3 -73z m-209 32
c10 -17 -13 -36 -27 -22 -12 12 -4 33 11 33 5 0 12 -5 16 -11z m-26 -95 c0
-14 -21 -19 -33 -7 -9 9 13 34 24 27 5 -3 9 -12 9 -20z m534 -15 c-8 -14 -34
-11 -34 4 0 8 3 17 7 20 9 9 34 -13 27 -24z m-86 -6 c-4 -22 -22 -20 -26 1 -2
10 3 16 13 16 10 0 15 -7 13 -17z m-238 -67 c0 -21 -21 -31 -30 -15 -5 7 -6
17 -4 21 9 14 34 9 34 -6z m56 -57 c10 -17 -13 -36 -27 -22 -12 12 -4 33 11
33 5 0 12 -5 16 -11z"/>
</g>
</svg>
